<?xml version="1.0" encoding="UTF-8" standalone="no"?>
<!-- Created with Inkscape (http://www.inkscape.org/) -->

<svg
   xmlns:dc="http://purl.org/dc/elements/1.1/"
   xmlns:cc="http://creativecommons.org/ns#"
   xmlns:rdf="http://www.w3.org/1999/02/22-rdf-syntax-ns#"
   xmlns:svg="http://www.w3.org/2000/svg"
   xmlns="http://www.w3.org/2000/svg"
   xmlns:sodipodi="http://sodipodi.sourceforge.net/DTD/sodipodi-0.dtd"
   xmlns:inkscape="http://www.inkscape.org/namespaces/inkscape"
   width="2100"
   height="2500"
   viewBox="0 0 555.62499 661.45834"
   version="1.1"
   id="svg8"
   sodipodi:docname="ChibiStephContact.svg"
   inkscape:version="0.92.1 r15371">
  <defs
     id="defs2" />
  <sodipodi:namedview
     id="base"
     pagecolor="#ffffff"
     bordercolor="#666666"
     borderopacity="1.0"
     inkscape:pageopacity="0.0"
     inkscape:pageshadow="2"
     inkscape:zoom="0.35"
     inkscape:cx="400"
     inkscape:cy="560"
     inkscape:document-units="px"
     inkscape:current-layer="layer1"
     showgrid="false"
     units="px"
     inkscape:showpageshadow="false"
     borderlayer="true"
     inkscape:snap-path-clip="true"
     inkscape:snap-path-mask="true"
     inkscape:pagecheckerboard="true"
     inkscape:object-nodes="false" />
  <metadata
     id="metadata5">
    <rdf:RDF>
      <cc:Work
         rdf:about="">
        <dc:format>image/svg+xml</dc:format>
        <dc:type
           rdf:resource="http://purl.org/dc/dcmitype/StillImage" />
        <dc:title />
        <dc:creator>
          <cc:Agent>
            <dc:title>Oz Locke</dc:title>
          </cc:Agent>
        </dc:creator>
        <dc:rights>
          <cc:Agent>
            <dc:title>All rights retained by Cuddly Cthulhu Creatives unless provable otherwise (transferal of rights will usualy be provided by email)</dc:title>
          </cc:Agent>
        </dc:rights>
        <dc:publisher>
          <cc:Agent>
            <dc:title>Cuddly Cthulhu Creatives</dc:title>
          </cc:Agent>
        </dc:publisher>
      </cc:Work>
    </rdf:RDF>
  </metadata>
  <g
     inkscape:label="Layer 1"
     inkscape:groupmode="layer"
     id="layer1"
     transform="translate(0,364.45836)">
    <g
       style="display:inline"
       id="g4649"
       transform="matrix(1.2752442,0,0,1.2752442,-1468.4541,195.06782)">
      <path
         inkscape:connector-curvature="0"
         id="path4416"
         d="m 1463.0527,-352.12022 c -4.3703,5.40875 -9.0007,10.72008 -12.4576,16.47134 -0.1741,0.25521 -0.344,0.51262 -0.5111,0.77153 -26.0187,-6.2385 -54.1351,-8.27961 -75.6837,-8.07341 -33.4149,0.31961 -103.5992,0.78027 -138.2836,57.42957 a 3.0003001,3.0003001 0 0 0 3.0732,4.5527 c -1.6754,3.2007 -3.1098,6.48955 -4.3222,9.88725 -5.1559,13.07346 -7.3099,28.40521 -5.349,48.91742 0.053,1.11411 0.1115,2.23706 0.1788,3.37344 0.515,8.70085 4.2934,18.52824 11.006,30.02402 -0.5581,1.08807 -5.9982,1.39462 -7.7086,2.50269 -1.487,0.34867 -2.9826,0.68697 -4.4881,1.01182 4.2695,0.74954 8.8079,1.02534 13.5455,0.87437 0.7264,0.16317 1.2623,0.3751 1.4681,0.66249 1.0951,1.5295 2.222,3.13801 3.3652,4.78729 11.8641,18.99756 25.4294,34.54416 26.8681,36.34248 -2.2828,-3.81328 -4.6469,-7.5959 -6.905,-11.41841 -1.9498,-3.98965 -5.3304,-10.43908 -8.1427,-16.01298 -0.6588,-1.66132 -1.2555,-3.3459 -1.7787,-5.05809 10.8903,15.87664 27.0009,30.20345 44.4888,41.90288 11.4218,7.94901 23.3545,14.62971 34.9234,19.74762 l -2.0081,-0.0228 -0.1256,-0.65058 c 0,0 -0.2559,0.29741 -0.5483,0.64283 l -0.7131,-0.008 c -3.1833,4.35252 -6.0722,8.62364 -8.2874,12.70725 -2.2861,3.994384 -4.1204,8.258334 -4.272,11.833384 -0.04,0.32491 -0.071,0.64738 -0.093,0.9674 -0.047,0.1162 -0.1077,0.2722 -0.1855,0.46818 0,0.005 -0.01,0.01 -0.01,0.015 v 0.007 c -0.2408,0.60685 -0.5879,1.49474 -1.0465,2.73524 -4.0832,10.73475 -4.9579,15.12898 -5.0808,16.87131 -2.1971,9.86346 -2.7864,20.136963 3.2535,22.788273 0.7741,0.339831 1.5839,0.165179 2.3952,-0.351896 -1.9785,12.624382 -5.8161,33.507839 -12.0101,52.9610897 0,0 0,5.29e-4 0,5.29e-4 0,0 2.1558,0.671539 5.826,1.729078 4.3947,1.3031263 9.2913,2.7385173 14.3206,4.1367083 l -0.065,-0.01447 0.1437,2.012791 c -0.047,5.417371 0.031,21.828813 2.4308,34.022744 l 10e-4,0.0155 v 5.03e-4 c 0.8824,4.478655 2.0769,8.365463 3.6959,10.883582 0.9759,1.689576 2.1991,2.911316 3.7109,2.964683 0,1.32e-4 0.01,-1.33e-4 0.011,0 0.329,0.06194 0.6683,0.08453 1.0195,0.06149 3.557,-0.233336 5.3811,-5.215837 6.226,-11.812191 v -10e-4 c 0.018,-0.1397 0.034,-0.282125 0.051,-0.423254 0,-3.7e-4 0,-0.01654 0,-0.01654 0,0 0,5.3e-4 0,5.3e-4 1.3003,-10.805928 0.076,-25.621323 -0.4749,-31.194983 l -0.03,-2.232951 c 5.3158,1.192504 10.2976,2.104602 14.4544,2.502165 0.1613,0.01543 0.3101,0.014 0.4512,0.0026 0.2415,0.04418 0.4815,0.08956 0.7235,0.133323 l -0.059,-0.305911 c 0.045,-0.02177 0.089,-0.04559 0.1318,-0.0708 l -0.065,0.351923 c 0.052,-0.135017 0.1,-0.26924 0.1509,-0.404125 0.9064,-0.613251 1.0987,-2.020676 1.11,-3.034956 0.1269,-0.358854 0.2544,-0.717762 0.3778,-1.075902 4.252,0.722577 7.1429,1.206395 9.9668,1.63195 l 6.9464,1.302227 0.024,-0.328639 c 0.07,0.01511 0.134,0.03421 0.1902,0.05839 -0.106,0.983192 -0.2178,1.967415 -0.3328,2.951745 -0.4068,1.013169 -0.662,1.913969 0.2734,2.019009 4.0899,0.459158 8.021,0.774567 11.7925,0.954458 0.1796,1.550326 1.8744,15.637403 5.5465,26.597847 0,0 0,0 0,0 0,0 0.012,0.0345 0.013,0.03619 1.9594,5.837476 4.468,10.684616 7.5836,12.065397 0.6629,0.33782 1.3484,0.490723 2.0479,0.38862 0.01,-7.67e-4 0.01,-0.0023 0.016,-0.0031 0.2254,-0.01334 0.4533,-0.04231 0.6842,-0.09197 4.0895,-0.879449 5.202,-7.123959 5.0524,-14.376374 0,-2.38e-4 0,-8.2e-4 0.01,-0.001 l -0.01,5.03e-4 c -0.2272,-11.017092 -3.3477,-24.246284 -3.4545,-24.696155 l -0.016,-0.133323 c 5.2255,-0.42291 10.006,-1.182053 14.3232,-2.254144 3.9877,-0.957528 7.7097,-2.246816 11.1068,-3.920676 4.9078,-2.373656 8.8199,-5.347202 11.6742,-8.8542543 0.019,-0.02172 0.038,-0.04281 0.057,-0.06459 13.266,-15.434945 6.8161,-46.7977007 -1.8723,-72.2886077 1.3285,-5.5552 1.9722,-11.21339 1.9074,-16.26931 -0.2161,-16.8614 -18.3704,-32.6471 -18.3704,-32.6471 l -0.038,0.38137 c -0.016,-0.0173 -0.045,-0.0487 -0.059,-0.0631 l 0.097,-0.31832 0.078,-0.25527 -0.5002,-0.006 c 22.3572,-9.21102 46.0746,-24.12359 65.289,-43.29401 0,-0.004 0.01,-0.008 0.011,-0.0114 0.3008,-0.30011 0.6012,-0.6006 0.8997,-0.90278 2.643,-2.64867 5.1681,-5.36363 7.5417,-8.14422 2.2846,-2.63694 4.48,-5.3408 6.5722,-8.10906 2.6206,-2.64239 4.9029,-5.07335 6.6849,-7.02439 a 9.612768,17.384794 0 0 0 3.4732,3.21738 l 4.0607,12.36618 c 0.013,-0.0975 0.024,-0.19323 0.036,-0.29043 10e-5,1.8e-4 0.014,0.0424 0.014,0.0424 l 1.5689,-12.43954 a 9.612768,17.384794 0 0 0 6.488,-16.41917 9.612768,17.384794 0 0 0 -3.1125,-12.77906 c 1.3647,-3.82844 3.4918,-10.43233 5.0994,-18.42264 3.3686,-12.09398 5.4235,-27.61547 -3.7429,-50.52664 -2.5396,-6.34766 -5.8736,-12.03209 -9.9131,-17.14159 -2.9243,-6.87826 -6.9296,-12.99074 -12.3801,-17.68988 -12.6819,-10.9336 -30.6434,-18.53843 -50.1189,-23.6678 0.079,-0.29849 0.1631,-0.59705 0.2517,-0.89607 0.3174,-0.98837 0.6578,-1.97445 1.0071,-2.96003 1.8341,-4.80491 4.5497,-9.67687 6.8311,-14.61409 z m -211.9028,167.61251 c 0.1215,0.19913 0.2406,0.39923 0.3633,0.59788 1.5497,2.86999 3.2802,5.69854 5.1718,8.48011 l -0.9958,-0.65784 c -2.2593,-4.45555 -4.3129,-7.87534 -4.6762,-8.37882 0.031,-0.01 0.1042,-0.0312 0.1369,-0.0413 z m 174.778,75.59072 -0.8382,4.40645 -0.354,-0.48781 c 0.01,-0.0214 0.011,-0.0427 0.017,-0.0641 z m -64.1444,125.296243 15.8222,2.652024 z m 17.1296,2.066528 c 0.807,0.383169 0.1267,1.726406 -0.3544,2.920762 z"
         style="opacity:1;vector-effect:none;fill:#cd853f;fill-opacity:1;stroke:#ffffff;stroke-width:10;stroke-linecap:round;stroke-linejoin:round;stroke-miterlimit:4;stroke-dasharray:none;stroke-dashoffset:0;stroke-opacity:1;paint-order:normal" />
      <g
         transform="translate(2044.0971,924.28924)"
         id="g4405">
        <path
           style="opacity:1;vector-effect:none;fill:#cd853f;fill-opacity:1;stroke:none;stroke-width:0.70339698;stroke-linecap:round;stroke-linejoin:miter;stroke-miterlimit:4;stroke-dasharray:none;stroke-dashoffset:0;stroke-opacity:1;paint-order:normal"
           d="m -632.72589,-875.28989 c 0,0 -3.52285,2.28916 -5.53571,2.67214 -3.17629,0.60435 -9.67351,-0.71401 -9.67351,-0.71401 0,0 4.43946,13.24955 9.6443,12.48982 5.10676,-0.74541 5.56492,-14.44795 5.56492,-14.44795 z"
           id="path4098"
           inkscape:connector-curvature="0"
           sodipodi:nodetypes="cscsc" />
        <path
           style="opacity:1;vector-effect:none;fill:#cd853f;fill-opacity:1;stroke:none;stroke-width:0.70339698;stroke-linecap:round;stroke-linejoin:miter;stroke-miterlimit:4;stroke-dasharray:none;stroke-dashoffset:0;stroke-opacity:1;paint-order:normal"
           d="m -699.10968,-873.18965 c 0,0 -2.57573,12.3583 -7.31126,12.19115 -5.11436,-0.18052 -6.94817,-13.69038 -6.94817,-13.69038 0,0 5.07924,2.68194 7.86339,2.87525 2.17556,0.15105 6.39604,-1.37602 6.39604,-1.37602 z"
           id="path4100"
           inkscape:connector-curvature="0"
           sodipodi:nodetypes="cscsc" />
        <path
           style="opacity:1;vector-effect:none;fill:#add8e6;fill-opacity:1;stroke:none;stroke-width:0.26458332px;stroke-linecap:butt;stroke-linejoin:miter;stroke-miterlimit:4;stroke-dasharray:none;stroke-dashoffset:0;stroke-opacity:1"
           d="m -699.62369,-907.13006 0.45926,34.38121 -5.70693,0.97737 -8.95863,-3.07565 -2.57567,-36.05125 z"
           id="path4082"
           inkscape:connector-curvature="0" />
        <path
           style="fill:#add8e6;fill-opacity:1;stroke:none;stroke-width:0.26458332px;stroke-linecap:butt;stroke-linejoin:miter;stroke-opacity:1"
           d="m -636.04088,-900.40892 3.01136,25.16835 -6.64208,2.81041 -8.10432,-1.39864 -5.76392,-26.58012 z"
           id="path4077"
           inkscape:connector-curvature="0" />
        <path
           inkscape:export-ydpi="96"
           inkscape:export-xdpi="96"
           sodipodi:nodetypes="cscc"
           inkscape:connector-curvature="0"
           id="path3927"
           d="m -720.0054,-976.05034 c 10e-5,0.16415 -3.42074,9.5759 -8.09171,5.49181 -6.24055,-5.45629 -2.06074,-20.57306 -1.97438,-20.55967 z"
           style="display:inline;opacity:1;fill:#ffdab9;fill-opacity:1;fill-rule:nonzero;stroke:none;stroke-width:0.70339698;stroke-linecap:round;stroke-linejoin:miter;stroke-miterlimit:4;stroke-dasharray:none;stroke-dashoffset:0;stroke-opacity:1;paint-order:normal" />
        <path
           style="display:inline;opacity:1;fill:#ffffff;fill-opacity:1;fill-rule:nonzero;stroke:none;stroke-width:0.70339698;stroke-linecap:round;stroke-linejoin:miter;stroke-miterlimit:4;stroke-dasharray:none;stroke-dashoffset:0;stroke-opacity:1"
           d="m -716.64867,-982.29331 -2.71319,-17.99049 -4.43256,-11.9669 c -7.57456,19.23153 -6.26371,21.19852 -6.26371,21.19852 l 10.05297,15.00177 c 0,0 2.03767,-2.72783 3.35649,-6.2429 z"
           id="path4119"
           inkscape:connector-curvature="0" />
        <path
           inkscape:connector-curvature="0"
           style="display:inline;opacity:1;fill:#ffffff;fill-opacity:1;fill-rule:nonzero;stroke:none;stroke-width:2.6585083;stroke-linecap:round;stroke-linejoin:miter;stroke-miterlimit:4;stroke-dasharray:none;stroke-dashoffset:0;stroke-opacity:1"
           d="m -2332.3672,-1862.1621 -355.4551,-3.9863 c -25.6637,35.0902 -46.2733,68.7766 -47.8769,97.1836 -0.2596,0.3914 -0.4215,0.6634 -0.6778,1.0507 l 6.9922,47.7227 -4.0937,68.6426 c 0.549,-0.86 1.1549,-1.5769 1.6777,-2.4727 0,0 -1.0054,8.3161 -2.7754,20.8945 -5.7362,40.7643 -21.0341,136.4832 -48.998,224.3086 53.3129,15.7833 141.1949,42.7049 193.9844,47.7539 11.5286,1.1028 9.0058,-16.9238 9.0058,-16.9238 29.3775,4.9956 41.0956,6.9251 65.2442,10.0391 8.683,1.1197 -7.2703,18.1757 0.9218,19.0957 146.8717,16.4889 240.1961,-15.5985 265.3477,-78.543 34.019,-88.3201 -3.1639,-192.9792 -39.668,-297.4824 l -40.8808,-93.7422 -11.2813,-15.5449 z"
           id="path4124"
           transform="matrix(0.26458333,0,0,0.26458333,0,-544)" />
        <path
           inkscape:export-ydpi="96"
           inkscape:export-xdpi="96"
           sodipodi:nodetypes="csccc"
           inkscape:connector-curvature="0"
           id="path3939"
           d="m -513.55443,-1177.2803 c 11.27386,87.2633 -97.87155,152.1612 -150.32015,151.0609 -51.7405,-1.0853 -157.8915,-69.7577 -142.6217,-146.935 50.4263,-118.3736 291.00485,-66.7161 292.94185,-4.1259 z"
           style="display:inline;opacity:1;fill:#ffdab9;fill-opacity:1;fill-rule:nonzero;stroke:none;stroke-width:0.95125401;stroke-linecap:round;stroke-linejoin:miter;stroke-miterlimit:4;stroke-dasharray:none;stroke-dashoffset:0;stroke-opacity:1" />
        <path
           inkscape:export-ydpi="96"
           inkscape:export-xdpi="96"
           inkscape:connector-curvature="0"
           id="path3941"
           d="m -725.55858,-1136.0663 c -7.3741,4.9895 -14.9591,9.4271 -22.551,13.2507 -6e-4,0.01 -10e-4,0.016 0,0.018 -0.024,0.3453 -0.041,0.6885 -0.051,1.0251 -0.011,0.2675 -0.016,0.5379 -0.021,0.8107 0,0.2726 0,0.5476 -6e-4,0.8248 0,2e-4 0,3e-4 0,5e-4 0,0.2771 0.011,0.5561 0.021,0.8368 0.021,0.562 0.056,1.1303 0.1053,1.7028 0.026,0.2862 0.053,0.573 0.086,0.8606 0,2e-4 0,3e-4 0,6e-4 0.033,0.2873 0.068,0.5756 0.1085,0.8639 0.1204,0.8655 0.2767,1.7328 0.4705,2.5922 0.065,0.2866 0.133,0.5715 0.2061,0.8557 0.016,0.061 0.034,0.122 0.05,0.1829 0.2087,0.79 0.449,1.5703 0.7271,2.3316 0.2996,0.8202 0.6407,1.6189 1.0256,2.3866 10e-5,2e-4 -10e-5,3e-4 0,6e-4 0.1283,0.2561 0.2614,0.5079 0.3994,0.7564 10e-5,10e-5 -1e-4,3e-4 0,6e-4 0.2763,0.497 0.573,0.9793 0.8899,1.4429 0.317,0.4636 0.6545,0.9089 1.0137,1.3332 0.1796,0.2125 0.3647,0.4191 0.5551,0.6202 0.1902,0.2011 0.3858,0.3965 0.5871,0.5861 10e-5,10e-5 6e-4,-10e-5 6e-4,0 0.7048,0.6631 1.4774,1.2525 2.3225,1.7522 10e-5,10e-5 3e-4,-10e-5 5e-4,0 0.1207,0.071 0.2427,0.1413 0.3663,0.2087 2e-4,10e-5 3e-4,0 6e-4,0 0.2471,0.1355 0.5004,0.263 0.7597,0.383 10e-5,1e-4 2e-4,-10e-5 5e-4,0 0.1297,0.06 0.2604,0.1183 0.3929,0.1741 1e-4,10e-5 3e-4,0 5e-4,0 0.3981,0.168 0.8099,0.3184 1.2357,0.4488 10e-5,10e-5 2e-4,0 5e-4,0 0.2838,0.087 0.5736,0.1654 0.8699,0.2349 10e-5,1e-4 2e-4,0 5e-4,0 0.1408,0.013 0.2807,0.024 0.4195,0.032 0.1391,0.01 0.2769,0.013 0.414,0.016 0.2688,0 0.5341,9e-4 0.795,-0.013 0.1376,-0.01 0.2743,-0.016 0.4097,-0.032 0.3712,-0.036 0.7338,-0.09 1.0885,-0.1624 0.049,-0.013 0.097,-0.021 0.1461,-0.032 0.186,-0.041 0.3694,-0.087 0.5507,-0.1376 0.1969,-0.055 0.3909,-0.1161 0.5823,-0.1828 0.076,-0.028 0.1521,-0.052 0.2273,-0.08 2e-4,-10e-5 3e-4,-6e-4 5e-4,-6e-4 0.2326,-0.087 0.4614,-0.182 0.6859,-0.2853 2e-4,-2e-4 3e-4,-6e-4 6e-4,-6e-4 0.1116,-0.051 0.2193,-0.1101 0.3288,-0.1651 0.2416,-0.1214 0.4785,-0.2519 0.7104,-0.3913 0.086,-0.052 0.1751,-0.099 0.2598,-0.1537 2e-4,-2e-4 2e-4,-3e-4 5e-4,-6e-4 0.8337,-0.5319 1.6018,-1.1762 2.3057,-1.9063 0.176,-0.1825 0.3481,-0.3703 0.5161,-0.5633 0.168,-0.1929 0.3317,-0.3909 0.4916,-0.5931 0.3197,-0.4047 0.6231,-0.8275 0.9106,-1.2654 0.2874,-0.4378 0.5586,-0.8906 0.8139,-1.355 0.2553,-0.4645 0.4947,-0.9406 0.7179,-1.425 0.1117,-0.2421 0.2194,-0.4861 0.3229,-0.732 0.1037,-0.246 0.2029,-0.4933 0.2984,-0.7423 0.095,-0.2487 0.1876,-0.4985 0.2751,-0.7494 0.701,-2.0071 1.1467,-4.0682 1.3398,-5.9723 0.04,-0.3588 0.073,-0.7233 0.1027,-1.0901 0.01,-0.097 0.016,-0.1937 0.021,-0.291 0.024,-0.3111 0.041,-0.625 0.055,-0.9409 0,-0.063 0.01,-0.1268 0.011,-0.1905 0.016,-0.3715 0.024,-0.7457 0.028,-1.1222 8e-4,-0.093 3e-4,-0.1873 5e-4,-0.281 6e-4,-0.3048 0,-0.6111 -0.011,-0.9182 0,-0.094 0,-0.1886 -0.01,-0.2834 -0.013,-0.3917 -0.03,-0.784 -0.055,-1.1775 -10e-4,-0.018 0,-0.043 -0.01,-0.065 -0.026,-0.3826 -0.058,-0.7657 -0.097,-1.1488 -0.01,-0.063 -0.013,-0.1254 -0.019,-0.1886 -0.086,-0.8105 -0.2011,-1.6198 -0.3483,-2.4224 -0.019,-0.098 -0.036,-0.1968 -0.055,-0.2953 -0.058,-0.3008 -0.1212,-0.6008 -0.189,-0.8991 -0.013,-0.055 -0.024,-0.1098 -0.036,-0.1651 -5e-4,0 -10e-4,-0.01 0,-0.01 -0.038,-0.1612 -0.078,-0.3215 -0.1182,-0.4819 -0.021,-0.083 -0.042,-0.1664 -0.063,-0.2492 -0.043,-0.1651 -0.087,-0.3294 -0.1334,-0.4933 -0.019,-0.067 -0.039,-0.1341 -0.059,-0.2013 -0.086,-0.2965 -0.1773,-0.591 -0.2735,-0.8829 -0.026,-0.078 -0.051,-0.1564 -0.077,-0.2339 -0.053,-0.1559 -0.1082,-0.3112 -0.1645,-0.4656 -0.031,-0.086 -0.064,-0.1715 -0.096,-0.2572 -0.1299,-0.3449 -0.266,-0.6864 -0.4114,-1.0223 -0.068,-0.1582 -0.1402,-0.3143 -0.2122,-0.4705 -0.03,-0.065 -0.06,-0.1294 -0.09,-0.1936 -0.076,-0.1599 -0.1521,-0.3191 -0.2317,-0.4765 0,0 0,-0.01 -0.01,-0.013 -0.011,-0.024 -0.024,-0.045 -0.036,-0.068 -0.1551,-0.3036 -0.3182,-0.6017 -0.4879,-0.8954 -0.038,-0.065 -0.075,-0.1301 -0.113,-0.195 -0.082,-0.1386 -0.1666,-0.2762 -0.2524,-0.4124 -0.046,-0.072 -0.092,-0.1436 -0.1384,-0.2145 -0.1764,-0.2715 -0.3592,-0.5378 -0.5497,-0.7982 -0.021,-0.032 -0.043,-0.061 -0.065,-0.091 z"
           style="display:inline;opacity:1;fill:#32cd32;fill-opacity:1;fill-rule:nonzero;stroke:none;stroke-width:0.95125401;stroke-linecap:round;stroke-linejoin:miter;stroke-miterlimit:4;stroke-dasharray:none;stroke-dashoffset:0;stroke-opacity:1;paint-order:normal" />
        <ellipse
           inkscape:export-ydpi="96"
           inkscape:export-xdpi="96"
           ry="10.227468"
           rx="6.7117767"
           cy="-1118.6002"
           cx="-524.48505"
           id="ellipse3949"
           style="display:inline;opacity:1;fill:#ffdab9;fill-opacity:1;fill-rule:nonzero;stroke:none;stroke-width:1.25227475;stroke-linecap:round;stroke-linejoin:miter;stroke-miterlimit:4;stroke-dasharray:none;stroke-dashoffset:0;stroke-opacity:1;paint-order:normal" />
        <path
           inkscape:export-ydpi="96"
           inkscape:export-xdpi="96"
           sodipodi:nodetypes="csc"
           inkscape:connector-curvature="0"
           id="path3951"
           d="m -526.64747,-1116.4302 c -1.77624,-0.4637 -2.195,-1.7147 -1.73134,-3.4909 0.46366,-1.7762 2.27943,-2.8403 4.05567,-2.3766"
           style="display:inline;opacity:1;fill:#ffdab9;fill-opacity:1;fill-rule:nonzero;stroke:none;stroke-width:0.95125401;stroke-linecap:round;stroke-linejoin:miter;stroke-miterlimit:4;stroke-dasharray:none;stroke-dashoffset:0;stroke-opacity:1;paint-order:normal" />
        <path
           inkscape:export-ydpi="96"
           inkscape:export-xdpi="96"
           inkscape:connector-curvature="0"
           id="path3955"
           d="m -592.62428,-1155.3891 4.6023,20.9663"
           style="display:inline;opacity:1;fill:#ff6347;fill-opacity:1;fill-rule:nonzero;stroke:#ff6347;stroke-width:1.90250802;stroke-linecap:round;stroke-linejoin:miter;stroke-miterlimit:4;stroke-dasharray:none;stroke-dashoffset:0;stroke-opacity:1" />
        <path
           inkscape:export-ydpi="96"
           inkscape:export-xdpi="96"
           style="display:inline;opacity:1;fill:#ff6347;fill-opacity:1;fill-rule:nonzero;stroke:#ff6347;stroke-width:1.90250802;stroke-linecap:round;stroke-linejoin:miter;stroke-miterlimit:4;stroke-dasharray:none;stroke-dashoffset:0;stroke-opacity:1"
           d="m -569.35688,-1155.3891 -4.6023,20.9663"
           id="path3957"
           inkscape:connector-curvature="0" />
        <path
           inkscape:export-ydpi="96"
           inkscape:export-xdpi="96"
           inkscape:connector-curvature="0"
           id="path3959"
           d="m -581.21558,-1156.9171 -0.061,21.4655"
           style="display:inline;opacity:1;fill:#ff6347;fill-opacity:1;fill-rule:nonzero;stroke:#ff6347;stroke-width:1.90250802;stroke-linecap:round;stroke-linejoin:miter;stroke-miterlimit:4;stroke-dasharray:none;stroke-dashoffset:0;stroke-opacity:1" />
        <path
           inkscape:export-ydpi="96"
           inkscape:export-xdpi="96"
           style="display:inline;opacity:1;fill:#32cd32;fill-opacity:1;fill-rule:nonzero;stroke:none;stroke-width:0.95125401;stroke-linecap:round;stroke-linejoin:miter;stroke-miterlimit:4;stroke-dasharray:none;stroke-dashoffset:0;stroke-opacity:1;paint-order:normal"
           d="m -581.43108,-1141.4987 c -9.3704,0.7779 -13.1763,11.6302 -13.4145,19.7295 -0.3239,8.5617 2.6867,19.9666 12.1739,22.1917 9.0253,0.8534 13.8392,-9.2733 14.6118,-16.8895 1.0039,-9.0033 -1.2317,-20.7982 -10.5448,-24.6037 -0.9232,-0.2849 -1.8608,-0.425 -2.8264,-0.428 z"
           id="path3961"
           inkscape:connector-curvature="0" />
        <path
           inkscape:connector-curvature="0"
           style="display:inline;opacity:1;fill:#ff4500;fill-opacity:1;fill-rule:nonzero;stroke:none;stroke-width:5.53737307;stroke-linecap:round;stroke-linejoin:bevel;stroke-miterlimit:4;stroke-dasharray:none;stroke-dashoffset:0;stroke-opacity:1;paint-order:normal"
           d="m -2001.9004,-2136.4102 c 0.563,0.7503 25.1192,77.1231 25.1192,77.1231 l 9.3828,-74.3887 c -10.8506,1.8316 -22.4643,0.4412 -34.502,-2.7344 z"
           id="path4175"
           transform="matrix(0.26458333,0,0,0.26458333,0,-544)" />
        <path
           inkscape:connector-curvature="0"
           style="display:inline;opacity:1;fill:#ff4500;fill-opacity:1;fill-rule:nonzero;stroke:none;stroke-width:5.53737307;stroke-linecap:round;stroke-linejoin:bevel;stroke-miterlimit:4;stroke-dasharray:none;stroke-dashoffset:0;stroke-opacity:1;paint-order:normal"
           d="m -2226.9941,-2676.9141 -1.2579,0.6192 -26.4042,-6.9883 -0.6739,-1.4609 -1.1582,-0.3184 c -97.8901,-27.2636 -190.0026,-36.8704 -312.0371,-31.8633 -167.8579,6.8871 -359.7158,60.4808 -440.7734,169.166 -53.2256,71.367 -82.5279,147.093 -68.7481,277.5196 -0.729,25.576 18.838,75.6435 41.5469,117.9179 3.414,6.3561 -30.9451,6.5129 -31.0332,13.711 -0.038,3.2228 37.6709,1.2717 41.7305,6.9414 32.5228,45.4257 72.2901,108.9047 93.5839,126.3574 5.4671,4.4806 -26.9806,-55.2722 -43.9843,-90.2676 -9.8544,-20.2821 -19.7162,-36.761 -21.2813,-38.9297 21.7916,-6.7623 130.9531,-38.2226 130.9532,-38.2226 38.9038,-12.5628 125.4296,-69.3106 125.4296,-69.3106 57.6741,-1.8448 82.5064,-2.3447 158.9493,-49.6406 27.8332,-17.2207 50.3063,-27.8191 70.2304,-41.4258 94.7596,-64.7134 129.4175,-97.3141 193.3067,-112.5195 42.4146,-8.8672 123.8079,-8.9382 131.0117,4.0312 27.7697,56.7988 142.7635,174.4517 171.2031,218.5274 20.4729,31.7291 35.3171,-5.9672 53.2168,19.9082 0,0 45.901,-109.7482 28.6406,-205.0879 -9.3289,-51.5293 -40.0259,-132.0348 -97.4961,-174.7344 -63.9542,-47.5173 -119.9939,-72.8402 -194.955,-93.9297 z"
           id="path4173"
           transform="matrix(0.26458333,0,0,0.26458333,0,-544)" />
        <path
           style="display:inline;fill:#6b8e23;fill-opacity:1;stroke:none;stroke-width:0.49221095px;stroke-linecap:butt;stroke-linejoin:miter;stroke-opacity:1"
           d="m -634.05318,-1030.468 -5.74061,7.1417 -7.7787,5.1269 -2.0548,6.8459 -3.4257,23.91543 -3.5357,12.90564 -6.257,33.94349 -2.5825,35.00424 -16.9718,-3.1822 c 6.5489,-19.92632 9.4192,-39.97924 10.077,-60.1083 l -5.3036,-33.59 -2.1215,-13.7895 -12.3328,-11.8626 -3.2247,-4.0484 19.4468,4.7733 16.2646,1.9446 20.5076,-4.4197 z"
           id="path3965"
           inkscape:connector-curvature="0"
           sodipodi:nodetypes="cccccccccccccccccc" />
        <path
           style="display:inline;opacity:1;vector-effect:none;fill:none;fill-opacity:1;stroke:#8b4513;stroke-width:1.88764453;stroke-linecap:round;stroke-linejoin:miter;stroke-miterlimit:4;stroke-dasharray:none;stroke-dashoffset:0;stroke-opacity:1"
           d="m -657.20889,-971.52457 c -5.7002,23.69331 -5.6671,46.66994 -8.5006,70.0049"
           id="path3969"
           inkscape:connector-curvature="0"
           sodipodi:nodetypes="cc" />
        <path
           sodipodi:nodetypes="ccccccc"
           inkscape:connector-curvature="0"
           id="path3971"
           d="m -708.77649,-1036.974 c 0,0 3.0136,18.8841 8.3959,25.3016 3.6508,0.3563 7.113,-0.013 10.5626,-1.6423 9.7291,15.90076 12.1755,28.26617 18.1512,42.77231 -2.3566,-14.93024 -6.2034,-29.44706 -6.8559,-43.88931 -1.8621,-3.2167 -3.8337,-6.4061 -8.9565,-8.81 l -6.8882,-8.6727"
           style="display:inline;opacity:1;vector-effect:none;fill:none;fill-opacity:1;stroke:#8b4513;stroke-width:1.88800001;stroke-linecap:round;stroke-linejoin:round;stroke-miterlimit:4;stroke-dasharray:none;stroke-dashoffset:0;stroke-opacity:1" />
        <path
           inkscape:connector-curvature="0"
           id="path3973"
           d="m -671.65279,-970.50306 c -2.2341,23.13239 -3.7231,44.00351 -12.3273,66.49888"
           style="display:inline;opacity:1;vector-effect:none;fill:none;fill-opacity:1;stroke:#8b4513;stroke-width:1.88764453;stroke-linecap:round;stroke-linejoin:miter;stroke-miterlimit:4;stroke-dasharray:none;stroke-dashoffset:0;stroke-opacity:1"
           sodipodi:nodetypes="cc" />
        <path
           style="display:inline;opacity:1;vector-effect:none;fill:none;fill-opacity:1;stroke:#8b4513;stroke-width:1.88764453;stroke-linecap:round;stroke-linejoin:miter;stroke-miterlimit:4;stroke-dasharray:none;stroke-dashoffset:0;stroke-opacity:1"
           d="m -666.49162,-905.25833 -15.8226,-2.65184"
           id="path3975"
           inkscape:connector-curvature="0" />
        <path
           inkscape:export-ydpi="96"
           inkscape:export-xdpi="96"
           style="opacity:1;fill:none;fill-opacity:1;fill-rule:nonzero;stroke:#8b4513;stroke-width:1.88764453;stroke-linecap:round;stroke-linejoin:miter;stroke-miterlimit:4;stroke-dasharray:none;stroke-dashoffset:0;stroke-opacity:1"
           d="m -616.99819,-1026.4077 c 0,0 42.6242,82.6953 18.1503,111.17052 -13.3006,15.4751 -39.0805,16.94776 -66.8448,13.74387 m -18.2951,-2.48588 c -27.6555,-5.00239 -52.4998,-12.77049 -52.4998,-12.77049 0,0 19.9427,-61.08674 12.947,-94.13572 -2.0422,-9.6478 13.6491,-27.5017 13.6491,-27.5017"
           id="path3977"
           inkscape:connector-curvature="0"
           sodipodi:nodetypes="cscccsc" />
        <path
           inkscape:export-ydpi="96"
           inkscape:export-xdpi="96"
           sodipodi:nodetypes="csc"
           inkscape:connector-curvature="0"
           id="path3983"
           d="m -723.67656,-1012.5601 c 0,0 -15.62632,37.74417 -3.19595,43.20067 0.91912,0.40346 1.88861,0.0883 2.8512,-0.67327"
           style="opacity:1;fill:none;fill-opacity:1;fill-rule:nonzero;stroke:#8b4513;stroke-width:1.88764453;stroke-linecap:round;stroke-linejoin:miter;stroke-miterlimit:4;stroke-dasharray:none;stroke-dashoffset:0;stroke-opacity:1" />
        <path
           inkscape:export-ydpi="96"
           inkscape:export-xdpi="96"
           inkscape:connector-curvature="0"
           id="path3991"
           d="m -730.07149,-991.1182 6.98497,10.45575"
           style="opacity:1;fill:none;fill-opacity:1;fill-rule:nonzero;stroke:#8b4513;stroke-width:1.88764453;stroke-linecap:round;stroke-linejoin:miter;stroke-miterlimit:4;stroke-dasharray:none;stroke-dashoffset:0;stroke-opacity:1;paint-order:normal"
           sodipodi:nodetypes="cc" />
        <path
           inkscape:export-ydpi="96"
           inkscape:export-xdpi="96"
           sodipodi:nodetypes="ccscc"
           inkscape:connector-curvature="0"
           id="path4009"
           d="m -529.38109,-1124.9758 c 0,0 0.33508,-4.3279 4.37561,-4.3279 4.04054,0 7.316,4.8567 7.316,10.8479 0,5.9911 -3.27546,10.8479 -7.316,10.8479 -4.04053,0 -5.90973,-6.7569 -5.90973,-6.7569"
           style="opacity:1;fill:none;fill-opacity:1;fill-rule:nonzero;stroke:#8b4513;stroke-width:1.88764453;stroke-linecap:round;stroke-linejoin:miter;stroke-miterlimit:4;stroke-dasharray:none;stroke-dashoffset:0;stroke-opacity:1;paint-order:normal" />
        <path
           inkscape:export-ydpi="96"
           inkscape:export-xdpi="96"
           sodipodi:nodetypes="csc"
           inkscape:connector-curvature="0"
           id="path4011"
           d="m -792.82398,-1108.6424 c 24.9354,46.8115 98.2201,82.7476 130.9713,82.7476 33.1435,0 107.2161,-35.722 131.85701,-83.4544"
           style="display:inline;opacity:1;fill:none;fill-opacity:1;fill-rule:nonzero;stroke:#8b4513;stroke-width:1.88752604;stroke-linecap:round;stroke-linejoin:miter;stroke-miterlimit:4;stroke-dasharray:none;stroke-dashoffset:0;stroke-opacity:1" />
        <path
           sodipodi:nodetypes="ccccc"
           inkscape:export-ydpi="96"
           inkscape:export-xdpi="96"
           inkscape:connector-curvature="0"
           id="path4013"
           d="m -748.11018,-1122.8154 c -0.024,0.3524 -0.041,0.7023 -0.052,1.0459 -0.324,8.5618 2.6862,19.9672 12.1734,22.1922 9.0253,0.8534 13.8395,-9.2737 14.6121,-16.8899 0.7155,-6.4168 -0.2172,-14.2493 -4.1822,-19.599"
           style="display:inline;opacity:1;fill:none;fill-opacity:1;fill-rule:nonzero;stroke:#8b4513;stroke-width:1.88764453;stroke-linecap:round;stroke-linejoin:miter;stroke-miterlimit:4;stroke-dasharray:none;stroke-dashoffset:0;stroke-opacity:1;paint-order:normal" />
        <path
           inkscape:export-ydpi="96"
           inkscape:export-xdpi="96"
           style="display:inline;opacity:1;fill:none;fill-opacity:1;fill-rule:nonzero;stroke:#8b4513;stroke-width:1.88764453;stroke-linecap:round;stroke-linejoin:miter;stroke-miterlimit:4;stroke-dasharray:none;stroke-dashoffset:0;stroke-opacity:1;paint-order:normal"
           d="m -581.43108,-1141.4987 c -9.3704,0.7779 -13.1763,11.6302 -13.4145,19.7295 -0.3239,8.5618 2.6867,19.9666 12.1739,22.1917 9.0253,0.8534 13.8392,-9.2733 14.6118,-16.8895 1.0039,-9.0033 -1.2317,-20.7982 -10.5448,-24.6037 -0.9232,-0.2849 -1.8608,-0.425 -2.8264,-0.428 z"
           id="path4015"
           inkscape:connector-curvature="0" />
        <path
           inkscape:export-ydpi="96"
           inkscape:export-xdpi="96"
           sodipodi:nodetypes="csc"
           inkscape:connector-curvature="0"
           id="path4017"
           d="m -526.64747,-1116.4302 c -1.77624,-0.4637 -2.195,-1.7146 -1.73134,-3.4909 0.46369,-1.7762 2.27946,-2.8403 4.05567,-2.3766"
           style="display:inline;opacity:1;fill:none;fill-opacity:1;fill-rule:nonzero;stroke:#8b4513;stroke-width:1.88764453;stroke-linecap:round;stroke-linejoin:miter;stroke-miterlimit:4;stroke-dasharray:none;stroke-dashoffset:0;stroke-opacity:1;paint-order:normal" />
        <path
           inkscape:export-ydpi="96"
           inkscape:export-xdpi="96"
           sodipodi:nodetypes="ccc"
           inkscape:connector-curvature="0"
           id="path4023"
           d="m -665.95808,-1203.0123 c -14.7893,47.412 -100.1993,102.1491 -149.6324,93.4707 38.8104,-8.3746 71.7533,-24.3279 85.3341,-65.2906"
           style="display:inline;opacity:1;fill:none;fill-opacity:1;fill-rule:nonzero;stroke:#8b4513;stroke-width:1.46509659;stroke-linecap:round;stroke-linejoin:bevel;stroke-miterlimit:4;stroke-dasharray:none;stroke-dashoffset:0;stroke-opacity:1;paint-order:normal" />
        <path
           inkscape:export-ydpi="96"
           inkscape:export-xdpi="96"
           sodipodi:nodetypes="cc"
           inkscape:connector-curvature="0"
           id="path4025"
           d="m -724.69968,-1137.1264 c 50.7966,1.8891 69.1504,-49.1524 86.9217,-78.5868"
           style="opacity:1;fill:none;fill-opacity:1;fill-rule:nonzero;stroke:#8b4513;stroke-width:1.46509659;stroke-linecap:round;stroke-linejoin:bevel;stroke-miterlimit:4;stroke-dasharray:none;stroke-dashoffset:0;stroke-opacity:1;paint-order:normal" />
        <path
           inkscape:export-ydpi="96"
           inkscape:export-xdpi="96"
           sodipodi:nodetypes="ccccsssccsc"
           inkscape:connector-curvature="0"
           id="path4027"
           d="m -787.24598,-1099.6091 c 3.5219,11.7036 10.5349,22.098 16.9024,32.7345 -1.5624,-1.953 -17.4292,-20.1177 -29.8846,-41.3119 m -2.9469,-4.4904 c -6.8524,-11.6602 -10.704,-21.606 -11.2247,-30.403 -2.3023,-38.8987 3.6681,-64.5877 30.5615,-88.1125 29.6503,-25.9363 97.76,-35.9262 136.9315,-31.7522 18.0256,1.9207 32.3914,3.875 49.6949,8.5571 m 7.5075,2.2452 c 35.0182,9.4754 61.74629,24.6194 72.98173,52.7021 17.1731,42.9238 -5.03575,59.9184 -1.49126,77.0075"
           style="opacity:1;fill:none;fill-opacity:1;fill-rule:nonzero;stroke:#8b4513;stroke-width:1.46509659;stroke-linecap:round;stroke-linejoin:bevel;stroke-miterlimit:4;stroke-dasharray:none;stroke-dashoffset:0;stroke-opacity:1;paint-order:normal" />
        <path
           style="color:#000000;font-style:normal;font-variant:normal;font-weight:normal;font-stretch:normal;font-size:medium;line-height:normal;font-family:sans-serif;font-variant-ligatures:normal;font-variant-position:normal;font-variant-caps:normal;font-variant-numeric:normal;font-variant-alternates:normal;font-feature-settings:normal;text-indent:0;text-align:start;text-decoration:none;text-decoration-line:none;text-decoration-style:solid;text-decoration-color:#000000;letter-spacing:normal;word-spacing:normal;text-transform:none;writing-mode:lr-tb;direction:ltr;text-orientation:mixed;dominant-baseline:auto;baseline-shift:baseline;text-anchor:start;white-space:normal;shape-padding:0;clip-rule:nonzero;display:inline;overflow:visible;visibility:visible;opacity:1;isolation:auto;mix-blend-mode:normal;color-interpolation:sRGB;color-interpolation-filters:linearRGB;solid-color:#000000;solid-opacity:1;vector-effect:none;fill:#808080;fill-opacity:1;fill-rule:nonzero;stroke:#8b4513;stroke-width:1.79999995;stroke-linecap:round;stroke-linejoin:round;stroke-miterlimit:4;stroke-dasharray:none;stroke-dashoffset:0;stroke-opacity:1;paint-order:fill markers stroke;color-rendering:auto;image-rendering:auto;shape-rendering:auto;text-rendering:auto;enable-background:accumulate"
           d="m -669.69727,-1267.2402 c -33.41492,0.3196 -103.5988,0.7804 -138.2832,57.4297 a 3.0003,3.0003 0 1 0 5.11719,3.1328 c 32.80326,-53.5768 99.79854,-54.2428 133.22461,-54.5625 38.38839,-0.3674 98.90017,7.5402 126.70703,31.5136 13.08632,11.2823 17.30462,34.7173 17.70703,55.5215 0.40241,20.8042 -2.72266,38.6035 -2.72266,38.6035 a 3.0003,3.0003 0 1 0 5.90821,1.0411 c 0,0 3.22976,-18.2906 2.81445,-39.7618 -0.41531,-21.4711 -4.18671,-46.4961 -19.79101,-59.9492 -30.48327,-26.2809 -91.4619,-33.344 -130.68165,-32.9687 z"
           id="path4168"
           inkscape:connector-curvature="0" />
        <path
           inkscape:export-ydpi="96"
           inkscape:export-xdpi="96"
           sodipodi:nodetypes="cc"
           inkscape:connector-curvature="0"
           id="path4031"
           d="m -680.11498,-1151.5191 c 32.1501,-17.5215 59.09,-51.7899 100.7543,-38.7301"
           style="opacity:1;fill:none;fill-opacity:1;fill-rule:nonzero;stroke:#8b4513;stroke-width:1.46509659;stroke-linecap:round;stroke-linejoin:bevel;stroke-miterlimit:4;stroke-dasharray:none;stroke-dashoffset:0;stroke-opacity:1;paint-order:normal" />
        <path
           inkscape:export-ydpi="96"
           inkscape:export-xdpi="96"
           sodipodi:nodetypes="cc"
           inkscape:connector-curvature="0"
           id="path4033"
           d="m -583.57048,-1200.914 c 7.6142,22.0721 36.14408,49.2303 53.91938,73.6472"
           style="opacity:1;fill:none;fill-opacity:1;fill-rule:nonzero;stroke:#8b4513;stroke-width:1.46509659;stroke-linecap:round;stroke-linejoin:bevel;stroke-miterlimit:4;stroke-dasharray:none;stroke-dashoffset:0;stroke-opacity:1;paint-order:normal" />
        <path
           inkscape:export-ydpi="96"
           inkscape:export-xdpi="96"
           sodipodi:nodetypes="cc"
           inkscape:connector-curvature="0"
           id="path4035"
           d="m -541.75324,-1192.7751 c -6.31144,15.8667 7.88642,45.878 12.34874,65.1114"
           style="opacity:1;fill:none;fill-opacity:1;fill-rule:nonzero;stroke:#8b4513;stroke-width:1.46509659;stroke-linecap:round;stroke-linejoin:bevel;stroke-miterlimit:4;stroke-dasharray:none;stroke-dashoffset:0;stroke-opacity:1;paint-order:normal" />
        <path
           inkscape:export-ydpi="96"
           inkscape:export-xdpi="96"
           sodipodi:nodetypes="cc"
           inkscape:connector-curvature="0"
           id="path4037"
           d="m -526.03667,-1170.0422 c -4.42271,7.3304 -3.73354,24.2455 -2.2452,42.6592"
           style="opacity:1;fill:none;fill-opacity:1;fill-rule:nonzero;stroke:#8b4513;stroke-width:1.46509659;stroke-linecap:round;stroke-linejoin:bevel;stroke-miterlimit:4;stroke-dasharray:none;stroke-dashoffset:0;stroke-opacity:1;paint-order:normal" />
        <path
           inkscape:export-ydpi="96"
           inkscape:export-xdpi="96"
           sodipodi:nodetypes="ccc"
           inkscape:connector-curvature="0"
           id="path4039"
           d="m -529.62194,-1108.5494 6.54889,19.9444 c 0.98447,-7.2465 0.37418,-13.6071 3.4729,-22.0281"
           style="opacity:1;fill:none;fill-opacity:1;fill-rule:nonzero;stroke:#8b4513;stroke-width:1.46481967;stroke-linecap:round;stroke-linejoin:round;stroke-miterlimit:4;stroke-dasharray:none;stroke-dashoffset:0;stroke-opacity:1;paint-order:normal" />
        <path
           style="opacity:1;vector-effect:none;fill:none;fill-opacity:1;stroke:#8b4513;stroke-width:1.88764453;stroke-linecap:round;stroke-linejoin:miter;stroke-miterlimit:4;stroke-dasharray:none;stroke-dashoffset:0;stroke-opacity:1"
           d="m -636.02262,-900.1414 c 0,0 8.84051,36.96599 -1.56853,39.20447 -11.29419,2.42884 -15.94869,-39.47199 -15.94869,-39.47199"
           id="path4055"
           inkscape:connector-curvature="0"
           sodipodi:nodetypes="csc" />
        <path
           style="opacity:1;vector-effect:none;fill:none;fill-opacity:1;stroke:#8b4513;stroke-width:1.88764453;stroke-linecap:round;stroke-linejoin:miter;stroke-miterlimit:4;stroke-dasharray:none;stroke-dashoffset:0;stroke-opacity:1"
           d="m -699.82612,-906.66272 c 0,0 5.29955,45.01311 -5.56451,45.72579 -12.04711,0.79029 -10.8458,-49.91444 -10.8458,-49.91444"
           id="path4057"
           inkscape:connector-curvature="0"
           sodipodi:nodetypes="csc" />
        <path
           style="opacity:1;vector-effect:none;fill:none;fill-opacity:1;stroke:#8b4513;stroke-width:1.88764453;stroke-linecap:round;stroke-linejoin:miter;stroke-miterlimit:4;stroke-dasharray:none;stroke-dashoffset:0;stroke-opacity:1"
           d="m -632.53308,-875.31457 c -5.06411,0.58457 -2.40198,5.1476 -15.26033,1.48077"
           id="path4059"
           inkscape:connector-curvature="0"
           sodipodi:nodetypes="cc" />
        <path
           style="opacity:1;vector-effect:none;fill:none;fill-opacity:1;stroke:#8b4513;stroke-width:1.88764453;stroke-linecap:round;stroke-linejoin:miter;stroke-miterlimit:4;stroke-dasharray:none;stroke-dashoffset:0;stroke-opacity:1"
           d="m -699.03856,-873.80782 c -3.38614,2.8233 -7.99387,3.06769 -14.88046,-1.49884"
           id="path4061"
           inkscape:connector-curvature="0"
           sodipodi:nodetypes="cc" />
        <path
           style="display:inline;opacity:1;fill:#ffffff;fill-opacity:1;fill-rule:nonzero;stroke:none;stroke-width:0.70339698;stroke-linecap:round;stroke-linejoin:miter;stroke-miterlimit:4;stroke-dasharray:none;stroke-dashoffset:0;stroke-opacity:1"
           d="m -620.73798,-1019.7022 3.17972,-16.717 c 0,0 19.51784,20.1485 18.28835,32.5258 -1.86078,18.73253 -6.11885,58.27182 -37.3022,41.68794 l 0.10518,-19.00106 c 16.34941,4.52601 12.96437,-28.13958 15.72895,-38.49568 z"
           id="path3937"
           inkscape:connector-curvature="0"
           sodipodi:nodetypes="ccsccc" />
        <path
           style="display:inline;opacity:1;vector-effect:none;fill:none;fill-opacity:1;stroke:#8b4513;stroke-width:1.88764453;stroke-linecap:round;stroke-linejoin:miter;stroke-miterlimit:4;stroke-dasharray:none;stroke-dashoffset:0;stroke-opacity:1"
           d="m -617.72439,-1036.8282 0.018,1.7991 c -2.5801,7.9549 -3.6535,16.7708 -9.2507,23.0016 -3.6608,0.2321 -7.1084,-0.2537 -10.5007,-2.0001 -10.2636,15.56096 -13.3897,28.63078 -19.8547,42.92554 2.8624,-14.84158 7.4612,-30.01394 8.6039,-44.42564 1.9703,-3.1516 4.0491,-6.2722 9.2507,-8.5006 l 6.8629,-6.9579"
           id="path3967"
           inkscape:connector-curvature="0"
           sodipodi:nodetypes="cccccccc" />
        <path
           inkscape:export-ydpi="96"
           inkscape:export-xdpi="96"
           sodipodi:nodetypes="cscc"
           inkscape:connector-curvature="0"
           id="path3929"
           d="m -636.57225,-962.20564 c 0.35745,2.50293 -23.38819,-13.01582 -17.55474,-22.92283 3.53728,-6.00727 17.67641,3.91299 17.66006,3.92195 z"
           style="display:inline;opacity:1;fill:#ffdab9;fill-opacity:1;fill-rule:nonzero;stroke:none;stroke-width:0.70339698;stroke-linecap:round;stroke-linejoin:miter;stroke-miterlimit:4;stroke-dasharray:none;stroke-dashoffset:0;stroke-opacity:1;paint-order:normal" />
        <path
           inkscape:export-ydpi="96"
           inkscape:export-xdpi="96"
           sodipodi:nodetypes="cssssc"
           inkscape:connector-curvature="0"
           id="path3981"
           d="m -620.91811,-998.94274 c -0.73427,9.43434 -3.19123,13.55861 -8.89027,17.33148 -6.76317,4.47738 -20.91471,-11.3205 -24.02942,-3.83131 -5.52658,13.28827 21.59178,30.96254 34.88243,25.44194 13.41658,-5.57282 20.34844,-27.72747 20.14254,-43.79427 -0.21608,-16.8614 -18.37039,-32.6471 -18.37039,-32.6471"
           style="opacity:1;fill:none;fill-opacity:1;fill-rule:nonzero;stroke:#8b4513;stroke-width:1.88764453;stroke-linecap:round;stroke-linejoin:miter;stroke-miterlimit:4;stroke-dasharray:none;stroke-dashoffset:0;stroke-opacity:1" />
        <path
           inkscape:export-ydpi="96"
           inkscape:export-xdpi="96"
           inkscape:connector-curvature="0"
           id="path3989"
           d="m -636.57225,-962.20564 0.10532,-19.00088"
           style="opacity:1;fill:none;fill-opacity:1;fill-rule:nonzero;stroke:#8b4513;stroke-width:1.88764453;stroke-linecap:round;stroke-linejoin:miter;stroke-miterlimit:4;stroke-dasharray:none;stroke-dashoffset:0;stroke-opacity:1;paint-order:normal" />
        <path
           style="color:#000000;font-style:normal;font-variant:normal;font-weight:normal;font-stretch:normal;font-size:medium;line-height:normal;font-family:sans-serif;font-variant-ligatures:normal;font-variant-position:normal;font-variant-caps:normal;font-variant-numeric:normal;font-variant-alternates:normal;font-feature-settings:normal;text-indent:0;text-align:start;text-decoration:none;text-decoration-line:none;text-decoration-style:solid;text-decoration-color:#000000;letter-spacing:normal;word-spacing:normal;text-transform:none;writing-mode:lr-tb;direction:ltr;text-orientation:mixed;dominant-baseline:auto;baseline-shift:baseline;text-anchor:start;white-space:normal;shape-padding:0;clip-rule:nonzero;display:inline;overflow:visible;visibility:visible;opacity:1;isolation:auto;mix-blend-mode:normal;color-interpolation:sRGB;color-interpolation-filters:linearRGB;solid-color:#000000;solid-opacity:1;vector-effect:none;fill:#808080;fill-opacity:1;fill-rule:nonzero;stroke:#8b4513;stroke-width:1.79999995;stroke-linecap:round;stroke-linejoin:round;stroke-miterlimit:4;stroke-dasharray:none;stroke-dashoffset:0;stroke-opacity:1;paint-order:fill markers stroke;color-rendering:auto;image-rendering:auto;shape-rendering:auto;text-rendering:auto;enable-background:accumulate"
           d="m -529.59375,-1111.3594 c 0,0 -5.80114,6.8682 -13.69922,14.502 -7.89807,7.6337 -17.99391,15.9789 -25.83203,18.832 -3.01733,1.0983 -9.03153,1.4043 -14.08008,1.2832 -5.04854,-0.121 -9.20703,-0.5664 -9.20703,-0.5664 l -0.42578,3.9785 c 0,0 4.30626,0.4605 9.53711,0.586 5.23085,0.1254 11.3107,0.018 15.54492,-1.5235 9.09434,-3.3103 19.18563,-11.9259 27.24219,-19.7129 8.05655,-7.7869 13.97656,-14.7988 13.97656,-14.7988 z"
           id="path4148"
           inkscape:connector-curvature="0" />
        <rect
           style="opacity:1;vector-effect:none;fill:#2b0000;fill-opacity:1;stroke:#8b4513;stroke-width:1.79999995;stroke-linecap:round;stroke-linejoin:round;stroke-miterlimit:4;stroke-dasharray:none;stroke-dashoffset:0;stroke-opacity:1;paint-order:fill markers stroke"
           id="rect4150"
           width="12.524723"
           height="6.8994613"
           x="-594.15369"
           y="-1078.6195"
           ry="3.4497306" />
        <ellipse
           style="opacity:1;vector-effect:none;fill:#808080;fill-opacity:1;stroke:#8b4513;stroke-width:1.79999995;stroke-linecap:round;stroke-linejoin:round;stroke-miterlimit:4;stroke-dasharray:none;stroke-dashoffset:0;stroke-opacity:1;paint-order:fill markers stroke"
           id="path4146"
           cx="-524.5791"
           cy="-1117.7118"
           rx="9.6127682"
           ry="17.384794" />
        <path
           style="display:inline;opacity:1;fill:#ff4500;fill-opacity:1;fill-rule:nonzero;stroke:none;stroke-width:1.46509659;stroke-linecap:round;stroke-linejoin:bevel;stroke-miterlimit:4;stroke-dasharray:none;stroke-dashoffset:0;stroke-opacity:1;paint-order:normal"
           d="m -584.40825,-1271.3943 c -4.07281,5.6878 -10.41191,11.1776 -12.5553,18.4195 l -0.6377,-0.1752 0.17831,0.3866 c 2.04284,3.7608 4.39222,4.1497 6.98611,1.8489 l 0.33282,-0.1638 c -0.22133,-0.062 -0.42493,-0.1292 -0.64752,-0.1912 h -0.0109 c 1.0708,-6.7991 4.10022,-13.4268 6.3536,-20.1223 z"
           id="path3963"
           inkscape:connector-curvature="0"
           sodipodi:nodetypes="cccccccccc" />
        <path
           inkscape:export-ydpi="96"
           inkscape:export-xdpi="96"
           sodipodi:nodetypes="ccc"
           inkscape:connector-curvature="0"
           id="path4029"
           d="m -597.88378,-1250.0282 c 2.6963,-9.8876 10.0807,-18.0171 16.8392,-26.3814 -4.5304,9.8043 -10.7783,19.3515 -8.4196,28.6266"
           style="opacity:1;fill:none;fill-opacity:1;fill-rule:nonzero;stroke:#8b4513;stroke-width:1.46509659;stroke-linecap:round;stroke-linejoin:bevel;stroke-miterlimit:4;stroke-dasharray:none;stroke-dashoffset:0;stroke-opacity:1;paint-order:normal" />
        <path
           sodipodi:nodetypes="cscsc"
           inkscape:connector-curvature="0"
           id="path4287"
           d="m -711.45373,-1087.7885 c 18.74636,4.1258 36.95369,4.0457 55.44206,3.783 17.74373,-0.2521 35.64653,-0.9881 52.81696,-3.783 -0.8754,8.7541 -32.29091,22.1382 -58.50654,21.7394 -21.50514,-0.3272 -48.00166,-10.7967 -49.75248,-21.7394 z"
           style="opacity:1;vector-effect:none;fill:#3b3b3b;fill-opacity:1;stroke:none;stroke-width:2.06825471;stroke-linecap:round;stroke-linejoin:round;stroke-miterlimit:4;stroke-dasharray:none;stroke-dashoffset:0;stroke-opacity:1;paint-order:normal" />
        <path
           style="fill:#f08080;fill-opacity:1;stroke:none;stroke-width:0.3735083px;stroke-linecap:butt;stroke-linejoin:miter;stroke-opacity:1"
           d="m -692.05077,-1072.5765 20.63361,-4.8488 11.96751,-1.0317 15.68156,2.5792 13.8245,4.4362 -11.03899,2.9919 -13.82452,2.476 -14.44353,-0.7221 -16.61005,-3.4046 z"
           id="path4283"
           inkscape:connector-curvature="0" />
        <path
           style="opacity:1;vector-effect:none;fill:none;fill-opacity:1;stroke:#8b4513;stroke-width:2.06825471;stroke-linecap:round;stroke-linejoin:round;stroke-miterlimit:4;stroke-dasharray:none;stroke-dashoffset:0;stroke-opacity:1;paint-order:normal"
           d="m -711.45373,-1087.7885 c 18.74636,4.1258 35.49206,4.338 53.98043,4.0753 17.74373,-0.2521 37.10816,-1.2804 54.27859,-4.0753 -0.8754,8.7541 -32.29091,22.1382 -58.50654,21.7394 -21.50514,-0.3272 -48.00166,-10.7967 -49.75248,-21.7394 z"
           id="path4232"
           inkscape:connector-curvature="0"
           sodipodi:nodetypes="cscsc" />
        <path
           style="opacity:1;vector-effect:none;fill:none;fill-opacity:1;stroke:#8b4513;stroke-width:2.06825471;stroke-linecap:round;stroke-linejoin:bevel;stroke-miterlimit:4;stroke-dasharray:none;stroke-dashoffset:0;stroke-opacity:1;paint-order:normal"
           d="m -692.92422,-1072.7607 c 0,0 22.26513,-5.9542 34.78931,-5.388 9.75806,0.4412 29.55333,5.9716 29.55333,5.9716"
           id="path4276"
           inkscape:connector-curvature="0"
           sodipodi:nodetypes="csc" />
      </g>
    </g>
  </g>
</svg>
