<?xml version="1.0" encoding="UTF-8" standalone="no"?>
<!-- Created with Inkscape (http://www.inkscape.org/) -->

<svg
   xmlns:dc="http://purl.org/dc/elements/1.1/"
   xmlns:cc="http://creativecommons.org/ns#"
   xmlns:rdf="http://www.w3.org/1999/02/22-rdf-syntax-ns#"
   xmlns:svg="http://www.w3.org/2000/svg"
   xmlns="http://www.w3.org/2000/svg"
   xmlns:sodipodi="http://sodipodi.sourceforge.net/DTD/sodipodi-0.dtd"
   xmlns:inkscape="http://www.inkscape.org/namespaces/inkscape"
   width="2100"
   height="2500"
   viewBox="0 0 555.62499 661.45834"
   version="1.1"
   id="svg8"
   sodipodi:docname="ChibiStephBusiness.svg"
   inkscape:version="0.92.2 (5c3e80d, 2017-08-06)">
  <defs
     id="defs2" />
  <sodipodi:namedview
     id="base"
     pagecolor="#ffffff"
     bordercolor="#666666"
     borderopacity="1.0"
     inkscape:pageopacity="0.0"
     inkscape:pageshadow="2"
     inkscape:zoom="0.24748737"
     inkscape:cx="266.57588"
     inkscape:cy="1286.1412"
     inkscape:document-units="px"
     inkscape:current-layer="layer1"
     showgrid="false"
     units="px"
     inkscape:showpageshadow="false"
     borderlayer="true"
     inkscape:snap-path-clip="true"
     inkscape:snap-path-mask="true"
     inkscape:pagecheckerboard="true"
     inkscape:object-nodes="false" />
  <metadata
     id="metadata5">
    <rdf:RDF>
      <cc:Work
         rdf:about="">
        <dc:format>image/svg+xml</dc:format>
        <dc:type
           rdf:resource="http://purl.org/dc/dcmitype/StillImage" />
        <dc:title></dc:title>
        <dc:creator>
          <cc:Agent>
            <dc:title>Oz Locke</dc:title>
          </cc:Agent>
        </dc:creator>
        <dc:rights>
          <cc:Agent>
            <dc:title>All rights retained by Cuddly Cthulhu Creatives unless provable otherwise (transferal of rights will usualy be provided by email)</dc:title>
          </cc:Agent>
        </dc:rights>
        <dc:publisher>
          <cc:Agent>
            <dc:title>Cuddly Cthulhu Creatives</dc:title>
          </cc:Agent>
        </dc:publisher>
      </cc:Work>
    </rdf:RDF>
  </metadata>
  <g
     inkscape:label="Layer 1"
     inkscape:groupmode="layer"
     id="layer1"
     transform="translate(0,364.45836)">
    <path
       transform="matrix(0.34311214,0,0,0.34311214,-1474.1254,562.71224)"
       inkscape:connector-curvature="0"
       style="display:inline;fill:#2165b6;fill-opacity:1;stroke:#ffffff;stroke-width:37.79527664;stroke-linecap:round;stroke-linejoin:round;stroke-miterlimit:4;stroke-dasharray:none;stroke-opacity:1"
       d="m 5415.3633,-2523.2383 c -21.812,26.9945 -45.3389,53.3463 -58.0957,83.7363 l -2.3184,-0.6367 c -55.4883,-15.4541 -109.1252,-25.229 -167.4023,-29.8906 -6.9119,-0.781 -13.9207,-1.5522 -21.1114,-2.3184 -148.0497,-15.7757 -405.4729,21.9828 -517.5371,120.0098 -47.8527,41.8588 -78.1733,85.5323 -95.9609,135.3731 -19.4904,49.4139 -27.634,107.3638 -20.2227,184.8964 0.1997,4.2121 0.4215,8.4577 0.6758,12.7539 1.9465,32.8848 16.2297,70.0267 41.5996,113.4747 -2.1074,4.1138 -22.6799,5.2728 -29.1406,9.4628 -5.6189,1.3176 -11.2703,2.5929 -16.959,3.8204 16.1373,2.833 33.2908,3.8774 51.1973,3.3066 2.7446,0.6167 4.7693,1.418 5.5469,2.5039 4.1388,5.7808 8.3983,11.8603 12.7187,18.0938 44.8409,71.8018 96.1114,130.5606 101.5488,137.3574 -8.6259,-14.4091 -17.5589,-28.7025 -26.0918,-43.1465 -7.3682,-15.0776 -20.1494,-39.4593 -30.7812,-60.5313 -2.4905,-6.2801 -4.745,-12.6486 -6.7227,-19.1211 41.1602,60.0069 102.0498,114.1583 168.1465,158.377 44.3753,30.8831 90.7932,56.7065 135.6582,76.25 -0.044,0.042 -0.6204,0.6029 -0.8515,0.8262 l -0.4219,-0.1367 c 0,0 0.1077,0.3581 0.1269,0.4238 -5.3104,5.1424 -38.8458,38.0046 -60.9863,69.0781 -1.9357,2.5171 -3.7835,5.2404 -5.5488,8.1484 -3.7776,5.8324 -7.001,11.4828 -9.3379,16.7208 -16.7953,37.6443 -21.2475,75.0144 -24.4082,115.498 -1.7247,17.0011 -2.5995,31.1879 -3.0391,40.3691 -0.358,4.4076 -0.7418,8.8609 -1.1601,13.3614 l -0.7344,-0.068 c -0.5797,-0.2078 -5.4514,22.2576 -4.1641,40.8438 -0.3253,2.1387 -0.6551,4.2828 -1.0097,6.4453 -0.8612,5.2512 1.7573,9.634 6.334,12.498 3.7225,5.1254 9.6837,7.095 18.9355,3.2481 12.8597,-1.8606 27.0458,-11.1155 33.3477,-31.8086 -0.7866,13.1976 -1.0816,29.9656 0.4082,47.7851 0.7978,33.857 6.4592,61.7899 20.1504,76.0489 1.3491,1.405 2.7052,2.724 4.0664,3.996 0.1088,0.161 0.2125,0.3261 0.3222,0.4864 2.0876,2.3305 4.5033,4.404 7.209,6.25 l -0.9902,-0.2344 c 15.3438,20.6779 -89.1326,220.0988 -56.6914,234.50977 0.1142,0.066 0.2238,0.13637 0.3418,0.19921 19.6968,10.49145 52.3235,-32.49301 53.7558,-37.43164 0.4907,-0.66971 0.9818,-1.33922 1.4707,-2.01953 0.6483,-0.22202 1.2929,-0.44217 1.9649,-0.68945 3.9452,-6.22486 9.2476,-15.03246 15.1543,-25.49416 13.2987,-22.0157 25.3394,-45.4208 34.834,-63.2246 18.1746,-34.0804 22.8886,-88.3906 22.8886,-88.3906 l -5.1445,-1.2188 c 8.2827,-0.4268 16.9668,-1.2518 26.1113,-2.1797 42.093,-0.9649 88.421,-4.4952 123.8086,2.0762 1.8824,0.3496 2.4517,-0.6992 2.3985,-2.2265 3.9072,-0.7068 7.7745,-1.4268 11.6562,-2.1426 9.6364,-1.5969 23.7098,-4.3042 39.8789,-7.5703 82.7838,-16.1583 150.0352,-31.8399 150.0352,-31.8399 0,0 -0.043,-0.3589 -0.045,-0.3711 0.011,0 0.6504,-0.1445 0.6504,-0.1445 -1.5201,-25.9376 -4.3678,-73.535 -6.6191,-111.2715 16.4904,-2.1004 25.1442,-19.6531 28.1406,-45.8418 1.8967,-11.1143 1.629,-19.7862 1.5,-19.8144 l -0.3027,0.1699 c 0.5353,-33.4194 -5.3872,-75.6539 -14.6914,-117.1387 -0.3059,-2.271 -0.6039,-4.5435 -0.8848,-6.8183 l -1.8828,-5.1329 c -1.1814,-4.9086 -2.416,-9.7822 -3.6797,-14.6269 -3.8952,-20.0393 -18.4708,-43.8135 -31.0957,-61.4981 -4.7412,-8.3501 -9.4772,-16.7258 -14.0566,-25.8847 l -3.4571,1.0859 c 79.337,-35.1536 161.8357,-88.7232 229.543,-156.2754 0.015,-0.015 0.03,-0.03 0.045,-0.045 1.1247,-1.1223 2.2489,-2.245 3.3653,-3.375 10.0013,-10.0213 19.5557,-20.2933 28.5371,-30.8145 20.0129,-23.0991 38.2019,-47.5618 53.9707,-73.2441 l 24.6094,74.9453 c 0.05,-0.3686 0.089,-0.7302 0.1367,-1.0976 2e-4,6e-4 0.051,0.1601 0.051,0.1601 l 8.7129,-69.0781 c 1.1621,-4.2768 2.5451,-8.676 4.2247,-13.2402 l -1.504,0.3125 c 5.3685,-7.4789 8.7266,-18.0948 8.7266,-29.8789 0,-5.5661 -0.7523,-10.8701 -2.1074,-15.709 -1.7378,-8.8257 -1.6861,-17.6524 -0.4492,-26.7285 5.0506,-13.8483 13.8522,-40.3568 20.3535,-72.6661 12.7338,-45.7114 20.5054,-104.3764 -14.1426,-190.9785 -33.9038,-84.7417 -105.1356,-138.3101 -199.8359,-174.6914 -23.8348,-9.7014 -48.9311,-17.9744 -76.6387,-25.6914 h -0.041 c 3.0771,-19.5383 10.4321,-38.702 17.5254,-57.8887 5.1925,-10.7934 10.816,-21.6716 15.8828,-32.6367 z m 197.7344,629.5235 c 0.9553,1.2687 1.9917,2.4752 3.1191,3.5566 l -0.5527,0.1152 c -1.3947,-0.2961 -2.7958,-0.6189 -4.2032,-0.9687 0.5457,-0.9011 1.0971,-1.7991 1.6368,-2.7031 z m -998.625,3.9726 c 0.4578,0.7503 0.9067,1.5034 1.3691,2.252 5.8585,10.85 12.3995,21.5447 19.5508,32.0605 l -3.7656,-2.4883 c -8.5388,-16.84 -16.3006,-29.765 -17.6739,-31.6679 0.1191,-0.037 0.3953,-0.1179 0.5196,-0.1563 z m 995.8847,0.5508 c 0.027,0.079 0.052,0.1513 0.08,0.2344 l -0.2539,0.053 c 0.058,-0.096 0.1154,-0.1916 0.1738,-0.2871 z m -670.1035,269.7852 c 3.5819,1.5593 7.1547,3.0798 10.7149,4.5585 l -10.9083,-3.5332 z m 369.7891,411.6347 -90.6446,17.3223 c -0.079,0.888 -0.1812,1.8623 -0.2656,2.7715 l -0.418,0.084 c 0.1103,0.3798 0.2016,0.7972 0.295,1.209 -2.0786,21.9713 -5.7015,49.6918 -9.666,77.6153 -7.842,38.6408 -17.165,82.4562 -17.0723,113.51169 -1.2175,15.1295 2.0418,38.02985 17.0254,39.85156 6.1717,1.47063 12.8958,-1.69276 19.8515,-8.34375 13.8654,-12.20946 24.964,-33.72816 25.7676,-37.5352 0.2485,-0.029 0.5253,-0.064 0.7715,-0.092 0.034,-0.068 0.068,-0.1428 0.1016,-0.2109 0.024,0 0.049,5e-4 0.072,0 l -0.07,-0.01 c 2.9254,-5.9071 5.934,-12.6411 8.9629,-20.0234 27.8487,-61.851 50.4527,-149.5041 45.7637,-184.4531 l -0.5449,0.1094 c 0.02,-0.5987 0.056,-1.2224 0.07,-1.8106 z m -170.5918,31.3848 -0.2012,0.5937 c -0.01,-0.1894 -0.012,-0.3774 -0.037,-0.58 0.074,0 0.1598,-0.01 0.2383,-0.014 z"
       id="path1533" />
    <path
       sodipodi:nodetypes="csccccccccccccsccc"
       transform="matrix(0.34311214,0,0,0.34311214,-1029.0604,562.71224)"
       inkscape:connector-curvature="0"
       id="path1316"
       d="m 3538.0751,-1357.5771 c 0,0 2.9939,-141.999 43.6297,-192.8313 30.746,-38.461 60.4381,-67.4376 60.4381,-67.4376 l 102.8572,32.1429 96.4285,10 159.2857,-50 c 14.2857,28.5714 30.0875,49.5626 42.8572,85.7143 l 7.8571,21.4286 c 5.0793,41.1313 14.6569,81.5706 13.4631,123.667 l -29.9889,19.2555 c 0,0 7.2273,121.0104 9.383,157.7918 0,0 -185.8202,41.5151 -202.9631,41.5151 l -4.1233,-9.2779 2.265,1.9592 c 0,0 5.825,11.1338 0.2484,10.0982 -72.5032,-13.4637 -190.9816,15.5048 -224.7128,-22.1518 -38.4506,-56.154 -22.1849,-155.8789 -22.1849,-155.8789 z"
       style="display:inline;fill:#2165b6;fill-opacity:1;stroke:none;stroke-width:1px;stroke-linecap:butt;stroke-linejoin:miter;stroke-opacity:1" />
    <path
       transform="matrix(1.0858438,0.70896988,-0.70896988,1.0858438,793.04358,1901.456)"
       style="display:inline;opacity:1;fill:#ffdab9;fill-opacity:1;fill-rule:nonzero;stroke:none;stroke-width:0.70339698;stroke-linecap:round;stroke-linejoin:miter;stroke-miterlimit:4;stroke-dasharray:none;stroke-dashoffset:0;stroke-opacity:1;paint-order:normal"
       d="m -1046.2369,-984.63341 c 0.034,0.1606 6.9342,10.27956 6.9342,10.27956 5.9186,-7.44504 -2.1807,-19.25376 -2.2624,-19.22272 z"
       id="path1318"
       inkscape:connector-curvature="0"
       sodipodi:nodetypes="cscc"
       inkscape:export-xdpi="96"
       inkscape:export-ydpi="96" />
    <path
       transform="matrix(1.0858438,0.70896988,-0.70896988,1.0858438,793.04358,1901.456)"
       style="display:inline;opacity:1;fill:none;fill-opacity:1;fill-rule:nonzero;stroke:#8b4513;stroke-width:1.88764453;stroke-linecap:round;stroke-linejoin:miter;stroke-miterlimit:4;stroke-dasharray:none;stroke-dashoffset:0;stroke-opacity:1"
       d="m -1067.8009,-1022.9335 c 19.6125,17.6421 38.463,41.32538 28.8022,48.48241"
       id="path1320"
       inkscape:connector-curvature="0"
       sodipodi:nodetypes="cc"
       inkscape:export-xdpi="96"
       inkscape:export-ydpi="96" />
    <path
       sodipodi:nodetypes="cc"
       transform="matrix(1.0858438,0.70896988,-0.70896988,1.0858438,793.04358,1901.456)"
       style="display:inline;opacity:1;fill:none;fill-opacity:1;fill-rule:nonzero;stroke:#8b4513;stroke-width:1.88764453;stroke-linecap:round;stroke-linejoin:miter;stroke-miterlimit:4;stroke-dasharray:none;stroke-dashoffset:0;stroke-opacity:1;paint-order:normal"
       d="m -1042.2094,-993.28438 -3.8492,8.72727"
       id="path1322"
       inkscape:connector-curvature="0"
       inkscape:export-xdpi="96"
       inkscape:export-ydpi="96" />
    <path
       id="path1324"
       transform="matrix(0.34311214,0,0,0.34311214,-1029.0604,562.71224)"
       d="m 3990.375,-1620.293 -94.8652,30.7403 -25.5293,12.5742 c -1.2101,0.5678 -2.4399,1.1218 -3.6856,1.664 -2.4901,1.0841 -5.0382,2.1211 -7.6035,3.1329 -0.2165,0.085 -0.4337,0.1688 -0.6504,0.2539 -4.3676,1.7139 -8.7576,3.3601 -12.9726,5.0312 -1.6463,0.6527 -3.2693,1.3095 -4.8457,1.9766 -0.1216,0.051 -0.2481,0.1027 -0.3692,0.1543 -0.1038,0.044 -0.2012,0.09 -0.3047,0.1347 -1.0762,0.461 -2.1389,0.9252 -3.1699,1.3985 -1.1251,0.5165 -2.2206,1.0402 -3.2812,1.5762 0,0 -0.01,0 -0.01,0 -1.0576,0.5345 -2.0801,1.0818 -3.0625,1.6406 -0.351,0.1996 -0.6908,0.4023 -1.0313,0.6055 -0.1427,0.085 -0.2908,0.168 -0.4316,0.2539 -0.027,0.016 -0.051,0.034 -0.078,0.051 -0.4454,0.2726 -0.8834,0.5487 -1.3086,0.8282 -0.4501,0.2957 -0.8883,0.5943 -1.3145,0.8984 -0.421,0.3004 -0.8301,0.6049 -1.2265,0.9141 -0.2748,0.2143 -0.5345,0.4336 -0.7969,0.6523 -0.123,0.1025 -0.2529,0.2031 -0.3731,0.3066 -0.1355,0.1168 -0.2607,0.2375 -0.3925,0.3555 -0.2345,0.2099 -0.4726,0.4187 -0.6953,0.6328 -7e-4,7e-4 0,0 0,0 -0.3413,0.3281 -0.6678,0.6613 -0.9805,1 -0.1642,0.1779 -0.3127,0.362 -0.4687,0.5429 -0.1495,0.1734 -0.3074,0.3434 -0.4492,0.5196 0,0 0,0.01 -0.01,0.01 -0.2835,0.3526 -0.551,0.7097 -0.8027,1.0742 -0.25,0.3619 -0.4839,0.7293 -0.7012,1.1035 1e-4,2e-4 -10e-5,0 0,0 0.6155,0.9498 16.8659,31.9229 98.7441,-8.8945 13.0379,6.1578 26.1236,7.5536 39.9219,6.207 20.3426,-24.2551 32.7422,-67.3438 32.7422,-67.3438 z m -348.6777,1.5157 c 0,0 12.3996,43.0886 32.7422,67.3437 13.7983,1.3467 26.884,-0.049 39.9218,-6.207 58.8586,38.4106 98.7539,8.9101 98.7539,8.9101 -7.0378,-12.1576 -31.6616,-17.6468 -51.0234,-26.7324 l -25.5293,-12.5762 z"
       style="display:inline;opacity:1;vector-effect:none;fill:#2675d1;fill-opacity:1;stroke:none;stroke-width:7.13574791;stroke-linecap:round;stroke-linejoin:round;stroke-miterlimit:4;stroke-dasharray:none;stroke-dashoffset:0;stroke-opacity:1"
       inkscape:connector-curvature="0" />
    <path
       transform="matrix(0.74586485,-1.0608396,-1.0608396,-0.74586485,17.89157,-1929.0591)"
       style="display:inline;opacity:1;fill:#ffdab9;fill-opacity:1;fill-rule:nonzero;stroke:none;stroke-width:0.70339698;stroke-linecap:round;stroke-linejoin:miter;stroke-miterlimit:4;stroke-dasharray:none;stroke-dashoffset:0;stroke-opacity:1;paint-order:normal"
       d="m -1204.6718,-1003.944 c -0.082,0.2979 -20.1695,-8.4712 -10.1906,-14.1808 10.1539,-5.8098 17.4755,1.5051 17.457,1.5025 z"
       id="path1326"
       inkscape:connector-curvature="0"
       sodipodi:nodetypes="cscc"
       inkscape:export-xdpi="96"
       inkscape:export-ydpi="96" />
    <path
       transform="matrix(1.2968018,0,0,1.2968018,1724.2811,1355.2416)"
       style="display:inline;opacity:1;fill:#333333;fill-opacity:1;fill-rule:nonzero;stroke:none;stroke-width:0.70339698;stroke-linecap:round;stroke-linejoin:miter;stroke-miterlimit:4;stroke-dasharray:none;stroke-dashoffset:0;stroke-opacity:1;paint-order:normal"
       d="m -1179.112,-876.45548 13.3763,2.64932 c 0.099,0.73939 -8.8795,12.84748 -14.238,9.99329 -4.2916,-2.28596 0.8589,-12.64261 0.8617,-12.64261 z"
       id="path1328"
       inkscape:connector-curvature="0"
       sodipodi:nodetypes="ccsc"
       inkscape:export-xdpi="96"
       inkscape:export-ydpi="96" />
    <path
       transform="matrix(1.2968018,0,0,1.2968018,1724.2811,1355.2416)"
       style="display:inline;opacity:1;fill:#4d4d4d;fill-opacity:1;fill-rule:nonzero;stroke:none;stroke-width:0.70339698;stroke-linecap:round;stroke-linejoin:miter;stroke-miterlimit:4;stroke-dasharray:none;stroke-dashoffset:0;stroke-opacity:1"
       d="m -1164.1039,-924.73269 c 1.8362,2.78061 -12.2284,35.16391 -15.5762,47.90954 5.2595,1.24268 6.6725,5.39477 14.8382,2.39001 4.861,-7.66973 17.2868,-29.53262 19.2298,-46.60778 -5.8127,-0.31749 -11.7961,-1.07869 -18.4918,-3.69177 z"
       id="path1330"
       inkscape:connector-curvature="0"
       sodipodi:nodetypes="ccccc"
       inkscape:export-xdpi="96"
       inkscape:export-ydpi="96" />
    <path
       transform="matrix(1.2968018,0,0,1.2968018,1724.2811,1355.2416)"
       style="display:inline;opacity:1;fill:#4d4d4d;fill-opacity:1;fill-rule:nonzero;stroke:none;stroke-width:0.70339698;stroke-linecap:round;stroke-linejoin:miter;stroke-miterlimit:4;stroke-dasharray:none;stroke-dashoffset:0;stroke-opacity:1"
       d="m -1085.4147,-926.11456 c -1.1636,13.11312 -4.6621,35.12022 -6.4381,46.87509 1.9689,5.35331 10.2229,3.80897 16.0397,3.15063 6.2829,-12.65285 14.0262,-39.88866 14.3815,-54.60884 z"
       id="path1332"
       inkscape:connector-curvature="0"
       sodipodi:nodetypes="ccccc"
       inkscape:export-xdpi="96"
       inkscape:export-ydpi="96" />
    <path
       transform="matrix(1.2968018,0,0,1.2968018,1724.2811,1355.2416)"
       style="display:inline;opacity:1;fill:#ffdab9;fill-opacity:1;fill-rule:nonzero;stroke:none;stroke-width:0.95125401;stroke-linecap:round;stroke-linejoin:miter;stroke-miterlimit:4;stroke-dasharray:none;stroke-dashoffset:0;stroke-opacity:1"
       d="m -966.07515,-1179.6189 c 11.27386,87.2633 -97.87155,152.1612 -150.32015,151.0609 -51.7405,-1.0853 -157.8915,-69.7577 -142.6217,-146.935 50.4263,-118.3736 291.00485,-66.7161 292.94185,-4.1259 z"
       id="path1334"
       inkscape:connector-curvature="0"
       sodipodi:nodetypes="csccc"
       inkscape:export-xdpi="96"
       inkscape:export-ydpi="96" />
    <path
       inkscape:export-ydpi="96"
       inkscape:export-xdpi="96"
       style="display:inline;opacity:1;fill:#32cd32;fill-opacity:1;fill-rule:nonzero;stroke:none;stroke-width:0.95125401;stroke-linecap:round;stroke-linejoin:miter;stroke-miterlimit:4;stroke-dasharray:none;stroke-dashoffset:0;stroke-opacity:1;paint-order:normal"
       d="m -1033.9518,-1143.8373 c -9.3704,0.7779 -13.1763,11.6302 -13.4145,19.7295 -0.3239,8.5617 2.3824,9.6219 11.8696,11.847 9.0253,0.8534 14.1435,1.0714 14.9161,-6.5448 1.0039,-9.0033 -1.2317,-20.7982 -10.5448,-24.6037 -0.9232,-0.2849 -1.8608,-0.425 -2.8264,-0.428 z"
       id="path1340"
       inkscape:connector-curvature="0"
       transform="matrix(-1.2968018,0,0,1.2968018,-1155.6404,1358.3982)"
       sodipodi:nodetypes="cccccc" />
    <ellipse
       transform="matrix(1.2968018,0,0,1.2968018,1724.2811,1355.2416)"
       style="display:inline;opacity:1;fill:#ffdab9;fill-opacity:1;fill-rule:nonzero;stroke:none;stroke-width:1.25227475;stroke-linecap:round;stroke-linejoin:miter;stroke-miterlimit:4;stroke-dasharray:none;stroke-dashoffset:0;stroke-opacity:1;paint-order:normal"
       id="ellipse1342"
       cx="-977.00574"
       cy="-1120.9388"
       rx="6.7117767"
       ry="10.227468"
       inkscape:export-xdpi="96"
       inkscape:export-ydpi="96" />
    <path
       transform="matrix(1.2968018,0,0,1.2968018,1724.2811,1355.2416)"
       style="display:inline;opacity:1;fill:#ffdab9;fill-opacity:1;fill-rule:nonzero;stroke:none;stroke-width:0.95125401;stroke-linecap:round;stroke-linejoin:miter;stroke-miterlimit:4;stroke-dasharray:none;stroke-dashoffset:0;stroke-opacity:1;paint-order:normal"
       d="m -979.16819,-1118.7688 c -1.77624,-0.4637 -2.195,-1.7147 -1.73134,-3.4909 0.46366,-1.7762 2.27943,-2.8403 4.05567,-2.3766"
       id="path1344"
       inkscape:connector-curvature="0"
       sodipodi:nodetypes="csc"
       inkscape:export-xdpi="96"
       inkscape:export-ydpi="96" />
    <path
       transform="matrix(1.2968018,0,0,1.2968018,1724.2811,1355.2416)"
       style="display:inline;opacity:1;fill:#333333;fill-opacity:1;fill-rule:nonzero;stroke:none;stroke-width:0.70339698;stroke-linecap:round;stroke-linejoin:miter;stroke-miterlimit:4;stroke-dasharray:none;stroke-dashoffset:0;stroke-opacity:1;paint-order:normal"
       d="m -1090.5508,-877.66836 2.4229,2.08877 7.6729,-0.15188 4.4207,-0.48829 c 0.5229,0.0357 -5.9309,12.95869 -12.0009,12.30122 -5.929,-0.64223 -4.9983,-13.67175 -3.4845,-14.05021 z"
       id="path1346"
       inkscape:connector-curvature="0"
       sodipodi:nodetypes="ccccscc"
       inkscape:export-xdpi="96"
       inkscape:export-ydpi="96" />
    <path
       transform="matrix(1.2968018,0,0,1.2968018,1724.2811,1355.2416)"
       style="display:inline;opacity:1;fill:#ff6347;fill-opacity:1;fill-rule:nonzero;stroke:#ff6347;stroke-width:1.90250802;stroke-linecap:round;stroke-linejoin:miter;stroke-miterlimit:4;stroke-dasharray:none;stroke-dashoffset:0;stroke-opacity:1"
       d="m -1045.145,-1157.7277 4.6023,20.9663"
       id="path1348"
       inkscape:connector-curvature="0"
       inkscape:export-xdpi="96"
       inkscape:export-ydpi="96" />
    <path
       transform="matrix(1.2968018,0,0,1.2968018,1724.2811,1355.2416)"
       inkscape:connector-curvature="0"
       id="path1350"
       d="m -1021.8776,-1157.7277 -4.6023,20.9663"
       style="display:inline;opacity:1;fill:#ff6347;fill-opacity:1;fill-rule:nonzero;stroke:#ff6347;stroke-width:1.90250802;stroke-linecap:round;stroke-linejoin:miter;stroke-miterlimit:4;stroke-dasharray:none;stroke-dashoffset:0;stroke-opacity:1"
       inkscape:export-xdpi="96"
       inkscape:export-ydpi="96" />
    <path
       transform="matrix(1.2968018,0,0,1.2968018,1724.2811,1355.2416)"
       style="display:inline;opacity:1;fill:#ff6347;fill-opacity:1;fill-rule:nonzero;stroke:#ff6347;stroke-width:1.90250802;stroke-linecap:round;stroke-linejoin:miter;stroke-miterlimit:4;stroke-dasharray:none;stroke-dashoffset:0;stroke-opacity:1"
       d="m -1033.7363,-1159.2557 -0.061,21.4655"
       id="path1352"
       inkscape:connector-curvature="0"
       inkscape:export-xdpi="96"
       inkscape:export-ydpi="96" />
    <path
       sodipodi:nodetypes="cccccc"
       transform="matrix(1.2968018,0,0,1.2968018,1724.2811,1355.2416)"
       inkscape:connector-curvature="0"
       id="path1354"
       d="m -1033.9518,-1143.8373 c -9.3704,0.7779 -13.1763,11.6302 -13.4145,19.7295 -0.3239,8.5617 2.3824,9.6219 11.8696,11.847 9.0253,0.8534 14.1435,1.0714 14.9161,-6.5448 1.0039,-9.0033 -1.2317,-20.7982 -10.5448,-24.6037 -0.9232,-0.2849 -1.8608,-0.425 -2.8264,-0.428 z"
       style="display:inline;opacity:1;fill:#32cd32;fill-opacity:1;fill-rule:nonzero;stroke:none;stroke-width:0.95125401;stroke-linecap:round;stroke-linejoin:miter;stroke-miterlimit:4;stroke-dasharray:none;stroke-dashoffset:0;stroke-opacity:1;paint-order:normal"
       inkscape:export-xdpi="96"
       inkscape:export-ydpi="96" />
    <path
       inkscape:export-ydpi="96"
       inkscape:export-xdpi="96"
       style="display:inline;opacity:1;fill:none;fill-opacity:1;fill-rule:nonzero;stroke:#8b4513;stroke-width:1.88764453;stroke-linecap:round;stroke-linejoin:miter;stroke-miterlimit:4;stroke-dasharray:none;stroke-dashoffset:0;stroke-opacity:1;paint-order:normal"
       d="m -1033.9518,-1143.8373 c -9.3704,0.7779 -13.1763,11.6302 -13.4145,19.7295 -0.3239,8.5618 2.6867,9.6219 12.1739,11.847 9.0253,0.8534 13.8392,1.0714 14.6118,-6.5448 1.0039,-9.0033 -1.2317,-20.7982 -10.5448,-24.6037 -0.9232,-0.2849 -1.8608,-0.425 -2.8264,-0.428 z"
       id="path1356"
       inkscape:connector-curvature="0"
       transform="matrix(-1.2968018,0,0,1.2968018,-1155.6404,1358.3982)"
       sodipodi:nodetypes="cccccc" />
    <path
       transform="matrix(1.2968018,0,0,1.2968018,1724.2811,1355.2416)"
       sodipodi:nodetypes="cccssccsccccccssccsccscccccccc"
       style="display:inline;opacity:1;fill:#ff4500;fill-opacity:1;fill-rule:nonzero;stroke:none;stroke-width:1.46509659;stroke-linecap:round;stroke-linejoin:bevel;stroke-miterlimit:4;stroke-dasharray:none;stroke-dashoffset:0;stroke-opacity:1;paint-order:normal"
       d="m -1036.0504,-1274.9216 c -4.0728,5.6878 -10.412,11.1778 -12.5554,18.4197 l -0.9442,-0.2596 c -25.9001,-7.2135 -50.2712,-9.7552 -82.5595,-8.4304 -44.4124,1.8222 -95.1751,16.0023 -116.6216,44.7586 -14.0826,18.8825 -21.8352,38.9182 -18.1893,73.4269 -0.1929,6.767 4.9839,20.014 10.9923,31.1991 0.9033,1.6817 -8.1876,1.7231 -8.2109,3.6276 -0.01,0.8527 9.9672,0.3367 11.0413,1.8368 8.605,12.0189 19.1266,28.8141 24.7606,33.4318 1.4465,1.1855 -7.1385,-14.6237 -11.6374,-23.8829 -2.6073,-5.3663 -5.2165,-9.7265 -5.6306,-10.3003 5.7657,-1.7892 34.6478,-10.1133 34.6478,-10.1133 10.2933,-3.3239 33.1868,-18.338 33.1868,-18.338 15.2596,-0.4881 21.8299,-0.6207 42.0554,-13.1344 7.3642,-4.5563 13.3103,-7.3603 18.5819,-10.9604 25.0718,-17.1221 34.2416,-25.7478 51.1456,-29.7709 11.2222,-2.3461 32.7573,-2.3647 34.6633,1.0668 7.3474,15.028 37.77285,46.1566 45.2975,57.8183 5.41678,8.395 9.34429,-1.5785 14.08026,5.2677 0,0 12.14464,-29.0374 7.57784,-54.2627 -2.46827,-13.6338 -10.59009,-34.9343 -25.79574,-46.2319 -17.11006,-12.7126 -32.06006,-19.426 -52.22916,-25.0434 h -0.011 c 1.0708,-6.7991 4.1004,-13.4268 6.3538,-20.1223 z m 53.86018,163.3247 c 0.14896,0.1985 6.64614,20.405 6.64614,20.405 l 2.48269,-19.6815 c -2.87087,0.4846 -5.94386,0.1167 -9.12883,-0.7235 z"
       id="path1358"
       inkscape:connector-curvature="0"
       inkscape:export-xdpi="96"
       inkscape:export-ydpi="96" />
    <path
       transform="matrix(1.2968018,0,0,1.2968018,1731.213,1354.2018)"
       sodipodi:nodetypes="cc"
       inkscape:connector-curvature="0"
       id="path1362"
       d="m -1119.8204,-1019.4849 c 4.2355,23.97679 4.6728,74.96319 7.5063,98.29815"
       style="display:inline;opacity:1;vector-effect:none;fill:none;fill-opacity:1;stroke:#8b4513;stroke-width:1.88764453;stroke-linecap:round;stroke-linejoin:miter;stroke-miterlimit:4;stroke-dasharray:none;stroke-dashoffset:0;stroke-opacity:1" />
    <path
       sodipodi:nodetypes="ccsc"
       transform="matrix(0.34311214,0,0,0.34311214,-1029.0604,562.71224)"
       inkscape:connector-curvature="0"
       id="path1364"
       d="m 3751.7858,-1582.6674 65.3571,34.2857 c -1.8509,-5.1826 67.3769,-36.2018 65,-35.3571 -2.524,0.8969 -130.3571,1.0714 -130.3571,1.0714 z"
       style="display:inline;opacity:1;vector-effect:none;fill:#ffdab9;fill-opacity:1;stroke:none;stroke-width:3.5952909;stroke-linecap:round;stroke-linejoin:miter;stroke-miterlimit:4;stroke-dasharray:none;stroke-dashoffset:0;stroke-opacity:1" />
    <path
       transform="matrix(1.2968018,0,0,1.2968018,1724.2811,1355.2416)"
       style="display:inline;opacity:1;vector-effect:none;fill:none;fill-opacity:1;stroke:#8b4513;stroke-width:1.88800001;stroke-linecap:round;stroke-linejoin:round;stroke-miterlimit:4;stroke-dasharray:none;stroke-dashoffset:0;stroke-opacity:1"
       d="m -1067.3917,-1039.844 c 0,0 -3.2809,11.4006 -8.6632,17.8181 -3.6508,0.3563 -7.113,-0.013 -10.5626,-1.6423 -22.5085,11.2208 -26.274,1.9319 -26.1287,2.3575 1.8621,-3.2167 8.3772,-4.6689 13.5,-7.0728 l 6.7546,-3.3273"
       id="path1366"
       inkscape:connector-curvature="0"
       sodipodi:nodetypes="cccccc" />
    <path
       transform="matrix(1.2968018,0,0,1.2968018,1717.3491,1354.2018)"
       sodipodi:nodetypes="cc"
       style="display:inline;opacity:1;vector-effect:none;fill:none;fill-opacity:1;stroke:#8b4513;stroke-width:1.88764453;stroke-linecap:round;stroke-linejoin:miter;stroke-miterlimit:4;stroke-dasharray:none;stroke-dashoffset:0;stroke-opacity:1"
       d="m -1107.7226,-1020.279 c 2.2341,23.13246 4.9076,73.15832 6.1619,98.72729"
       id="path1368"
       inkscape:connector-curvature="0" />
    <path
       transform="matrix(1.2968018,0,0,1.2968018,1724.2811,1355.2416)"
       sodipodi:nodetypes="cscccsc"
       inkscape:connector-curvature="0"
       id="path1370"
       d="m -1162.9498,-1016.4265 c 0,0 -19.3786,72.67886 -4.9211,87.73593 14.1329,14.71893 30.6128,1.25028 60.8339,6.73984 m 0.4149,-0.28149 c 27.6555,-5.00239 53.3343,-10.99467 53.3343,-10.99467 0,0 -6.3355,-47.47959 0.6602,-80.52851 2.0422,-9.6478 -13.6491,-27.5017 -13.6491,-27.5017"
       style="display:inline;opacity:1;fill:none;fill-opacity:1;fill-rule:nonzero;stroke:#8b4513;stroke-width:1.88764453;stroke-linecap:round;stroke-linejoin:miter;stroke-miterlimit:4;stroke-dasharray:none;stroke-dashoffset:0;stroke-opacity:1"
       inkscape:export-xdpi="96"
       inkscape:export-ydpi="96" />
    <path
       transform="matrix(1.2968018,0,0,1.2968018,1724.2811,1355.2416)"
       style="display:inline;opacity:1;fill:none;fill-opacity:1;fill-rule:nonzero;stroke:#8b4513;stroke-width:1.88764453;stroke-linecap:round;stroke-linejoin:miter;stroke-miterlimit:4;stroke-dasharray:none;stroke-dashoffset:0;stroke-opacity:1"
       d="m -1165.0643,-925.91309 c 4.1793,5.63218 -25.2407,61.38643 -14.1466,62.25672 9.7388,0.76397 20.992,-21.86842 27.5953,-34.25069 4.8087,-9.0171 6.0562,-23.38667 6.0562,-23.38667"
       id="path1372"
       inkscape:connector-curvature="0"
       sodipodi:nodetypes="cssc"
       inkscape:export-xdpi="96"
       inkscape:export-ydpi="96" />
    <path
       transform="matrix(1.2968018,0,0,1.2968018,1724.2811,1355.2416)"
       style="display:inline;opacity:1;fill:none;fill-opacity:1;fill-rule:nonzero;stroke:#8b4513;stroke-width:1.88764453;stroke-linecap:round;stroke-linejoin:miter;stroke-miterlimit:4;stroke-dasharray:none;stroke-dashoffset:0;stroke-opacity:1"
       d="m -1159.2592,-1039.6746 c 0,0 -16.0223,15.3255 -20.4282,25.2007 -7.8762,17.65341 -5.4929,35.07622 -9.1319,57.2687 -0.9373,5.71571 13.6756,7.5672 16.0636,-6.62493 l 6.8007,-40.41757"
       id="path1374"
       inkscape:connector-curvature="0"
       sodipodi:nodetypes="cassc"
       inkscape:export-xdpi="96"
       inkscape:export-ydpi="96" />
    <path
       transform="matrix(1.2968018,0,0,1.2968018,1724.2811,1355.2416)"
       style="display:inline;opacity:1;fill:none;fill-opacity:1;fill-rule:nonzero;stroke:#8b4513;stroke-width:1.88764453;stroke-linecap:round;stroke-linejoin:miter;stroke-miterlimit:4;stroke-dasharray:none;stroke-dashoffset:0;stroke-opacity:1"
       d="m -1091.1724,-877.6717 c 3.2035,5.42385 10.7334,1.24683 15.4054,1.52716"
       id="path1376"
       inkscape:connector-curvature="0"
       sodipodi:nodetypes="cc"
       inkscape:export-xdpi="96"
       inkscape:export-ydpi="96" />
    <path
       transform="matrix(1.2968018,0,0,1.2968018,1724.2811,1355.2416)"
       style="display:inline;opacity:1;fill:none;fill-opacity:1;fill-rule:nonzero;stroke:#8b4513;stroke-width:1.88764453;stroke-linecap:round;stroke-linejoin:miter;stroke-miterlimit:4;stroke-dasharray:none;stroke-dashoffset:0;stroke-opacity:1;paint-order:normal"
       d="m -1179.112,-876.45548 c 5.3242,2.59043 6.5153,4.06666 13.3763,2.64932"
       id="path1378"
       inkscape:connector-curvature="0"
       sodipodi:nodetypes="cc"
       inkscape:export-xdpi="96"
       inkscape:export-ydpi="96" />
    <path
       sodipodi:nodetypes="cc"
       transform="matrix(0.64630502,1.1242707,-1.1242707,0.64630502,-168.8709,2100.8926)"
       style="display:inline;opacity:1;fill:#b22222;fill-opacity:1;fill-rule:nonzero;stroke:#8b4513;stroke-width:1.88764453;stroke-linecap:round;stroke-linejoin:miter;stroke-miterlimit:4;stroke-dasharray:none;stroke-dashoffset:0;stroke-opacity:1;paint-order:normal"
       d="m -1203.3439,-1006.1811 8.7128,-11.8405"
       id="path1380"
       inkscape:connector-curvature="0"
       inkscape:export-xdpi="96"
       inkscape:export-ydpi="96" />
    <path
       transform="matrix(1.2968018,0,0,1.2968018,1724.2811,1355.2416)"
       style="display:inline;opacity:1;fill:none;fill-opacity:1;fill-rule:nonzero;stroke:#8b4513;stroke-width:1.88764453;stroke-linecap:round;stroke-linejoin:miter;stroke-miterlimit:4;stroke-dasharray:none;stroke-dashoffset:0;stroke-opacity:1;paint-order:normal"
       d="m -981.90181,-1127.3144 c 0,0 0.33508,-4.3279 4.37561,-4.3279 4.04054,0 7.316,4.8567 7.316,10.8479 0,5.9911 -3.27546,10.8479 -7.316,10.8479 -4.04053,0 -5.90973,-6.7569 -5.90973,-6.7569"
       id="path1384"
       inkscape:connector-curvature="0"
       sodipodi:nodetypes="ccscc"
       inkscape:export-xdpi="96"
       inkscape:export-ydpi="96" />
    <path
       transform="matrix(1.2968018,0,0,1.2968018,1724.2811,1355.2416)"
       style="display:inline;opacity:1;fill:none;fill-opacity:1;fill-rule:nonzero;stroke:#8b4513;stroke-width:1.88752604;stroke-linecap:round;stroke-linejoin:miter;stroke-miterlimit:4;stroke-dasharray:none;stroke-dashoffset:0;stroke-opacity:1"
       d="m -1245.3447,-1110.981 c 24.9354,46.8115 98.2201,82.7476 130.9713,82.7476 33.1435,0 107.2161,-35.722 131.85701,-83.4544"
       id="path1386"
       inkscape:connector-curvature="0"
       sodipodi:nodetypes="csc"
       inkscape:export-xdpi="96"
       inkscape:export-ydpi="96" />
    <path
       sodipodi:nodetypes="cccccc"
       transform="matrix(1.2968018,0,0,1.2968018,1724.2811,1355.2416)"
       inkscape:connector-curvature="0"
       id="path1388"
       d="m -1033.9518,-1143.8373 c -9.3704,0.7779 -13.1763,11.6302 -13.4145,19.7295 -0.3239,8.5618 2.6867,9.6219 12.1739,11.847 9.0253,0.8534 13.8392,1.0714 14.6118,-6.5448 1.0039,-9.0033 -1.2317,-20.7982 -10.5448,-24.6037 -0.9232,-0.2849 -1.8608,-0.425 -2.8264,-0.428 z"
       style="display:inline;opacity:1;fill:none;fill-opacity:1;fill-rule:nonzero;stroke:#8b4513;stroke-width:1.88764453;stroke-linecap:round;stroke-linejoin:miter;stroke-miterlimit:4;stroke-dasharray:none;stroke-dashoffset:0;stroke-opacity:1;paint-order:normal"
       inkscape:export-xdpi="96"
       inkscape:export-ydpi="96" />
    <path
       transform="matrix(1.2968018,0,0,1.2968018,1724.2811,1355.2416)"
       style="display:inline;opacity:1;fill:none;fill-opacity:1;fill-rule:nonzero;stroke:#8b4513;stroke-width:1.88764453;stroke-linecap:round;stroke-linejoin:miter;stroke-miterlimit:4;stroke-dasharray:none;stroke-dashoffset:0;stroke-opacity:1;paint-order:normal"
       d="m -979.16819,-1118.7688 c -1.77624,-0.4637 -2.195,-1.7146 -1.73134,-3.4909 0.46369,-1.7762 2.27946,-2.8403 4.05567,-2.3766"
       id="path1390"
       inkscape:connector-curvature="0"
       sodipodi:nodetypes="csc"
       inkscape:export-xdpi="96"
       inkscape:export-ydpi="96" />
    <path
       transform="matrix(1.2968018,0,0,1.2968018,1724.2811,1355.2416)"
       style="display:inline;opacity:1;fill:none;fill-opacity:1;fill-rule:nonzero;stroke:#8b4513;stroke-width:1.88764453;stroke-linecap:round;stroke-linejoin:miter;stroke-miterlimit:4;stroke-dasharray:none;stroke-dashoffset:0;stroke-opacity:1"
       d="m -1085.5952,-925.35912 c 2.7508,9.47272 -14.6365,57.09468 -2.8643,61.32464 11.0279,3.96253 29.2329,-50.7145 27.1535,-66.21301"
       id="path1392"
       inkscape:connector-curvature="0"
       sodipodi:nodetypes="csc"
       inkscape:export-xdpi="96"
       inkscape:export-ydpi="96" />
    <path
       transform="matrix(1.2968018,0,0,1.2968018,1724.2811,1355.2416)"
       style="display:inline;opacity:1;fill:none;fill-opacity:1;fill-rule:nonzero;stroke:#8b4513;stroke-width:1.46509659;stroke-linecap:round;stroke-linejoin:bevel;stroke-miterlimit:4;stroke-dasharray:none;stroke-dashoffset:0;stroke-opacity:1;paint-order:normal"
       d="m -1118.4788,-1205.3509 c -14.7893,47.412 -100.1993,102.1491 -149.6324,93.4707 38.8104,-8.3746 71.7533,-24.3279 85.3341,-65.2906"
       id="path1394"
       inkscape:connector-curvature="0"
       sodipodi:nodetypes="ccc"
       inkscape:export-xdpi="96"
       inkscape:export-ydpi="96" />
    <path
       transform="matrix(1.2968018,0,0,1.2968018,1724.2811,1355.2416)"
       style="display:inline;opacity:1;fill:none;fill-opacity:1;fill-rule:nonzero;stroke:#8b4513;stroke-width:1.46509659;stroke-linecap:round;stroke-linejoin:bevel;stroke-miterlimit:4;stroke-dasharray:none;stroke-dashoffset:0;stroke-opacity:1;paint-order:normal"
       d="m -1177.2204,-1139.465 c 50.7966,1.8891 69.1504,-49.1524 86.9217,-78.5868"
       id="path1396"
       inkscape:connector-curvature="0"
       sodipodi:nodetypes="cc"
       inkscape:export-xdpi="96"
       inkscape:export-ydpi="96" />
    <path
       transform="matrix(1.2968018,0,0,1.2968018,1724.2811,1355.2416)"
       style="display:inline;opacity:1;fill:none;fill-opacity:1;fill-rule:nonzero;stroke:#8b4513;stroke-width:1.46509659;stroke-linecap:round;stroke-linejoin:bevel;stroke-miterlimit:4;stroke-dasharray:none;stroke-dashoffset:0;stroke-opacity:1;paint-order:normal"
       d="m -1239.7667,-1101.9477 c 3.5219,11.7036 10.5349,22.098 16.9024,32.7345 -1.5624,-1.953 -17.4292,-20.1177 -29.8846,-41.3119 m -2.9469,-4.4904 c -6.8524,-11.6602 -10.704,-21.606 -11.2247,-30.403 -2.3023,-38.8987 3.6681,-64.5877 30.5615,-88.1125 29.6503,-25.9363 97.76,-35.9262 136.9315,-31.7522 18.0256,1.9207 32.3914,3.875 49.6949,8.5571 m 7.5075,2.2452 c 35.0182,9.4754 61.74629,24.6194 72.98173,52.7021 17.1731,42.9238 -5.03575,59.9184 -1.49126,77.0075"
       id="path1398"
       inkscape:connector-curvature="0"
       sodipodi:nodetypes="ccccsssccsc"
       inkscape:export-xdpi="96"
       inkscape:export-ydpi="96" />
    <path
       transform="matrix(1.2968018,0,0,1.2968018,1724.2811,1355.2416)"
       style="display:inline;opacity:1;fill:none;fill-opacity:1;fill-rule:nonzero;stroke:#8b4513;stroke-width:1.46509659;stroke-linecap:round;stroke-linejoin:bevel;stroke-miterlimit:4;stroke-dasharray:none;stroke-dashoffset:0;stroke-opacity:1;paint-order:normal"
       d="m -1050.4045,-1252.3668 c 2.6963,-9.8876 10.0807,-18.0171 16.8392,-26.3814 -4.5304,9.8043 -10.7783,19.3515 -8.4196,28.6266"
       id="path1400"
       inkscape:connector-curvature="0"
       sodipodi:nodetypes="ccc"
       inkscape:export-xdpi="96"
       inkscape:export-ydpi="96" />
    <path
       transform="matrix(1.2968018,0,0,1.2968018,1724.2811,1355.2416)"
       style="display:inline;opacity:1;fill:none;fill-opacity:1;fill-rule:nonzero;stroke:#8b4513;stroke-width:1.46509659;stroke-linecap:round;stroke-linejoin:bevel;stroke-miterlimit:4;stroke-dasharray:none;stroke-dashoffset:0;stroke-opacity:1;paint-order:normal"
       d="m -1132.6357,-1153.8577 c 32.1501,-17.5215 59.09,-51.7899 100.7543,-38.7301"
       id="path1402"
       inkscape:connector-curvature="0"
       sodipodi:nodetypes="cc"
       inkscape:export-xdpi="96"
       inkscape:export-ydpi="96" />
    <path
       transform="matrix(1.2968018,0,0,1.2968018,1724.2811,1355.2416)"
       style="display:inline;opacity:1;fill:none;fill-opacity:1;fill-rule:nonzero;stroke:#8b4513;stroke-width:1.46509659;stroke-linecap:round;stroke-linejoin:bevel;stroke-miterlimit:4;stroke-dasharray:none;stroke-dashoffset:0;stroke-opacity:1;paint-order:normal"
       d="m -1036.0912,-1203.2526 c 7.6142,22.0721 36.14408,49.2303 53.91938,73.6472"
       id="path1404"
       inkscape:connector-curvature="0"
       sodipodi:nodetypes="cc"
       inkscape:export-xdpi="96"
       inkscape:export-ydpi="96" />
    <path
       transform="matrix(1.2968018,0,0,1.2968018,1724.2811,1355.2416)"
       style="display:inline;opacity:1;fill:none;fill-opacity:1;fill-rule:nonzero;stroke:#8b4513;stroke-width:1.46509659;stroke-linecap:round;stroke-linejoin:bevel;stroke-miterlimit:4;stroke-dasharray:none;stroke-dashoffset:0;stroke-opacity:1;paint-order:normal"
       d="m -994.27396,-1195.1137 c -6.31144,15.8667 7.88642,45.878 12.34874,65.1114"
       id="path1406"
       inkscape:connector-curvature="0"
       sodipodi:nodetypes="cc"
       inkscape:export-xdpi="96"
       inkscape:export-ydpi="96" />
    <path
       transform="matrix(1.2968018,0,0,1.2968018,1724.2811,1355.2416)"
       style="display:inline;opacity:1;fill:none;fill-opacity:1;fill-rule:nonzero;stroke:#8b4513;stroke-width:1.46509659;stroke-linecap:round;stroke-linejoin:bevel;stroke-miterlimit:4;stroke-dasharray:none;stroke-dashoffset:0;stroke-opacity:1;paint-order:normal"
       d="m -978.55739,-1172.3808 c -4.42271,7.3304 -3.73354,24.2455 -2.2452,42.6592"
       id="path1408"
       inkscape:connector-curvature="0"
       sodipodi:nodetypes="cc"
       inkscape:export-xdpi="96"
       inkscape:export-ydpi="96" />
    <path
       transform="matrix(1.2968018,0,0,1.2968018,1724.2811,1355.2416)"
       style="display:inline;opacity:1;fill:none;fill-opacity:1;fill-rule:nonzero;stroke:#8b4513;stroke-width:1.46481967;stroke-linecap:round;stroke-linejoin:round;stroke-miterlimit:4;stroke-dasharray:none;stroke-dashoffset:0;stroke-opacity:1;paint-order:normal"
       d="m -982.14266,-1110.888 6.54889,19.9444 c 0.98447,-7.2465 0.37418,-13.6071 3.4729,-22.0281"
       id="path1410"
       inkscape:connector-curvature="0"
       sodipodi:nodetypes="ccc"
       inkscape:export-xdpi="96"
       inkscape:export-ydpi="96" />
    <path
       sodipodi:nodetypes="cccccc"
       inkscape:connector-curvature="0"
       id="path1412"
       d="m -1067.3917,-1039.844 c 0,0 -3.2809,11.4006 -8.6632,17.8181 -3.6508,0.3563 -7.113,-0.013 -10.5626,-1.6423 -15.573,10.1628 -26.1287,2.3575 -26.1287,2.3575 1.8621,-3.2167 8.3772,-4.6689 13.5,-7.0728 l 6.7546,-3.3273"
       style="display:inline;opacity:1;vector-effect:none;fill:none;fill-opacity:1;stroke:#8b4513;stroke-width:1.88800001;stroke-linecap:round;stroke-linejoin:round;stroke-miterlimit:4;stroke-dasharray:none;stroke-dashoffset:0;stroke-opacity:1"
       transform="matrix(-1.2968018,0,0,1.2968018,-1163.7455,1355.7615)" />
    <path
       style="display:inline;opacity:1;vector-effect:none;fill:none;fill-opacity:1;stroke:#8b4513;stroke-width:6.28752565;stroke-linecap:round;stroke-linejoin:miter;stroke-miterlimit:4;stroke-dasharray:none;stroke-dashoffset:0;stroke-opacity:1;paint-order:normal"
       d="m 4946.3057,-1785.612 c 0,0 33.012,37.4043 147.5842,37.4043 114.5722,0 147.5842,-37.4043 147.5842,-37.4043"
       id="path1472"
       inkscape:connector-curvature="0"
       transform="matrix(0.34153934,0.03281496,-0.03281496,0.34153934,-1524.0953,392.77744)"
       sodipodi:nodetypes="csc" />
  </g>
</svg>
