<?xml version="1.0" encoding="UTF-8" standalone="no"?>
<svg
   xmlns:dc="http://purl.org/dc/elements/1.1/"
   xmlns:cc="http://creativecommons.org/ns#"
   xmlns:rdf="http://www.w3.org/1999/02/22-rdf-syntax-ns#"
   xmlns:svg="http://www.w3.org/2000/svg"
   xmlns="http://www.w3.org/2000/svg"
   xmlns:sodipodi="http://sodipodi.sourceforge.net/DTD/sodipodi-0.dtd"
   xmlns:inkscape="http://www.inkscape.org/namespaces/inkscape"
   width="1500"
   height="1500"
   version="1.1"
   viewBox="0 0 396.87 396.88"
   id="svg138"
   sodipodi:docname="ContactSteffyBordered.svg"
   inkscape:version="0.92.2 (5c3e80d, 2017-08-06)">
  <metadata
     id="metadata144">
    <rdf:RDF>
      <cc:Work
         rdf:about="">
        <dc:format>image/svg+xml</dc:format>
        <dc:type
           rdf:resource="http://purl.org/dc/dcmitype/StillImage" />
        <dc:title></dc:title>
      </cc:Work>
    </rdf:RDF>
  </metadata>
  <defs
     id="defs142" />
  <sodipodi:namedview
     pagecolor="#ffffff"
     bordercolor="#666666"
     borderopacity="1"
     objecttolerance="10"
     gridtolerance="10"
     guidetolerance="10"
     inkscape:pageopacity="0"
     inkscape:pageshadow="2"
     inkscape:window-width="2560"
     inkscape:window-height="1377"
     id="namedview140"
     showgrid="false"
     inkscape:zoom="0.22250293"
     inkscape:cx="921.97269"
     inkscape:cy="724.44948"
     inkscape:window-x="-8"
     inkscape:window-y="32"
     inkscape:window-maximized="1"
     inkscape:current-layer="svg138" />
  <path
     id="path3283"
     d="m 266.98168,20.100714 a 4.1950665,4.1950665 0 0 0 -3.14214,1.559335 h -0.003 c -0.0316,0.03944 -0.0658,0.08146 -0.0975,0.120562 -3.13034,3.868198 -6.48461,7.905834 -9.3972,12.334569 -21.46407,-4.828837 -44.05369,-6.489098 -61.65489,-6.320603 -28.0074,0.267879 -89.10519,0.52015 -119.522025,50.144483 -1.465535,2.331071 -1.244081,5.3104 0.117433,7.327375 0.163616,0.242411 0.400042,0.435859 0.599519,0.656233 -0.725689,1.623389 -1.53711,3.212393 -2.137152,4.888947 -4.559552,11.593955 -6.415217,25.180115 -4.749331,42.776295 0.04425,0.92522 0.09263,1.86074 0.148894,2.81074 0.412981,6.97735 3.040348,14.32574 7.270223,22.36851 -0.397281,0.10564 -0.912226,0.39727 -1.380318,0.61104 -1.191234,0.27877 -2.386344,0.55008 -3.58702,0.80921 a 4.1950665,4.1950665 0 0 0 0.159064,8.23134 c 3.441822,0.60418 7.045906,0.81204 10.73675,0.77362 0.6394,0.90405 1.275765,1.80466 1.936859,2.75801 5.059475,8.08668 10.435396,15.38782 14.712373,20.87657 4.301461,5.52014 7.754011,9.53754 8.023541,9.87445 a 4.1950665,4.1950665 0 0 0 7.10448,-4.32266 c 5.39621,4.65236 11.06146,9.08015 17.00729,13.06 7.63422,5.31125 15.50912,9.7279 23.33457,13.60596 -0.0324,0.0463 -0.0612,0.0927 -0.0935,0.13908 0.24856,0.11662 0.16262,0.0823 0.42984,0.20657 1.533,0.71283 3.3658,1.54664 5.41532,2.44417 0.65325,0.28606 1.44573,0.60376 2.14026,0.90088 l 0.39484,0.009 a 4.1950665,4.1950665 0 0 0 1.91247,-7.94999 l 0.46262,2.39512 a 4.1950665,4.1950665 0 0 0 -2.0184,-2.83064 l 0.69703,0.009 c -9.23472,-4.13933 -18.77149,-9.46928 -27.90841,-15.82821 a 4.1950665,4.1950665 0 0 0 -0.0638,-0.0437 c -14.3453,-9.59697 -27.48643,-21.34107 -36.196912,-34.03982 a 4.1950665,4.1950665 0 0 0 -0.07709,-0.10058 4.1950665,4.1950665 0 0 0 -0.0026,0 4.1950665,4.1950665 0 0 0 -0.113874,-0.17904 c -1.512285,-2.2238 -2.889284,-4.47667 -4.116576,-6.74952 a 4.1950665,4.1950665 0 0 0 -0.122286,-0.21094 c -0.07889,-0.12768 -0.175012,-0.28889 -0.292899,-0.48208 a 4.1950665,4.1950665 0 0 0 -4.825107,-1.81546 l 0.0051,-0.009 c 0.09932,-0.0309 0.08343,-0.0317 -0.190987,0.0592 a 4.1950665,4.1950665 0 0 0 -2.105253,1.56242 c -0.371033,-0.41545 -0.71942,-0.73632 -1.043532,-0.93629 a 4.1950665,4.1950665 0 0 0 -0.562313,-2.36494 c -5.452108,-9.33715 -8.29713,-17.04387 -8.668712,-23.32126 -0.05531,-0.93363 -0.103635,-1.85928 -0.147556,-2.78142 a 4.1950665,4.1950665 0 0 0 -0.01338,-0.19945 c -1.598522,-16.72146 0.15253,-28.80367 4.21361,-39.101114 a 4.1950665,4.1950665 0 0 0 0.04879,-0.128965 c 0.953102,-2.671064 2.07693,-5.248233 3.391161,-7.758947 A 4.1950665,4.1950665 0 0 0 81.590269,80.488361 C 109.79289,37.056351 165.12899,36.45354 192.76826,36.189177 v 0 c 17.77794,-0.170124 41.11064,1.535155 62.47377,6.657337 a 4.1950665,4.1950665 0 0 0 2.14025,-0.05231 4.1950665,4.1950665 0 0 0 1.85932,1.058221 c 15.96536,4.204846 30.49083,10.455306 40.37507,18.9769 3.97984,3.431223 7.00136,7.97992 9.26512,13.304641 a 4.1950665,4.1950665 0 0 0 0.56945,0.961068 c 3.14654,3.980014 5.73143,8.384911 7.71239,13.33654 7.36699,18.413446 5.68958,30.028416 2.99416,39.705476 a 4.1950665,4.1950665 0 0 0 -0.072,0.2978 c -1.29566,6.44005 -3.021,11.80044 -4.11652,14.87367 a 4.1950665,4.1950665 0 0 0 0.35842,3.57245 c 1.12477,1.86708 2.00652,5.13204 2.0096,8.56146 -0.009,5.237 -2.40807,9.55161 -3.46346,10.20767 a 4.1950665,4.1950665 0 0 0 -0.36332,0.25296 4.1950665,4.1950665 0 0 0 -0.31504,-0.17587 c -0.26316,-0.1312 -0.77928,-0.52075 -1.32807,-1.31959 a 4.1950665,4.1950665 0 0 0 -6.55504,-0.45378 c -1.46226,1.60101 -3.33955,3.59955 -5.48975,5.76761 a 4.1950665,4.1950665 0 0 0 -0.36688,0.4254 c -1.69633,2.24447 -3.47912,4.44031 -5.33735,6.58514 a 4.1950665,4.1950665 0 0 0 -0.0204,0.0232 c -1.9129,2.24086 -3.95765,4.43868 -6.10615,6.59183 a 4.1950665,4.1950665 0 0 0 -0.015,0.0154 c -0.23865,0.24164 -0.48356,0.48765 -0.73336,0.73692 a 4.1950665,4.1950665 0 0 0 -0.009,0.009 c -0.009,0.009 -0.0193,0.018 -0.0284,0.0274 -15.663,15.61864 -35.14305,27.87287 -53.38012,35.3864 a 4.1950665,4.1950665 0 0 0 -2.5054,4.72277 4.1950665,4.1950665 0 0 0 -0.37843,0.86409 l -0.98636,3.23391 a 4.1950665,4.1950665 0 0 0 -0.0301,0.1041 c -0.0233,0.084 0.0497,-0.13574 0.0332,-0.0873 a 4.1950665,4.1950665 0 0 0 -0.19054,1.15923 c 1.33428,-0.45558 2.7553,-0.92085 3.96634,-1.35645 2.24514,-0.8075 4.25394,-1.56534 5.93424,-2.21686 1.86612,-0.72363 2.07247,-0.82713 3.003,-1.21102 -0.0227,-0.024 -0.0469,-0.0514 -0.0695,-0.0755 17.55987,-8.00333 35.57335,-19.65903 50.5579,-34.60927 a 4.1950665,4.1950665 0 0 0 0.009,-0.0103 c 0.003,0 0.004,-0.009 0.007,-0.009 a 4.1950665,4.1950665 0 0 0 0.009,-0.0103 4.1950665,4.1950665 0 0 0 0.007,-0.009 c 0.24307,-0.24258 0.49037,-0.48919 0.74,-0.74181 l 0.015,-0.0154 c 2.27327,-2.27885 4.45412,-4.62304 6.51338,-7.03403 l 0.012,-0.0137 c 1.89822,-2.19156 3.71814,-4.44597 5.46809,-6.74909 0.8496,-0.85911 1.42634,-1.50163 2.1823,-2.29274 l 2.62459,7.99518 a 4.1950665,4.1950665 0 0 0 8.10246,-0.53927 4.1950665,4.1950665 0 0 0 0.0857,-0.45198 l 1.13394,-8.99347 c 4.00162,-3.6618 5.65468,-9.45633 5.65905,-15.73955 a 4.1950665,4.1950665 0 0 0 0,-0.009 c 0,-3.96827 -0.76907,-7.75346 -2.29985,-11.03497 1.151,-3.37849 2.60812,-8.10966 3.8188,-14.04456 2.95155,-10.61206 4.71248,-25.03083 -3.29274,-45.0398 -2.19533,-5.487128 -5.09971,-10.419378 -8.55135,-14.880354 -2.62973,-6.050496 -6.25955,-11.607594 -11.30653,-15.958813 -10.38005,-8.949135 -24.32197,-15.052194 -39.3453,-19.412587 1.39107,-3.385691 3.31618,-7.022711 5.15481,-11.001696 h -0.003 a 4.1950665,4.1950665 0 0 0 -3.49841,-5.945281 h -0.003 a 4.1950665,4.1950665 0 0 0 -0.41875,-0.0086 z m 21.76193,165.564616 c -0.0286,0.0206 -0.20958,0.1775 -0.36999,0.31856 0.0419,-0.042 0.0831,-0.0901 0.10722,-0.11079 0.24392,-0.20854 0.30424,-0.23778 0.26277,-0.20777 z m -1.20084,1.3568 c -1e-5,8e-5 -0.003,0.009 -0.003,0.009 a 4.1950665,4.1950665 0 0 0 -0.0182,0.0317 c 2.3e-4,-6.9e-4 0.007,-0.0189 0.007,-0.0189 -10e-6,0 0.0125,-0.0189 0.0134,-0.0197 z m 6.65827,4.95137 -0.0279,0.0489 c -0.0779,0.078 -0.0679,0.0557 -0.1254,0.10727 0.0611,-0.0609 0.086,-0.0857 0.1533,-0.15649 z"
     style="color:#000000;font-style:normal;font-variant:normal;font-weight:normal;font-stretch:normal;font-size:medium;line-height:normal;font-family:sans-serif;font-variant-ligatures:normal;font-variant-position:normal;font-variant-caps:normal;font-variant-numeric:normal;font-variant-alternates:normal;font-feature-settings:normal;text-indent:0;text-align:start;text-decoration:none;text-decoration-line:none;text-decoration-style:solid;text-decoration-color:#000000;letter-spacing:normal;word-spacing:normal;text-transform:none;writing-mode:lr-tb;direction:ltr;text-orientation:mixed;dominant-baseline:auto;baseline-shift:baseline;text-anchor:start;white-space:normal;shape-padding:0;clip-rule:nonzero;display:inline;overflow:visible;visibility:visible;opacity:1;isolation:auto;mix-blend-mode:normal;color-interpolation:sRGB;color-interpolation-filters:linearRGB;solid-color:#000000;solid-opacity:1;vector-effect:none;fill:#ffffff;fill-opacity:1;fill-rule:nonzero;stroke:none;stroke-width:8.38929367;stroke-linecap:round;stroke-linejoin:round;stroke-miterlimit:4;stroke-dasharray:none;stroke-dashoffset:0;stroke-opacity:1;paint-order:normal;color-rendering:auto;image-rendering:auto;shape-rendering:auto;text-rendering:auto;enable-background:accumulate"
     inkscape:connector-curvature="0" />
  <path
     inkscape:connector-curvature="0"
     id="path3285"
     d="m 236.99977,376.62701 v 4.4e-4 c -0.0191,8.3e-4 -0.0327,0.009 -0.0518,0.01 l 0.007,-0.007 c 0.0137,-8.5e-4 0.0282,-0.002 0.0452,-0.003 z"
     style="color:#000000;font-style:normal;font-variant:normal;font-weight:normal;font-stretch:normal;font-size:medium;line-height:normal;font-family:sans-serif;font-variant-ligatures:normal;font-variant-position:normal;font-variant-caps:normal;font-variant-numeric:normal;font-variant-alternates:normal;font-feature-settings:normal;text-indent:0;text-align:start;text-decoration:none;text-decoration-line:none;text-decoration-style:solid;text-decoration-color:#000000;letter-spacing:normal;word-spacing:normal;text-transform:none;writing-mode:lr-tb;direction:ltr;text-orientation:mixed;dominant-baseline:auto;baseline-shift:baseline;text-anchor:start;white-space:normal;shape-padding:0;clip-rule:nonzero;display:inline;overflow:visible;visibility:visible;opacity:1;isolation:auto;mix-blend-mode:normal;color-interpolation:sRGB;color-interpolation-filters:linearRGB;solid-color:#000000;solid-opacity:1;vector-effect:none;fill:#ffffff;fill-opacity:1;fill-rule:nonzero;stroke:none;stroke-width:8.38929367;stroke-linecap:round;stroke-linejoin:round;stroke-miterlimit:4;stroke-dasharray:none;stroke-dashoffset:0;stroke-opacity:1;paint-order:normal;color-rendering:auto;image-rendering:auto;shape-rendering:auto;text-rendering:auto;enable-background:accumulate" />
  <path
     sodipodi:nodetypes="cccccccccccccccccccccccccccccccccccccccccccccccccccccccccccccccccccccccccccccccccccccccccccccccccccccccsccccccccccccccccccccccccccccccccccccccccccccccccccsccccccccccccccccccccccccccccccccccc"
     inkscape:connector-curvature="0"
     id="path3287"
     d="m 155.04168,226.37568 c 0.93053,0.3839 1.13687,0.4874 3.003,1.21103 1.68029,0.6516 3.68909,1.40945 5.93423,2.21694 1.21105,0.4356 2.63206,0.90079 3.96634,1.35637 0.0243,0.91888 -0.25394,1.82027 -0.79184,2.56568 l -0.29646,0.4085 c -1.80834,2.48628 -5.58837,2.24721 -7.06905,-0.44709 -0.74059,0.86177 -1.35704,1.44941 -2.14068,2.48859 -3.5532,4.71162 -6.85704,10.94244 -6.9286,16.5269 -0.0493,3.84556 0.44983,8.28724 1.48577,12.61908 0.18464,0.77139 0.14685,1.57923 -0.10899,2.32995 -3.57727,10.49536 -6.65382,22.16272 -7.48115,32.46719 -0.82703,10.3004 0.68878,18.92779 5.1149,24.08299 0.004,0.005 7.5e-4,6.6e-4 0.0284,0.0319 0.033,0.038 0.0654,0.0765 0.097,0.11565 1.94283,2.38713 4.69967,4.52503 8.36739,6.2989 0.009,0.004 0.0178,0.009 0.0266,0.0133 2.52631,1.24481 5.35366,2.23215 8.44403,2.97422 l 0.0319,0.007 c 3.3684,0.83647 7.1568,1.44339 11.34337,1.78223 2.37246,0.19205 4.11003,2.31732 3.82676,4.68063 l -0.0151,0.11256 c -0.0185,0.1571 -0.0459,0.31303 -0.082,0.46704 -0.0623,0.26218 -2.61147,11.31594 -2.78719,19.83616 v 0.002 c -0.0578,2.80296 0.18411,5.31641 0.6115,6.746 0.32636,1.09166 0.28799,0.89062 0.24105,0.86054 0.34327,-0.39744 2.46374,-3.10436 3.88392,-7.33535 0.003,-0.01 0.007,-0.019 0.0102,-0.0284 0.0352,-0.0996 0.0743,-0.19795 0.11697,-0.29466 -0.003,0.007 -0.0166,0.0313 -0.0182,0.035 -0.0263,0.0628 -0.0369,0.0887 -0.0452,0.11033 -0.0166,0.0432 -0.0209,0.0568 -0.0252,0.0687 -0.009,0.0238 -0.0107,0.0282 -0.012,0.0319 -0.003,0.008 -0.003,0.009 -0.003,0.009 l -0.0137,0.0399 c 2.8602,-8.53712 4.3275,-20.2743 4.46528,-21.46372 0.23609,-2.04015 1.91451,-3.60943 3.96591,-3.708 1.79726,-0.0857 3.74309,-0.2923 5.63557,-0.45552 0.006,-0.30018 -0.10347,-0.4258 -0.0217,-0.81047 0.0722,-0.33943 0.34086,-0.71609 0.54237,-1.08696 0.0791,-0.19326 0.1726,-0.38033 0.27961,-0.55966 0.0682,-0.0971 0.1015,-0.18039 0.17591,-0.27429 0.40503,-0.57827 0.94945,-1.04495 1.58283,-1.35684 0.008,-0.003 0.0126,-0.0134 0.0199,-0.0168 0.0417,-0.0179 0.0836,-0.0352 0.12583,-0.0519 0.015,-0.008 0.0301,-0.0146 0.0452,-0.0217 0.0107,-0.004 0.016,-0.004 0.0266,-0.009 0.22114,-0.0919 0.44974,-0.16469 0.68331,-0.21758 0.0669,-0.0168 0.16169,-0.0573 0.22287,-0.0705 0.53525,-0.11443 1.08771,-0.12301 1.62626,-0.0253 l 4.33235,-0.814 c 0.0497,-0.009 0.0994,-0.0178 0.14933,-0.0252 2.32292,-0.35008 4.7212,-0.75098 8.28363,-1.35639 2.02395,-0.343 3.99883,0.82904 4.66734,2.76994 0.0552,0.16019 0.11934,0.33559 0.17948,0.50602 2.84242,-0.37339 5.88889,-0.84373 9.43043,-1.6382 2.64432,-0.59212 5.14788,1.44068 5.11135,4.15025 l -0.0253,1.87218 c -8.5e-4,0.11909 -0.007,0.2381 -0.0182,0.35668 -0.45046,4.55716 -2.65454,24.29708 -2.65454,24.29708 0,0 3.1576,5.91751 3.66441,6.97488 0.0366,0.0764 0.017,0.0392 0.047,0.10057 0.0274,-0.0479 0.0557,-0.0954 0.0851,-0.14223 0.80149,-1.24658 1.81681,-4.15346 2.50714,-7.64377 0.003,-0.0141 0.004,-0.0281 0.007,-0.0421 1.87892,-9.54708 1.99968,-23.26469 1.96123,-27.69571 -8.6e-4,-0.11176 0.002,-0.22352 0.01,-0.33501 l 0.0807,-1.13704 c -0.11521,-1.96545 1.15188,-3.74658 3.04642,-4.28228 4.18238,-1.16274 8.26667,-2.35963 11.94424,-3.45011 0.01,-0.003 0.0201,-0.007 0.0301,-0.0102 0.55441,-0.15977 0.4081,-0.12267 0.87426,-0.25923 -4.56547,-15.40767 -7.50217,-31.1065 -9.04357,-40.94183 -0.44775,-2.88586 2.11669,-5.33484 4.97886,-4.75466 0.42269,-0.48877 0.79262,-1.27903 0.94959,-3.22723 0.21987,-2.72835 -0.26885,-6.66471 -1.14057,-10.5781 -0.0454,-0.20331 -0.0756,-0.40979 -0.0904,-0.61765 -0.0396,-0.56208 -0.63675,-4.12012 -3.99781,-12.95633 -0.005,-0.012 -0.0101,-0.0249 -0.0151,-0.0369 -0.37178,-1.00557 -0.64802,-1.71248 -0.84237,-2.20228 -0.004,-0.0111 -0.008,-0.0223 -0.0115,-0.0334 l 0.003,0.0154 c -0.0709,-0.17862 -0.12348,-0.31573 -0.14402,-0.36649 -0.16608,-0.41048 -0.26613,-0.84462 -0.29643,-1.28631 -0.0131,-0.19105 -0.0326,-0.38604 -0.0571,-0.58627 -0.014,-0.1113 -0.0234,-0.22303 -0.0284,-0.33502 -0.0725,-1.70931 -1.27405,-4.94862 -3.03316,-8.02219 -0.016,-0.0274 -0.0316,-0.0557 -0.047,-0.084 -1.42927,-2.6348 -3.34184,-5.49957 -5.43307,-8.44099 h -0.23794 c 0.69453,-0.29712 1.48701,-0.61473 2.14025,-0.90088 2.04954,-0.89753 3.88233,-1.73126 5.41533,-2.44417 0.26721,-0.12425 0.18128,-0.0899 0.42984,-0.20648 1.85149,2.66009 3.60366,5.31366 5.03778,7.95308 2.06219,3.60846 3.91936,7.50076 4.10682,11.76203 4.6e-4,8.5e-4 4.8e-4,0 0.002,0.009 l -0.0248,-0.31461 c 0.0135,0.11036 0.0202,0.22106 0.0319,0.3315 0.20456,0.51698 0.48046,1.22149 0.84548,2.2076 0.003,0.009 0.003,0.009 0.007,0.018 0.003,0.009 0.003,0.0103 0.007,0.0189 3.26323,8.58419 4.19907,12.40805 4.44226,14.80189 0.95903,4.32858 1.62965,8.79899 1.29347,12.97091 -0.30327,3.76341 -1.81826,7.77893 -5.26557,9.99012 1.76115,10.58971 4.61648,25.4586 9.19114,39.82602 0.13085,0.41109 0.19751,0.83989 0.19763,1.2713 v 0.002 c -3.7e-4,1.83602 -1.19464,3.45849 -2.94762,4.00445 0,0 -1.8609,0.58033 -4.97398,1.47735 -2.77779,0.8236 -5.93938,1.72859 -9.0755,2.62103 0.024,5.32889 -0.0874,17.28254 -2.02991,27.44758 -0.0131,0.1338 -0.0326,0.26689 -0.0585,0.39881 -5.7e-4,0.005 -8.6e-4,0.01 -0.002,0.0151 -0.78197,3.96895 -1.76693,7.53036 -3.64108,10.48726 -1.11975,1.91545 -3.06317,4.24401 -6.32195,4.46663 -0.0603,0.008 -0.12355,0.003 -0.18433,0.0102 0,0 -0.0911,-0.0395 -0.17416,0.0115 -0.38092,0.0332 -0.75531,0.0942 -1.14545,0.0687 -3.39129,-0.22245 -5.79237,-2.86066 -6.97378,-5.32537 -1.18141,-2.46473 -1.75133,-5.22441 -2.13715,-8.23667 -6.1e-4,-0.01 -0.0362,-0.29901 -0.0469,-0.38857 -0.0183,-0.15679 -0.15968,-18.06743 0.33475,-23.82948 -2.3108,0.76593 -28.58484,4.63684 -30.792,4.79218 -0.54752,4.11186 -1.70577,11.88912 -4.33456,19.73556 -0.003,0.0112 -0.008,0.0225 -0.0115,0.0337 l -0.002,0.007 c 0,0 -0.005,0.0146 -0.0133,0.0368 -0.004,0.0111 -0.008,0.0223 -0.0186,0.0519 -0.005,0.0148 -0.011,0.032 -0.0284,0.0771 -1.73281,5.16105 -3.45163,10.10568 -8.49456,12.39357 -1.10763,0.54114 -2.53554,0.89074 -4.0226,0.6948 -0.19246,-0.0257 -0.41357,-0.0547 -0.58137,-0.10014 -0.17066,-0.0462 0.0767,0.0159 0.27295,0.0603 -0.21267,-0.0272 -0.4155,-0.0394 -0.63809,-0.0873 -3.63401,-0.78147 -5.72447,-4.02974 -6.59005,-6.92502 -0.85772,-2.86906 -1.02268,-5.9872 -0.95977,-9.23633 h 0.0133 c 8.6e-4,-0.0352 0.003,-0.0703 0.005,-0.10548 l -0.02,0.0182 c 0.14184,-6.87861 1.25442,-13.00015 2.09994,-17.11097 -2.792,-0.37387 -5.49249,-0.82646 -7.9903,-1.44545 l -0.003,-0.002 c -3.59176,-0.86269 -7.0021,-2.03571 -10.16911,-3.59412 -4.56046,-2.20701 -8.36383,-5.05401 -11.20776,-8.5464 -6.67996,-7.79283 -8.0198,-18.78085 -7.10272,-30.20287 0.88926,-11.07574 4.0017,-22.82559 7.56844,-33.45008 -0.99542,-4.56945 -1.54323,-9.16008 -1.48886,-13.40162 0.10966,-8.56104 4.5114,-16.02407 8.61861,-21.47038 1.48488,-1.96896 2.80511,-3.36014 4.09352,-4.74927 z m 92.29955,19.5774 0.0102,0.0497 v -0.009 c -4.6e-4,0 -0.0102,-0.0437 -0.0102,-0.0437 z m -103.98144,83.70528 0.0851,0.10057 c 0.0106,0.0122 -0.007,-0.008 -0.0519,-0.0589 -0.007,-0.008 -0.0134,-0.0156 -0.02,-0.0235 -0.005,-0.006 -0.009,-0.0124 -0.0133,-0.0182 z m 31.5207,30.66681 c -0.003,0.007 -0.0634,0.11033 -0.0634,0.11033 0.02,-0.0102 0.0401,-0.0202 0.0603,-0.0301 z m 72.3287,0.50249 c -0.002,0.10667 -0.007,0.21324 -0.0168,0.31949 l 0.009,-0.0634 0.009,-0.12229 z m -73.49766,3.64776 -0.002,0.007 c -3e-5,0 0.0539,0.0104 0.0669,0.0133 -0.0218,-0.007 -0.0435,-0.0131 -0.0652,-0.0199 z m 0.19897,0.0487 c 0.0966,0.022 0.20133,0.0471 0.26321,0.0567 0.0582,0.009 0.0298,3.4e-4 0.0754,0.007 -0.11367,-0.0165 -0.22661,-0.0376 -0.33854,-0.0634 z m 0.82774,0.10014 c -0.0195,1.4e-4 -0.039,1.4e-4 -0.0585,0 0.008,-2e-4 0.0506,0.005 0.0585,0.005 z m 61.94824,3.62913 c -0.0118,5e-5 -0.0236,5e-5 -0.0354,0 -0.0191,6.8e-4 -0.0118,0.004 -0.0301,0.005 0.0206,-0.002 0.0538,-0.004 0.0656,-0.005 z"
     style="color:#000000;font-style:normal;font-variant:normal;font-weight:normal;font-stretch:normal;font-size:medium;line-height:normal;font-family:sans-serif;font-variant-ligatures:normal;font-variant-position:normal;font-variant-caps:normal;font-variant-numeric:normal;font-variant-alternates:normal;font-feature-settings:normal;text-indent:0;text-align:start;text-decoration:none;text-decoration-line:none;text-decoration-style:solid;text-decoration-color:#000000;letter-spacing:normal;word-spacing:normal;text-transform:none;writing-mode:lr-tb;direction:ltr;text-orientation:mixed;dominant-baseline:auto;baseline-shift:baseline;text-anchor:start;white-space:normal;shape-padding:0;clip-rule:nonzero;display:inline;overflow:visible;visibility:visible;opacity:1;isolation:auto;mix-blend-mode:normal;color-interpolation:sRGB;color-interpolation-filters:linearRGB;solid-color:#000000;solid-opacity:1;vector-effect:none;fill:#ffffff;fill-opacity:1;fill-rule:nonzero;stroke:none;stroke-width:8.38929367;stroke-linecap:round;stroke-linejoin:round;stroke-miterlimit:4;stroke-dasharray:none;stroke-dashoffset:0;stroke-opacity:1;paint-order:normal;color-rendering:auto;image-rendering:auto;shape-rendering:auto;text-rendering:auto;enable-background:accumulate" />
  <path
     sodipodi:nodetypes="cscsc"
     inkscape:connector-curvature="0"
     id="path3289"
     d="m 174.97091,360.45489 c 0,0 2.95542,1.92045 4.64408,2.24174 2.66468,0.507 8.11539,-0.59901 8.11539,-0.59901 0,0 -3.7244,11.11545 -8.09089,10.47809 -4.28421,-0.62536 -4.66858,-12.12082 -4.66858,-12.12082 z"
     style="opacity:1;vector-effect:none;fill:#e6e6e6;fill-opacity:1;stroke:none;stroke-width:0.59010035;stroke-linecap:round;stroke-linejoin:miter;stroke-miterlimit:4;stroke-dasharray:none;stroke-dashoffset:0;stroke-opacity:1;paint-order:normal" />
  <path
     sodipodi:nodetypes="cscsc"
     inkscape:connector-curvature="0"
     id="path3291"
     d="m 230.66223,362.21684 c 0,0 2.16085,10.36775 6.13363,10.22752 4.29058,-0.15144 5.82902,-11.48526 5.82902,-11.48526 0,0 -4.26112,2.24995 -6.59682,2.41213 -1.82515,0.12672 -5.36583,-1.15439 -5.36583,-1.15439 z"
     style="opacity:1;vector-effect:none;fill:#e6e6e6;fill-opacity:1;stroke:none;stroke-width:0.59010035;stroke-linecap:round;stroke-linejoin:miter;stroke-miterlimit:4;stroke-dasharray:none;stroke-dashoffset:0;stroke-opacity:1;paint-order:normal" />
  <path
     inkscape:connector-curvature="0"
     id="path3293"
     d="m 231.09345,333.74323 -0.38529,28.84342 4.78771,0.81994 7.51566,-2.58025 2.1608,-30.24446 z"
     style="opacity:1;vector-effect:none;fill:#ffdab9;fill-opacity:1;stroke:none;stroke-width:0.22196673px;stroke-linecap:butt;stroke-linejoin:miter;stroke-miterlimit:4;stroke-dasharray:none;stroke-dashoffset:0;stroke-opacity:1" />
  <path
     inkscape:connector-curvature="0"
     id="path3295"
     d="m 177.75196,339.3818 -2.52632,21.11446 5.57224,2.35774 6.79895,-1.17335 4.83552,-22.29885 z"
     style="fill:#ffdab9;fill-opacity:1;stroke:none;stroke-width:0.22196673px;stroke-linecap:butt;stroke-linejoin:miter;stroke-opacity:1" />
  <path
     style="display:inline;opacity:1;fill:#ffdab9;fill-opacity:1;fill-rule:nonzero;stroke:none;stroke-width:0.59010035;stroke-linecap:round;stroke-linejoin:miter;stroke-miterlimit:4;stroke-dasharray:none;stroke-dashoffset:0;stroke-opacity:1;paint-order:normal"
     d="m 248.19226,275.92396 c -9e-5,0.13771 2.86976,8.03351 6.78837,4.60726 5.23539,-4.57742 1.72882,-17.25936 1.65637,-17.24812 z"
     id="path3297"
     inkscape:connector-curvature="0"
     sodipodi:nodetypes="cscc"
     inkscape:export-xdpi="96"
     inkscape:export-ydpi="96" />
  <path
     id="path3299"
     d="m 240.76554,224.16063 -78.89926,0.88492 -7.03138,8.18306 -0.12982,1.09098 c -4.14017,5.64027 -8.33965,12.82891 -7.80154,18.24624 0.36956,3.72019 0.8567,8.41998 1.72461,13.24033 -6.64392,19.70404 -11.68458,39.03976 -5.25093,55.74283 5.58281,13.97157 26.29807,21.09399 58.8987,17.434 1.81837,-0.20421 14.12663,-2.46533 16.68558,-2.71011 11.71752,-1.12072 31.22403,-7.09643 43.05772,-10.59981 -6.20705,-19.49432 -9.60264,-40.74081 -10.87587,-49.78907 -0.23791,-1.6907 -0.38764,-2.83742 -0.48921,-3.63445 l 5.97144,-8.91115 c 0,0 1.06825,-1.64036 -5.08608,-17.34888 l 0.003,-0.024 c -0.012,-0.018 -0.0214,-0.0334 -0.0319,-0.0497 -0.0458,-0.1167 -0.0833,-0.21729 -0.12984,-0.33545 -0.41976,-6.27361 -4.96477,-13.69325 -10.61576,-21.41987 z"
     style="display:inline;opacity:1;fill:#aa87de;fill-opacity:1;fill-rule:nonzero;stroke:none;stroke-width:0.59010035;stroke-linecap:round;stroke-linejoin:miter;stroke-miterlimit:4;stroke-dasharray:none;stroke-dashoffset:0;stroke-opacity:1"
     inkscape:connector-curvature="0" />
  <path
     style="opacity:1;fill:none;fill-opacity:1;fill-rule:nonzero;stroke:#8b4513;stroke-width:1.58360052;stroke-linecap:round;stroke-linejoin:round;stroke-miterlimit:4;stroke-dasharray:none;stroke-dashoffset:0;stroke-opacity:1"
     d="m 251.2721,245.29487 c 0,0 13.10939,31.66467 2.68118,36.24235 -0.77108,0.33845 -1.58441,0.0738 -2.39195,-0.56482"
     id="path3301"
     inkscape:connector-curvature="0"
     sodipodi:nodetypes="csc"
     inkscape:export-xdpi="96"
     inkscape:export-ydpi="96" />
  <path
     sodipodi:nodetypes="cscccsc"
     inkscape:connector-curvature="0"
     id="path3303"
     d="m 148.14096,266.24699 c -6.06523,22.01728 -11.05113,47.48293 -1.5913,60.69494 9.96591,13.91882 32.78579,14.21798 56.07807,11.53014 l 15.3483,-2.08548 c 23.20101,-4.19665 44.04362,-10.71354 44.04362,-10.71354 0,0 -16.73051,-51.24746 -10.86162,-78.97319 1.71327,-8.09388 -11.45063,-23.07198 -11.45063,-23.07198"
     style="opacity:1;fill:none;fill-opacity:1;fill-rule:nonzero;stroke:#8b4513;stroke-width:1.58360052;stroke-linecap:round;stroke-linejoin:round;stroke-miterlimit:4;stroke-dasharray:none;stroke-dashoffset:0;stroke-opacity:1"
     inkscape:export-xdpi="96"
     inkscape:export-ydpi="96" />
  <path
     sodipodi:nodetypes="cc"
     style="opacity:1;fill:none;fill-opacity:1;fill-rule:nonzero;stroke:#8b4513;stroke-width:1.58360052;stroke-linecap:round;stroke-linejoin:round;stroke-miterlimit:4;stroke-dasharray:none;stroke-dashoffset:0;stroke-opacity:1;paint-order:normal"
     d="m 256.637,263.2831 -5.8599,8.77163"
     id="path3305"
     inkscape:connector-curvature="0"
     inkscape:export-xdpi="96"
     inkscape:export-ydpi="96" />
  <path
     sodipodi:nodetypes="csc"
     inkscape:connector-curvature="0"
     id="path3307"
     d="m 177.73664,339.60623 c 0,0 -7.41656,31.01186 1.31589,32.88978 9.47502,2.03762 13.37982,-33.11421 13.37982,-33.11421"
     style="opacity:1;vector-effect:none;fill:none;fill-opacity:1;stroke:#8b4513;stroke-width:1.58360052;stroke-linecap:round;stroke-linejoin:round;stroke-miterlimit:4;stroke-dasharray:none;stroke-dashoffset:0;stroke-opacity:1" />
  <path
     sodipodi:nodetypes="csc"
     inkscape:connector-curvature="0"
     id="path3309"
     d="m 231.26327,334.1353 c 0,0 -4.44595,37.76282 4.66823,38.36071 10.10667,0.663 9.09886,-41.87469 9.09886,-41.87469"
     style="opacity:1;vector-effect:none;fill:none;fill-opacity:1;stroke:#8b4513;stroke-width:1.58360052;stroke-linecap:round;stroke-linejoin:round;stroke-miterlimit:4;stroke-dasharray:none;stroke-dashoffset:0;stroke-opacity:1" />
  <path
     sodipodi:nodetypes="cc"
     inkscape:connector-curvature="0"
     id="path3311"
     d="m 174.80916,360.43419 c 4.24844,0.49041 2.01509,4.31847 12.80234,1.24226"
     style="opacity:1;vector-effect:none;fill:none;fill-opacity:1;stroke:#8b4513;stroke-width:1.58360052;stroke-linecap:round;stroke-linejoin:round;stroke-miterlimit:4;stroke-dasharray:none;stroke-dashoffset:0;stroke-opacity:1" />
  <path
     sodipodi:nodetypes="cc"
     inkscape:connector-curvature="0"
     id="path3313"
     d="m 230.60256,361.69824 c 2.84074,2.36855 6.7063,2.57358 12.48366,-1.25742"
     style="opacity:1;vector-effect:none;fill:none;fill-opacity:1;stroke:#8b4513;stroke-width:1.58360052;stroke-linecap:round;stroke-linejoin:round;stroke-miterlimit:4;stroke-dasharray:none;stroke-dashoffset:0;stroke-opacity:1" />
  <path
     style="display:inline;opacity:1;fill:#ffdab9;fill-opacity:1;fill-rule:nonzero;stroke:none;stroke-width:0.59010035;stroke-linecap:round;stroke-linejoin:miter;stroke-miterlimit:4;stroke-dasharray:none;stroke-dashoffset:0;stroke-opacity:1;paint-order:normal"
     d="m 178.19774,287.53875 c -0.29987,2.09973 19.62104,-10.91937 14.72719,-19.23063 -2.96753,-5.03969 -14.82926,3.28271 -14.81555,3.29017 z"
     id="path3315"
     inkscape:connector-curvature="0"
     sodipodi:nodetypes="cscc"
     inkscape:export-xdpi="96"
     inkscape:export-ydpi="96" />
  <path
     style="opacity:1;fill:none;fill-opacity:1;fill-rule:nonzero;stroke:#8b4513;stroke-width:1.58360052;stroke-linecap:round;stroke-linejoin:round;stroke-miterlimit:4;stroke-dasharray:none;stroke-dashoffset:0;stroke-opacity:1"
     d="m 165.06502,256.71888 c 0.616,7.91475 2.67722,11.3747 7.45831,14.53993 5.67382,3.75613 17.54597,-9.49715 20.15899,-3.21428 4.63641,11.14799 -18.11398,25.97543 -29.2639,21.34408 -11.25556,-4.67527 -17.0709,-23.26141 -16.89817,-36.74038 0.18128,-14.14549 15.41146,-27.38856 15.41146,-27.38856"
     id="path3317"
     inkscape:connector-curvature="0"
     sodipodi:nodetypes="cssssc"
     inkscape:export-xdpi="96"
     inkscape:export-ydpi="96" />
  <path
     style="opacity:1;fill:none;fill-opacity:1;fill-rule:nonzero;stroke:#8b4513;stroke-width:1.58360052;stroke-linecap:round;stroke-linejoin:round;stroke-miterlimit:4;stroke-dasharray:none;stroke-dashoffset:0;stroke-opacity:1;paint-order:normal"
     d="m 178.19774,287.53875 -0.0884,-15.94046"
     id="path3319"
     inkscape:connector-curvature="0"
     inkscape:export-xdpi="96"
     inkscape:export-ydpi="96" />
  <path
     style="opacity:1;vector-effect:none;fill:#ffdab9;fill-opacity:1;stroke:none;stroke-width:1.58350098;stroke-linecap:round;stroke-linejoin:miter;stroke-miterlimit:4;stroke-dasharray:none;stroke-dashoffset:0;stroke-opacity:1"
     d="m 175.92784,229.88837 c -0.0524,0.1745 21.93099,21.32289 28.99153,20.37554 9.27523,-1.77268 18.84604,-20.30857 18.39625,-20.60843 z"
     id="path3321"
     inkscape:connector-curvature="0"
     sodipodi:nodetypes="cccc" />
  <path
     sodipodi:nodetypes="ccc"
     inkscape:connector-curvature="0"
     id="path3323"
     d="m 175.92784,229.88837 c 0,0 20.14271,20.72488 29.5737,20.49199 9.57397,-1.72989 18.12389,-20.53126 17.81408,-20.72488"
     style="opacity:1;vector-effect:none;fill:none;fill-opacity:1;stroke:#8b4513;stroke-width:1.58350098;stroke-linecap:round;stroke-linejoin:round;stroke-miterlimit:4;stroke-dasharray:none;stroke-dashoffset:0;stroke-opacity:1" />
  <path
     style="display:inline;opacity:1;fill:#ffdab9;fill-opacity:1;fill-rule:nonzero;stroke:none;stroke-width:0.79803497;stroke-linecap:round;stroke-linejoin:miter;stroke-miterlimit:4;stroke-dasharray:none;stroke-dashoffset:0;stroke-opacity:1"
     d="M 323.72047,107.45556 C 333.17843,180.66328 241.61316,235.10805 197.61249,234.18497 154.20587,233.27449 65.152672,175.6632 77.962956,110.91688 120.26706,11.609818 322.09545,54.946818 323.72047,107.45556 Z"
     id="path3327"
     inkscape:connector-curvature="0"
     sodipodi:nodetypes="csccc"
     inkscape:export-xdpi="96"
     inkscape:export-ydpi="96" />
  <ellipse
     style="display:inline;opacity:1;fill:#ffdab9;fill-opacity:1;fill-rule:nonzero;stroke:none;stroke-width:1.05057013;stroke-linecap:round;stroke-linejoin:miter;stroke-miterlimit:4;stroke-dasharray:none;stroke-dashoffset:0;stroke-opacity:1;paint-order:normal"
     id="ellipse3329"
     cx="314.55045"
     cy="156.68398"
     rx="5.6307063"
     ry="8.5801229"
     inkscape:export-xdpi="96"
     inkscape:export-ydpi="96" />
  <path
     style="display:inline;opacity:1;fill:#ffdab9;fill-opacity:1;fill-rule:nonzero;stroke:none;stroke-width:0.79803497;stroke-linecap:round;stroke-linejoin:miter;stroke-miterlimit:4;stroke-dasharray:none;stroke-dashoffset:0;stroke-opacity:1;paint-order:normal"
     d="m 312.73635,158.50451 c -1.49014,-0.38904 -1.84145,-1.43851 -1.45249,-2.92865 0.38895,-1.49005 1.91227,-2.38278 3.40241,-1.99373"
     id="path3331"
     inkscape:connector-curvature="0"
     sodipodi:nodetypes="csc"
     inkscape:export-xdpi="96"
     inkscape:export-ydpi="96" />
  <path
     id="path3333"
     d="m 310.20111,164.52105 c 0.12494,0.16653 5.57562,17.11873 5.57562,17.11873 l 2.08266,-16.5118 c -2.4085,0.40653 -4.98636,0.0979 -7.65828,-0.60693 z"
     style="display:inline;opacity:1;fill:#ff4500;fill-opacity:1;fill-rule:nonzero;stroke:none;stroke-width:1.22911251;stroke-linecap:round;stroke-linejoin:bevel;stroke-miterlimit:4;stroke-dasharray:none;stroke-dashoffset:0;stroke-opacity:1;paint-order:normal"
     inkscape:connector-curvature="0" />
  <path
     sodipodi:nodetypes="cccccc"
     inkscape:connector-curvature="0"
     id="path3337"
     d="m 135.54022,141.53841 c -9.977,-0.59415 -12.23791,-1.58308 -16.63662,-4.1618 1.40522,2.36632 6.99541,5.33982 9.70818,5.48327 -4.24116,1.28083 -10.57266,-3.29222 -13.83104,-4.95977 3.69971,3.40524 6.62698,6.70141 13.29736,8.16642 z"
     style="opacity:1;vector-effect:none;fill:#8b4513;fill-opacity:1;stroke:none;stroke-width:0.51363647;stroke-linecap:round;stroke-linejoin:round;stroke-miterlimit:4;stroke-dasharray:none;stroke-dashoffset:0;stroke-opacity:1;paint-order:normal" />
  <path
     id="path3341"
     d="m 260.23779,44.547163 -0.27922,0.137455 -5.86085,-1.55119 -0.14958,-0.3243 -0.25708,-0.07031 C 231.96271,36.687204 211.5168,34.554812 184.4292,35.666283 147.17034,37.194921 104.58426,49.090972 86.592172,73.215436 74.777865,89.056601 68.273726,105.86518 71.332381,134.81557 c -0.161816,5.67706 4.181411,16.7904 9.22203,26.17385 0.757793,1.41082 -6.868784,1.44563 -6.888335,3.04338 -0.0086,0.7154 8.361681,0.28228 9.262777,1.54081 7.218981,10.08299 16.046001,24.17317 20.772517,28.04712 1.21351,0.99451 -5.988801,-12.26863 -9.763053,-20.03641 -2.187348,-4.50197 -4.376342,-8.15974 -4.723744,-8.64113 4.83701,-1.50094 29.067237,-8.48412 29.067257,-8.48412 8.63535,-2.78854 27.8412,-15.38464 27.8412,-15.38464 12.80173,-0.40945 18.31367,-0.52049 35.28145,-11.01859 6.17805,-3.82241 11.16633,-6.17491 15.58882,-9.19515 21.03348,-14.36423 28.72637,-21.600454 42.90765,-24.975598 9.41463,-1.968184 27.48124,-1.983961 29.08024,0.894871 6.16395,12.607417 31.68874,38.722447 38.00135,48.505747 4.54433,7.04286 7.8393,-1.32447 11.81236,4.41896 0,0 10.18855,-24.36045 6.35731,-45.52265 C 323.08147,92.744213 316.26781,74.874668 303.51128,65.396808 289.31561,54.849494 276.87665,49.228684 260.23779,44.547506 Z"
     style="display:inline;opacity:1;fill:#eb4e14;fill-opacity:1;fill-rule:nonzero;stroke:none;stroke-width:1.22911251;stroke-linecap:round;stroke-linejoin:bevel;stroke-miterlimit:4;stroke-dasharray:none;stroke-dashoffset:0;stroke-opacity:1;paint-order:normal"
     inkscape:connector-curvature="0" />
  <path
     style="opacity:1;fill:none;fill-opacity:1;fill-rule:nonzero;stroke:#8b4513;stroke-width:1.58360052;stroke-linecap:round;stroke-linejoin:round;stroke-miterlimit:4;stroke-dasharray:none;stroke-dashoffset:0;stroke-opacity:1;paint-order:normal"
     d="m 310.44301,151.33534 c 0,0 0.28117,-3.63076 3.6708,-3.63076 3.38981,0 6.13762,4.07443 6.13762,9.10057 0,5.02615 -2.74781,9.10065 -6.13762,9.10065 -3.38963,0 -4.9578,-5.66857 -4.9578,-5.66857"
     id="path3343"
     inkscape:connector-curvature="0"
     sodipodi:nodetypes="ccscc"
     inkscape:export-xdpi="96"
     inkscape:export-ydpi="96" />
  <path
     style="display:inline;opacity:1;fill:none;fill-opacity:1;fill-rule:nonzero;stroke:#8b4513;stroke-width:1.58350098;stroke-linecap:round;stroke-linejoin:round;stroke-miterlimit:4;stroke-dasharray:none;stroke-dashoffset:0;stroke-opacity:1"
     d="m 89.433052,165.03794 c 20.919038,39.2715 82.399728,69.41936 109.875668,69.41936 27.80506,0 89.94674,-29.96822 110.61868,-70.01231"
     id="path3345"
     inkscape:connector-curvature="0"
     sodipodi:nodetypes="csc"
     inkscape:export-xdpi="96"
     inkscape:export-ydpi="96" />
  <path
     style="display:inline;opacity:1;fill:none;fill-opacity:1;fill-rule:nonzero;stroke:#8b4513;stroke-width:1.58360052;stroke-linecap:round;stroke-linejoin:round;stroke-miterlimit:4;stroke-dasharray:none;stroke-dashoffset:0;stroke-opacity:1;paint-order:normal"
     d="m 312.73635,158.50451 c -1.49014,-0.38904 -1.84145,-1.43843 -1.45249,-2.92865 0.38904,-1.49005 1.91227,-2.38278 3.40241,-1.99373"
     id="path3347"
     inkscape:connector-curvature="0"
     sodipodi:nodetypes="csc"
     inkscape:export-xdpi="96"
     inkscape:export-ydpi="96" />
  <path
     style="display:inline;opacity:1;fill:none;fill-opacity:1;fill-rule:nonzero;stroke:#8b4513;stroke-width:1.22911251;stroke-linecap:round;stroke-linejoin:round;stroke-miterlimit:4;stroke-dasharray:none;stroke-dashoffset:0;stroke-opacity:1;paint-order:normal"
     d="M 195.86458,85.868217 C 183.4574,125.64357 111.80444,171.56409 70.333566,164.28353 102.89275,157.25782 130.52951,143.8742 141.92285,109.50932"
     id="path3349"
     inkscape:connector-curvature="0"
     sodipodi:nodetypes="ccc"
     inkscape:export-xdpi="96"
     inkscape:export-ydpi="96" />
  <path
     style="opacity:1;fill:none;fill-opacity:1;fill-rule:nonzero;stroke:#8b4513;stroke-width:1.22911251;stroke-linecap:round;stroke-linejoin:round;stroke-miterlimit:4;stroke-dasharray:none;stroke-dashoffset:0;stroke-opacity:1;paint-order:normal"
     d="m 146.58453,141.14183 c 42.61476,1.5848 58.0123,-41.235394 72.92117,-65.928713"
     id="path3351"
     inkscape:connector-curvature="0"
     sodipodi:nodetypes="cc"
     inkscape:export-xdpi="96"
     inkscape:export-ydpi="96" />
  <path
     style="opacity:1;fill:none;fill-opacity:1;fill-rule:nonzero;stroke:#8b4513;stroke-width:1.22911251;stroke-linecap:round;stroke-linejoin:round;stroke-miterlimit:4;stroke-dasharray:none;stroke-dashoffset:0;stroke-opacity:1;paint-order:normal"
     d="m 94.112601,172.61622 c 2.954625,9.81845 8.838029,18.53864 14.179919,27.46196 -1.31074,-1.63848 -14.621866,-16.87735 -25.071067,-34.6578 m -2.472248,-3.7671 c -5.748677,-9.78209 -8.979901,-18.12593 -9.41673,-25.50595 -1.931466,-32.63329 3.07728,-54.184525 25.638945,-73.920212 24.8745,-21.758751 82.01374,-30.139545 114.87585,-26.637837 15.12221,1.611299 27.1741,3.250809 41.69051,7.178773 m 6.29827,1.88355 c 29.3778,7.949223 51.80075,20.653968 61.22647,44.21335 14.40702,36.010056 -4.22457,50.267356 -1.25098,64.603896"
     id="path3353"
     inkscape:connector-curvature="0"
     sodipodi:nodetypes="ccccsssccsc"
     inkscape:export-xdpi="96"
     inkscape:export-ydpi="96" />
  <path
     inkscape:connector-curvature="0"
     id="path3355"
     d="m 192.72766,31.985532 c -28.03275,0.268135 -86.91207,0.654689 -116.009831,48.179472 a 2.5170398,2.5170398 0 1 0 4.29296,2.628189 C 108.5304,37.846094 164.73471,37.287358 192.77682,37.019136 c 32.20515,-0.308179 82.97026,6.325662 106.29825,26.4377 10.97847,9.464997 14.51739,29.125312 14.85498,46.578634 0.33759,17.45324 -2.28416,32.38555 -2.28416,32.38555 a 2.5170398,2.5170398 0 1 0 4.9566,0.87344 c 0,0 2.70956,-15.34451 2.36108,-33.35734 C 318.61518,91.924372 315.45123,70.930155 302.36036,59.643946 276.78703,37.596138 225.63026,31.67075 192.72766,31.985532 Z"
     style="color:#000000;font-style:normal;font-variant:normal;font-weight:normal;font-stretch:normal;font-size:medium;line-height:normal;font-family:sans-serif;font-variant-ligatures:normal;font-variant-position:normal;font-variant-caps:normal;font-variant-numeric:normal;font-variant-alternates:normal;font-feature-settings:normal;text-indent:0;text-align:start;text-decoration:none;text-decoration-line:none;text-decoration-style:solid;text-decoration-color:#000000;letter-spacing:normal;word-spacing:normal;text-transform:none;writing-mode:lr-tb;direction:ltr;text-orientation:mixed;dominant-baseline:auto;baseline-shift:baseline;text-anchor:start;white-space:normal;shape-padding:0;clip-rule:nonzero;display:inline;overflow:visible;visibility:visible;opacity:1;isolation:auto;mix-blend-mode:normal;color-interpolation:sRGB;color-interpolation-filters:linearRGB;solid-color:#000000;solid-opacity:1;vector-effect:none;fill:#808080;fill-opacity:1;fill-rule:nonzero;stroke:#8b4513;stroke-width:1.51007283;stroke-linecap:round;stroke-linejoin:round;stroke-miterlimit:4;stroke-dasharray:none;stroke-dashoffset:0;stroke-opacity:1;paint-order:fill markers stroke;color-rendering:auto;image-rendering:auto;shape-rendering:auto;text-rendering:auto;enable-background:accumulate" />
  <path
     style="opacity:1;fill:none;fill-opacity:1;fill-rule:nonzero;stroke:#8b4513;stroke-width:1.22911251;stroke-linecap:round;stroke-linejoin:round;stroke-miterlimit:4;stroke-dasharray:none;stroke-dashoffset:0;stroke-opacity:1;paint-order:normal"
     d="m 183.98794,129.06742 c 26.97167,-14.69934 49.57234,-43.44813 84.52575,-32.491882"
     id="path3357"
     inkscape:connector-curvature="0"
     sodipodi:nodetypes="cc"
     inkscape:export-xdpi="96"
     inkscape:export-ydpi="96" />
  <path
     style="opacity:1;fill:none;fill-opacity:1;fill-rule:nonzero;stroke:#8b4513;stroke-width:1.22911251;stroke-linecap:round;stroke-linejoin:round;stroke-miterlimit:4;stroke-dasharray:none;stroke-dashoffset:0;stroke-opacity:1;paint-order:normal"
     d="m 264.98196,87.628547 c 6.38778,18.516943 30.32233,41.300733 45.23459,61.784833"
     id="path3359"
     inkscape:connector-curvature="0"
     sodipodi:nodetypes="cc"
     inkscape:export-xdpi="96"
     inkscape:export-ydpi="96" />
  <path
     style="opacity:1;fill:none;fill-opacity:1;fill-rule:nonzero;stroke:#8b4513;stroke-width:1.22911251;stroke-linecap:round;stroke-linejoin:round;stroke-miterlimit:4;stroke-dasharray:none;stroke-dashoffset:0;stroke-opacity:1;paint-order:normal"
     d="m 300.06367,94.456523 c -5.29485,13.311077 6.61618,38.488437 10.3597,54.623897"
     id="path3361"
     inkscape:connector-curvature="0"
     sodipodi:nodetypes="cc"
     inkscape:export-xdpi="96"
     inkscape:export-ydpi="96" />
  <path
     style="opacity:1;fill:none;fill-opacity:1;fill-rule:nonzero;stroke:#8b4513;stroke-width:1.22911251;stroke-linecap:round;stroke-linejoin:round;stroke-miterlimit:4;stroke-dasharray:none;stroke-dashoffset:0;stroke-opacity:1;paint-order:normal"
     d="m 313.24878,113.52783 c -3.71033,6.14971 -3.13222,20.34022 -1.88355,35.78805"
     id="path3363"
     inkscape:connector-curvature="0"
     sodipodi:nodetypes="cc"
     inkscape:export-xdpi="96"
     inkscape:export-ydpi="96" />
  <path
     style="opacity:1;fill:none;fill-opacity:1;fill-rule:nonzero;stroke:#8b4513;stroke-width:1.22888029;stroke-linecap:round;stroke-linejoin:round;stroke-miterlimit:4;stroke-dasharray:none;stroke-dashoffset:0;stroke-opacity:1;paint-order:normal"
     d="m 310.24098,165.11598 5.49408,16.73192 c 0.82584,-6.07931 0.31384,-11.41544 2.91347,-18.48008"
     id="path3365"
     inkscape:connector-curvature="0"
     sodipodi:nodetypes="ccc"
     inkscape:export-xdpi="96"
     inkscape:export-ydpi="96" />
  <path
     inkscape:connector-curvature="0"
     id="path3367"
     d="m 310.26465,162.75858 c 0,0 -4.86674,5.76187 -11.49271,12.16616 -6.62592,6.40412 -15.09561,13.40514 -21.67124,15.79863 -2.53133,0.92145 -7.57682,1.17819 -11.8122,1.07657 -4.23536,-0.10152 -7.72405,-0.47521 -7.72405,-0.47521 l -0.35719,3.33767 c 0,0 3.61264,0.38638 8.00095,0.49168 4.38833,0.10521 9.48888,0.0154 13.0411,-1.27817 7.62951,-2.77705 16.09539,-10.00495 22.85424,-16.5377 6.75894,-6.53265 11.72541,-12.41517 11.72541,-12.41517 z"
     style="color:#000000;font-style:normal;font-variant:normal;font-weight:normal;font-stretch:normal;font-size:medium;line-height:normal;font-family:sans-serif;font-variant-ligatures:normal;font-variant-position:normal;font-variant-caps:normal;font-variant-numeric:normal;font-variant-alternates:normal;font-feature-settings:normal;text-indent:0;text-align:start;text-decoration:none;text-decoration-line:none;text-decoration-style:solid;text-decoration-color:#000000;letter-spacing:normal;word-spacing:normal;text-transform:none;writing-mode:lr-tb;direction:ltr;text-orientation:mixed;dominant-baseline:auto;baseline-shift:baseline;text-anchor:start;white-space:normal;shape-padding:0;clip-rule:nonzero;display:inline;overflow:visible;visibility:visible;opacity:1;isolation:auto;mix-blend-mode:normal;color-interpolation:sRGB;color-interpolation-filters:linearRGB;solid-color:#000000;solid-opacity:1;vector-effect:none;fill:#808080;fill-opacity:1;fill-rule:nonzero;stroke:#8b4513;stroke-width:1.51007283;stroke-linecap:round;stroke-linejoin:round;stroke-miterlimit:4;stroke-dasharray:none;stroke-dashoffset:0;stroke-opacity:1;paint-order:fill markers stroke;color-rendering:auto;image-rendering:auto;shape-rendering:auto;text-rendering:auto;enable-background:accumulate" />
  <rect
     ry="2.8940804"
     y="190.22499"
     x="256.10333"
     height="5.7881608"
     width="10.507359"
     id="rect3369"
     style="opacity:1;vector-effect:none;fill:#2b0000;fill-opacity:1;stroke:#8b4513;stroke-width:1.51007283;stroke-linecap:round;stroke-linejoin:round;stroke-miterlimit:4;stroke-dasharray:none;stroke-dashoffset:0;stroke-opacity:1;paint-order:fill markers stroke" />
  <ellipse
     ry="14.584615"
     rx="8.0644341"
     cy="157.42935"
     cx="314.4715"
     id="ellipse3371"
     style="opacity:1;vector-effect:none;fill:#808080;fill-opacity:1;stroke:#8b4513;stroke-width:1.51007283;stroke-linecap:round;stroke-linejoin:round;stroke-miterlimit:4;stroke-dasharray:none;stroke-dashoffset:0;stroke-opacity:1;paint-order:fill markers stroke" />
  <path
     sodipodi:nodetypes="cccccccccc"
     inkscape:connector-curvature="0"
     id="path3373"
     d="m 264.27913,28.500544 c -3.4168,4.771643 -8.73486,9.377277 -10.53301,15.452639 l -0.53499,-0.146972 0.14959,0.324386 c 1.7138,3.155028 3.68477,3.481301 5.86086,1.551103 l 0.27921,-0.137454 c -0.18568,-0.05231 -0.35649,-0.108386 -0.54323,-0.160436 h -0.009 c 0.89833,-5.7039 3.43979,-11.264085 5.33022,-16.881122 z"
     style="display:inline;opacity:1;fill:#eb4e14;fill-opacity:1;fill-rule:nonzero;stroke:none;stroke-width:1.22911251;stroke-linecap:round;stroke-linejoin:bevel;stroke-miterlimit:4;stroke-dasharray:none;stroke-dashoffset:0;stroke-opacity:1;paint-order:normal" />
  <path
     style="opacity:1;fill:none;fill-opacity:1;fill-rule:nonzero;stroke:#8b4513;stroke-width:1.22911251;stroke-linecap:round;stroke-linejoin:round;stroke-miterlimit:4;stroke-dasharray:none;stroke-dashoffset:0;stroke-opacity:1;paint-order:normal"
     d="m 252.97411,46.425225 c 2.26201,-8.295046 8.457,-15.115048 14.1269,-22.132185 -3.80068,8.225161 -9.04223,16.234579 -7.06345,24.015735"
     id="path3375"
     inkscape:connector-curvature="0"
     sodipodi:nodetypes="ccc"
     inkscape:export-xdpi="96"
     inkscape:export-ydpi="96" />
  <path
     style="opacity:1;vector-effect:none;fill:#550000;fill-opacity:1;stroke:none;stroke-width:1.65823317;stroke-linecap:round;stroke-linejoin:round;stroke-miterlimit:4;stroke-dasharray:none;stroke-dashoffset:0;stroke-opacity:1;paint-order:normal"
     d="m 160.44975,185.92599 c 7.50691,-4.45326 69.17352,-5.77274 85.38846,0 -1.34761,21.95446 -26.05671,28.43491 -46.11021,28.09976 -16.45024,-0.27494 -37.26098,-8.62601 -39.27825,-28.09976 z"
     id="path3377"
     inkscape:connector-curvature="0"
     sodipodi:nodetypes="ccsc" />
  <path
     style="fill:#f08080;fill-opacity:1;stroke:none;stroke-width:0.29946208px;stroke-linecap:butt;stroke-linejoin:miter;stroke-opacity:1"
     d="m 174.59469,207.80318 c 15.94488,-3.98055 31.75556,-5.56866 56.42543,-0.52087 -7.44154,8.72528 -54.60418,6.95534 -56.42543,0.52087 z"
     id="path3379"
     inkscape:connector-curvature="0"
     sodipodi:nodetypes="ccc" />
  <path
     sodipodi:nodetypes="cac"
     inkscape:connector-curvature="0"
     id="path3383"
     d="m 174.31007,207.33242 c 0,0 19.23695,-2.792 28.91303,-2.84244 9.4832,-0.0494 28.35948,2.49024 28.35948,2.49024"
     style="opacity:1;vector-effect:none;fill:none;fill-opacity:1;stroke:#8b4513;stroke-width:1.65823317;stroke-linecap:round;stroke-linejoin:round;stroke-miterlimit:4;stroke-dasharray:none;stroke-dashoffset:0;stroke-opacity:1;paint-order:normal" />
  <path
     inkscape:connector-curvature="0"
     id="path5086"
     d="m 159.47029,186.58707 86.39289,-0.0808 c -13.74634,-6.19136 -67.13833,-5.4307 -86.39289,0.0808 z"
     style="display:inline;opacity:1;vector-effect:none;fill:#ffffff;fill-opacity:1;stroke:none;stroke-width:1.77215135;stroke-linecap:round;stroke-linejoin:miter;stroke-miterlimit:4;stroke-dasharray:none;stroke-dashoffset:0;stroke-opacity:1;paint-order:normal"
     sodipodi:nodetypes="ccc" />
  <path
     sodipodi:nodetypes="ccccc"
     inkscape:connector-curvature="0"
     id="path5088"
     d="m 246.17947,186.27572 c 0.0384,0.14592 -86.44981,0.33008 -86.44981,0.33008 -0.13601,0.45794 -0.021,0.40203 -0.16748,1.05621 l 86.64073,-0.1226 c -0.15749,-0.92363 -0.0235,-1.26369 -0.0235,-1.26369 z"
     style="color:#000000;font-style:normal;font-variant:normal;font-weight:normal;font-stretch:normal;font-size:medium;line-height:normal;font-family:sans-serif;font-variant-ligatures:normal;font-variant-position:normal;font-variant-caps:normal;font-variant-numeric:normal;font-variant-alternates:normal;font-feature-settings:normal;text-indent:0;text-align:start;text-decoration:none;text-decoration-line:none;text-decoration-style:solid;text-decoration-color:#000000;letter-spacing:normal;word-spacing:normal;text-transform:none;writing-mode:lr-tb;direction:ltr;text-orientation:mixed;dominant-baseline:auto;baseline-shift:baseline;text-anchor:start;white-space:normal;shape-padding:0;clip-rule:nonzero;display:inline;overflow:visible;visibility:visible;opacity:1;isolation:auto;mix-blend-mode:normal;color-interpolation:sRGB;color-interpolation-filters:linearRGB;solid-color:#000000;solid-opacity:1;vector-effect:none;fill:#8b4513;fill-opacity:1;fill-rule:nonzero;stroke:none;stroke-width:1.77215135;stroke-linecap:round;stroke-linejoin:miter;stroke-miterlimit:4;stroke-dasharray:none;stroke-dashoffset:0;stroke-opacity:1;paint-order:normal;color-rendering:auto;image-rendering:auto;shape-rendering:auto;text-rendering:auto;enable-background:accumulate" />
  <path
     sodipodi:nodetypes="ccsc"
     inkscape:connector-curvature="0"
     id="path3381"
     d="m 159.77177,185.47911 c 25.89535,-3.3435 52.23113,-6.15912 85.93085,-0.14896 0.9575,21.0607 -25.92112,29.03075 -45.97462,28.6956 -16.45024,-0.27494 -37.93896,-7.13641 -39.95623,-28.54664 z"
     style="opacity:1;vector-effect:none;fill:none;fill-opacity:1;stroke:#8b4513;stroke-width:1.65823317;stroke-linecap:round;stroke-linejoin:round;stroke-miterlimit:4;stroke-dasharray:none;stroke-dashoffset:0;stroke-opacity:1;paint-order:normal" />
  <path
     inkscape:connector-curvature="0"
     id="path1467"
     d="m 262.07059,139.6565 c -3.02829,0.10867 -4.00685,0.31124 -6.11369,1.04781 -1.84719,2.59608 -3.60212,8.35913 -3.69961,11.1721 -0.13677,3.06582 0.48945,6.67655 2.25424,9.58987 1.07597,1.92886 3.314,-0.92174 8.79684,-0.21537 5.04775,0.65031 6.98155,2.3991 7.7177,0.40117 1.24524,-1.97359 1.98628,-4.24262 2.22646,-6.25083 0.51827,-3.94281 -0.066,-8.69014 -2.61121,-12.19485 -1.31915,-0.46964 -1.77491,-2.79728 -3.46767,-3.0963 -1.10829,-0.14781 -3.94382,-0.45204 -5.10306,-0.4536 z"
     style="display:inline;opacity:1;fill:#00ad00;fill-opacity:1;fill-rule:nonzero;stroke:none;stroke-width:1.36263371;stroke-linecap:round;stroke-linejoin:miter;stroke-miterlimit:4;stroke-dasharray:none;stroke-dashoffset:0;stroke-opacity:1;paint-order:normal"
     sodipodi:nodetypes="ccccsccccc" />
  <path
     style="opacity:1;vector-effect:none;fill:#8b4513;fill-opacity:1;stroke:none;stroke-width:0.65520114;stroke-linecap:round;stroke-linejoin:round;stroke-miterlimit:4;stroke-dasharray:none;stroke-dashoffset:0;stroke-opacity:1;paint-order:normal"
     d="m 266.49573,141.6925 c 12.72678,-0.75791 15.61076,-2.0194 21.22188,-5.30884 -1.79249,3.0185 -8.92341,6.81153 -12.38388,6.99452 5.41013,1.63384 13.4866,-4.1996 17.643,-6.32675 -4.71934,4.34377 -6.14002,7.91749 -14.64883,9.78627 z"
     id="path1469"
     inkscape:connector-curvature="0"
     sodipodi:nodetypes="cccccc" />
  <path
     sodipodi:nodetypes="ccc"
     inkscape:connector-curvature="0"
     id="path1471"
     d="m 243.2092,156.98357 c 4.02357,-24.80944 34.65274,-16.79155 41.92952,0 -4.06139,-24.89544 -43.38965,-26.61599 -41.92952,0 z"
     style="display:inline;opacity:1;fill:#8b4513;fill-opacity:1;fill-rule:nonzero;stroke:none;stroke-width:2.40482306;stroke-linecap:round;stroke-linejoin:miter;stroke-miterlimit:4;stroke-dasharray:none;stroke-dashoffset:0;stroke-opacity:1;paint-order:normal" />
  <path
     id="path1473"
     d="m 149.75141,141.5201 c -1.21016,0.0494 -2.46681,0.091 -3.8188,0.13427 0,0 -6.50651,4.2627 -13.61257,8.35364 -0.3303,1.99154 -0.3339,4.01718 -0.0909,5.86599 0.24027,2.0082 0.98096,4.27703 2.22629,6.25063 0.73606,1.99791 2.67003,0.24926 7.7177,-0.40103 5.48293,-0.70638 7.72087,2.14421 8.79685,0.21535 1.7647,-2.91331 2.39126,-6.52412 2.25458,-9.58994 -0.0935,-2.69742 -1.71163,-8.09986 -3.47316,-10.82891 z"
     style="display:inline;opacity:1;fill:#00ad00;fill-opacity:1;fill-rule:nonzero;stroke:none;stroke-width:1.36263371;stroke-linecap:round;stroke-linejoin:miter;stroke-miterlimit:4;stroke-dasharray:none;stroke-dashoffset:0;stroke-opacity:1;paint-order:normal"
     inkscape:connector-curvature="0" />
  <path
     id="path1475"
     d="m 152.89126,141.3557 c -2.12733,0.14571 -4.39366,0.21663 -6.95865,0.29867 0,0 -0.26102,0.16911 -0.37755,0.24505 6.94828,0.94242 12.84065,5.60817 14.45401,15.5565 0.42197,-7.69189 -2.56225,-13.01697 -7.11781,-16.10022 z m -34.54984,15.52995 c -6.9e-4,2e-4 -0.16721,0.0484 -0.17012,0.0492 -0.0317,0.17269 -0.0626,0.34609 -0.0913,0.52109 0.0832,-0.19176 0.17236,-0.38086 0.26145,-0.57028 z"
     style="display:inline;opacity:1;fill:#8b4513;fill-opacity:1;fill-rule:nonzero;stroke:none;stroke-width:2.40482306;stroke-linecap:round;stroke-linejoin:miter;stroke-miterlimit:4;stroke-dasharray:none;stroke-dashoffset:0;stroke-opacity:1;paint-order:normal"
     inkscape:connector-curvature="0" />
</svg>
