<?xml version="1.0" encoding="UTF-8" standalone="no"?>
<!-- Created with Inkscape (http://www.inkscape.org/) -->

<svg
   xmlns:dc="http://purl.org/dc/elements/1.1/"
   xmlns:cc="http://creativecommons.org/ns#"
   xmlns:rdf="http://www.w3.org/1999/02/22-rdf-syntax-ns#"
   xmlns:svg="http://www.w3.org/2000/svg"
   xmlns="http://www.w3.org/2000/svg"
   xmlns:sodipodi="http://sodipodi.sourceforge.net/DTD/sodipodi-0.dtd"
   xmlns:inkscape="http://www.inkscape.org/namespaces/inkscape"
   width="2100"
   height="2500"
   viewBox="0 0 555.62499 661.45834"
   version="1.1"
   id="svg8"
   sodipodi:docname="ChibiSteph.svg"
   inkscape:version="0.92.1 r15371">
  <defs
     id="defs2" />
  <sodipodi:namedview
     id="base"
     pagecolor="#ffffff"
     bordercolor="#666666"
     borderopacity="1.0"
     inkscape:pageopacity="0.0"
     inkscape:pageshadow="2"
     inkscape:zoom="0.35"
     inkscape:cx="400"
     inkscape:cy="560"
     inkscape:document-units="px"
     inkscape:current-layer="layer1"
     showgrid="false"
     units="px"
     inkscape:showpageshadow="false"
     borderlayer="true"
     inkscape:snap-path-clip="true"
     inkscape:snap-path-mask="true"
     inkscape:pagecheckerboard="true"
     inkscape:object-nodes="false" />
  <metadata
     id="metadata5">
    <rdf:RDF>
      <cc:Work
         rdf:about="">
        <dc:format>image/svg+xml</dc:format>
        <dc:type
           rdf:resource="http://purl.org/dc/dcmitype/StillImage" />
        <dc:title />
        <dc:creator>
          <cc:Agent>
            <dc:title>Oz Locke</dc:title>
          </cc:Agent>
        </dc:creator>
        <dc:rights>
          <cc:Agent>
            <dc:title>All rights retained by Cuddly Cthulhu Creatives unless provable otherwise (transferal of rights will usualy be provided by email)</dc:title>
          </cc:Agent>
        </dc:rights>
        <dc:publisher>
          <cc:Agent>
            <dc:title>Cuddly Cthulhu Creatives</dc:title>
          </cc:Agent>
        </dc:publisher>
      </cc:Work>
    </rdf:RDF>
  </metadata>
  <g
     inkscape:label="Layer 1"
     inkscape:groupmode="layer"
     id="layer1"
     transform="translate(0,364.45836)">
    <g
       style="display:inline"
       id="g4909"
       transform="matrix(1.1645258,0,0,1.1645258,814.13629,407.29615)">
      <path
         inkscape:connector-curvature="0"
         id="path4897"
         d="m -443.91917,-651.66952 c -9.58776,0 -17.30642,11.3086 -17.30642,25.35556 v 33.56901 h -34.6129 c -9.58776,0 -17.30642,7.71868 -17.30642,17.30644 v 59.33643 c 0,9.58775 7.71866,17.30644 17.30642,17.30644 h 34.6129 v 393.03181 h 34.61287 v -393.03181 h 77.4392 6.62078 c 0.79944,0 1.58535,-0.0552 2.3554,-0.15917 12.2742,-0.39017 34.13336,-1.73659 46.07523,-6.37842 21.14663,-8.21961 55.17642,-18.08133 55.05143,-40.95202 -0.12396,-22.6876 -33.9048,-31.8053 -55.05143,-40.02495 -17.21324,-6.69074 -55.05141,-6.53758 -55.05141,-6.53758 v 0.10283 h -77.4392 v -33.56901 c 0,-14.04696 -7.71866,-25.35556 -17.30645,-25.35556 z"
         style="opacity:1;vector-effect:none;fill:#a05a2c;fill-opacity:1;stroke:#ffffff;stroke-width:16;stroke-linecap:round;stroke-linejoin:round;stroke-miterlimit:4;stroke-dasharray:none;stroke-dashoffset:0;stroke-opacity:1;paint-order:stroke markers fill" />
      <path
         inkscape:connector-curvature="0"
         id="rect1841"
         d="m -443.91921,-651.6693 c -9.58777,0 -17.30644,11.30849 -17.30644,25.35545 v 520.55003 h 34.61288 v -520.55003 c 0,-14.04696 -7.71867,-25.35545 -17.30644,-25.35545 z"
         style="opacity:1;vector-effect:none;fill:#b86733;fill-opacity:1;stroke:#8b4513;stroke-width:6;stroke-linecap:round;stroke-linejoin:round;stroke-miterlimit:4;stroke-dasharray:none;stroke-dashoffset:0;stroke-opacity:1;paint-order:stroke markers fill" />
      <path
         sodipodi:nodetypes="ccsssscsccssc"
         inkscape:connector-curvature="0"
         id="path1845"
         d="m -349.17355,-592.84797 v 0.10281 h -146.66503 c -9.58777,0 -17.30644,7.71868 -17.30644,17.30644 v 59.33653 c 0,9.58775 7.71867,17.30642 17.30644,17.30642 h 146.66503 6.62062 c 0.79943,0 1.58563,-0.0549 2.35568,-0.15883 12.2742,-0.39017 34.13316,-1.73686 46.07504,-6.37869 21.14662,-8.21961 55.17658,-18.08139 55.05159,-40.95208 -0.12395,-22.6876 -33.90497,-31.80543 -55.05159,-40.02508 -17.21325,-6.69074 -55.05134,-6.53752 -55.05134,-6.53752 z"
         style="opacity:1;vector-effect:none;fill:#b86733;fill-opacity:1;stroke:#8b4412;stroke-width:6;stroke-linecap:round;stroke-linejoin:round;stroke-miterlimit:4;stroke-dasharray:none;stroke-dashoffset:0;stroke-opacity:1;paint-order:stroke markers fill" />
      <g
         aria-label="Data Science"
         style="font-style:normal;font-variant:normal;font-weight:normal;font-stretch:normal;font-size:44.52335358px;line-height:1.25;font-family:'Berlin Sans FB';-inkscape-font-specification:'Berlin Sans FB';letter-spacing:0px;word-spacing:0px;fill:#ffffff;fill-opacity:1;stroke:#8b4412;stroke-width:4.23333311;stroke-miterlimit:4;stroke-dasharray:none;stroke-opacity:1;paint-order:markers stroke fill"
         id="text1856">
        <path
           d="m -490.05741,-563.97482 q 0.0435,-0.26088 0.15218,-0.36958 0.1087,-0.1087 2.19573,-0.30436 2.08703,-0.19566 5.7176,-0.19566 3.6523,0 5.6089,2.10877 1.95659,2.08704 1.95659,5.73934 0,6.89156 -1.54353,15.87014 -0.82612,4.76105 -2.67401,7.08722 -1.69572,2.13051 -5.30454,2.80445 -1.6305,0.28262 -3.97841,0.36957 l -5.41324,0.19566 q -0.47828,-0.0217 -0.47828,-0.41305 z m 4.97844,4.1958 -2.65227,23.67477 q 3.23925,-0.28261 4.47842,-1.26091 1.26092,-0.9783 1.76094,-3.71753 0.50001,-2.73923 0.97829,-7.47853 0.50002,-4.7393 0.50002,-7.76115 0,-1.78267 -0.8696,-2.65227 -0.86959,-0.8696 -2.36965,-0.8696 -1.47831,0 -1.82615,0.0652 z"
           style="font-style:normal;font-variant:normal;font-weight:normal;font-stretch:normal;font-family:'Contrail One';-inkscape-font-specification:'Contrail One';fill:#ffffff;stroke:#8b4412;stroke-width:4.23333311;stroke-miterlimit:4;stroke-dasharray:none;stroke-opacity:1;paint-order:markers stroke fill"
           id="path75" />
        <path
           d="m -451.57776,-556.47455 -2.82619,25.06613 q -0.0652,0.56523 -0.56523,0.58697 l -4.39147,0.15218 q -0.45653,-0.0435 -0.45653,-0.41305 l 0.41305,-2.95663 q -1.00003,1.69571 -2.19573,2.60879 -1.17395,0.91307 -2.65227,0.91307 -1.47831,0 -2.52183,-0.50001 -1.04351,-0.52176 -1.71745,-1.34788 -0.6522,-0.84786 -1.06526,-2.02181 -0.7609,-2.08703 -0.7609,-5.69586 0,-3.63057 0.47828,-6.1524 0.50002,-2.52183 0.8696,-3.82622 0.36958,-1.32614 0.9783,-2.71749 0.63045,-1.39136 1.41309,-2.32617 1.78267,-2.13052 4.50016,-2.13052 2.02182,0 3.08707,0.9783 1.06526,0.95656 1.78268,2.84793 l 0.26087,-2.95663 q 0.0435,-0.47828 0.5435,-0.52176 l 4.26103,-0.15218 q 0.56523,0.0435 0.56523,0.56524 z m -13.26135,15.76144 q 0,5.19584 2.78271,5.19584 1.21744,0 1.97834,-1.10873 0.76089,-1.13048 1.30439,-4.50017 0.56524,-3.36968 0.56524,-4.91322 0,-1.54353 -0.0217,-1.95659 -0.0217,-0.41306 -0.087,-1.087 -0.0652,-0.69567 -0.23914,-1.15221 -0.17392,-0.47828 -0.45654,-0.95656 -0.56524,-0.93482 -1.82615,-0.93482 -1.26092,0 -2.00007,1.13048 -0.73916,1.10874 -1.15222,2.97837 -0.84786,4.00014 -0.84786,7.30461 z"
           style="font-style:normal;font-variant:normal;font-weight:normal;font-stretch:normal;font-family:'Contrail One';-inkscape-font-specification:'Contrail One';fill:#ffffff;stroke:#8b4412;stroke-width:4.23333311;stroke-miterlimit:4;stroke-dasharray:none;stroke-opacity:1;paint-order:markers stroke fill"
           id="path77" />
        <path
           d="m -444.4688,-556.95283 q 0.50002,-4.78278 0.65219,-4.93496 0.15218,-0.17392 0.45654,-0.19566 l 4.15233,-0.15218 q 0.58698,0.0435 0.58698,0.5435 -0.41306,2.41313 -0.69568,4.6306 l 5.0654,-0.17392 q 0.52176,0.0217 0.52176,0.56524 l -0.60872,3.45665 q -0.087,0.52176 -0.5435,0.5435 l -4.97844,0.19566 q -1.47831,13.30483 -1.47831,14.67444 0,2.54357 2.17399,2.54357 1.10873,0 2.15225,-0.34784 1.04352,-0.34784 1.30439,-0.34784 0.45654,0 0.45654,0.56524 l -0.45654,3.80449 q -0.0435,0.3261 -0.17391,0.47828 -0.1087,0.15218 -1.06526,0.36957 -0.93482,0.2174 -3.21751,0.2174 -3.34795,0 -4.9567,-1.54353 -1.60875,-1.56527 -1.60875,-4.65234 0,-3.08707 1.71745,-15.69622 l -2.13051,0.087 q -0.5435,-0.0217 -0.5435,-0.5435 l 0.58698,-3.50013 q 0.0652,-0.50002 0.56523,-0.52176 z"
           style="font-style:normal;font-variant:normal;font-weight:normal;font-stretch:normal;font-family:'Contrail One';-inkscape-font-specification:'Contrail One';fill:#ffffff;stroke:#8b4412;stroke-width:4.23333311;stroke-miterlimit:4;stroke-dasharray:none;stroke-opacity:1;paint-order:markers stroke fill"
           id="path79" />
        <path
           d="m -412.4459,-556.47455 -2.82619,25.06613 q -0.0652,0.56523 -0.56524,0.58697 l -4.39146,0.15218 q -0.45654,-0.0435 -0.45654,-0.41305 l 0.41306,-2.95663 q -1.00004,1.69571 -2.19574,2.60879 -1.17395,0.91307 -2.65227,0.91307 -1.47831,0 -2.52183,-0.50001 -1.04351,-0.52176 -1.71745,-1.34788 -0.6522,-0.84786 -1.06526,-2.02181 -0.76089,-2.08703 -0.76089,-5.69586 0,-3.63057 0.47828,-6.1524 0.50001,-2.52183 0.86959,-3.82622 0.36958,-1.32614 0.9783,-2.71749 0.63046,-1.39136 1.41309,-2.32617 1.78268,-2.13052 4.50017,-2.13052 2.02181,0 3.08707,0.9783 1.06525,0.95656 1.78267,2.84793 l 0.26088,-2.95663 q 0.0435,-0.47828 0.5435,-0.52176 l 4.26102,-0.15218 q 0.56524,0.0435 0.56524,0.56524 z m -13.26135,15.76144 q 0,5.19584 2.78271,5.19584 1.21743,0 1.97833,-1.10873 0.7609,-1.13048 1.30439,-4.50017 0.56524,-3.36968 0.56524,-4.91322 0,-1.54353 -0.0217,-1.95659 -0.0217,-0.41306 -0.087,-1.087 -0.0652,-0.69567 -0.23914,-1.15221 -0.17392,-0.47828 -0.45653,-0.95656 -0.56524,-0.93482 -1.82616,-0.93482 -1.26091,0 -2.00007,1.13048 -0.73916,1.10874 -1.15222,2.97837 -0.84785,4.00014 -0.84785,7.30461 z"
           style="font-style:normal;font-variant:normal;font-weight:normal;font-stretch:normal;font-family:'Contrail One';-inkscape-font-specification:'Contrail One';fill:#ffffff;stroke:#8b4412;stroke-width:4.23333311;stroke-miterlimit:4;stroke-dasharray:none;stroke-opacity:1;paint-order:markers stroke fill"
           id="path81" />
        <path
           d="m -400.03241,-530.43013 q -0.5435,0 -0.5435,-0.52175 l 0.5435,-4.54365 q 0.087,-0.47828 0.56523,-0.52176 3.39143,-0.34783 4.47843,-1.06525 1.08699,-0.73916 1.08699,-2.91315 0,-2.17399 -1.10873,-5.65238 -1.10874,-3.50013 -1.43484,-4.65234 -1.04351,-3.69579 -1.04351,-6.0437 0,-2.36965 0.76089,-4.04362 0.7609,-1.67398 2.174,-2.67401 2.73923,-1.91312 7.36983,-1.91312 0.58698,0 0.58698,0.5435 l -0.58698,4.50016 q -0.087,0.5435 -0.5435,0.58698 -4.21754,0.28262 -4.21754,2.50009 0,2.04355 1.78267,8.04377 1.80441,5.97848 1.80441,8.56553 0,9.8047 -11.67433,9.8047 z"
           style="font-style:normal;font-variant:normal;font-weight:normal;font-stretch:normal;font-family:'Contrail One';-inkscape-font-specification:'Contrail One';fill:#ffffff;stroke:#8b4412;stroke-width:4.23333311;stroke-miterlimit:4;stroke-dasharray:none;stroke-opacity:1;paint-order:markers stroke fill"
           id="path83" />
        <path
           d="m -368.48778,-556.56151 q 0.47827,0.17392 0.47827,0.82612 l -0.50001,3.93492 q -0.0435,0.4348 -0.60872,0.4348 -0.5435,0 -1.04352,-0.2174 -2.10877,-0.93481 -3.50013,-0.93481 -1.39135,0 -2.21747,1.15221 -0.82611,1.15222 -1.32613,3.30447 -0.93482,4.02188 -0.93482,7.34809 0,5.34802 2.76097,5.34802 2.00007,0 3.23925,-0.50002 1.23917,-0.52175 1.60875,-0.52175 0.7609,0 0.7609,0.65219 l -0.45654,3.82623 q -0.0435,0.39132 -0.17392,0.47828 -0.1087,0.0652 -0.30436,0.15218 -2.63053,0.76089 -4.9567,0.76089 -2.30443,0 -3.6523,-0.58697 -1.32614,-0.58698 -2.10878,-1.50006 -0.78263,-0.93482 -1.26091,-2.23921 -0.84786,-2.23921 -0.84786,-5.5002 0,-3.28273 0.41306,-5.69586 0.4348,-2.43487 0.89134,-3.95666 0.47827,-1.5218 1.26091,-2.91315 0.78264,-1.4131 1.82616,-2.32617 2.28269,-2.00008 6.04369,-2.00008 2.52183,0 4.60887,0.67394 z"
           style="font-style:normal;font-variant:normal;font-weight:normal;font-stretch:normal;font-family:'Contrail One';-inkscape-font-specification:'Contrail One';fill:#ffffff;stroke:#8b4412;stroke-width:4.23333311;stroke-miterlimit:4;stroke-dasharray:none;stroke-opacity:1;paint-order:markers stroke fill"
           id="path85" />
        <path
           d="m -358.94396,-559.40944 q -1.34788,0 -2.15225,-0.84786 -0.80438,-0.84785 -0.80438,-2.17399 0,-1.34787 1.06525,-2.39139 1.087,-1.06525 2.43488,-1.06525 1.34787,0 2.17399,0.84785 0.84785,0.84786 0.84785,2.19573 0,1.32614 -1.10873,2.3914 -1.10874,1.04351 -2.45661,1.04351 z m 2.41313,2.93489 -2.82619,25.06613 q -0.0435,0.30436 -0.15218,0.4348 -0.1087,0.13043 -0.41306,0.15217 l -4.36972,0.15218 q -0.47828,-0.0435 -0.47828,-0.41305 l 2.86967,-25.28353 q 0.087,-0.47828 0.5435,-0.52176 l 4.23928,-0.15218 q 0.58698,0.0435 0.58698,0.56524 z"
           style="font-style:normal;font-variant:normal;font-weight:normal;font-stretch:normal;font-family:'Contrail One';-inkscape-font-specification:'Contrail One';fill:#ffffff;stroke:#8b4412;stroke-width:4.23333311;stroke-miterlimit:4;stroke-dasharray:none;stroke-opacity:1;paint-order:markers stroke fill"
           id="path87" />
        <path
           d="m -351.4437,-534.82159 q -0.50002,-1.3044 -0.69568,-2.56531 -0.17392,-1.28266 -0.17392,-3.50013 0,-2.21747 0.47828,-5.47846 1.58702,-10.86996 9.86993,-10.86996 3.19576,0 4.89148,2.19574 1.69571,2.19573 1.69571,5.69585 0,3.50013 -0.4348,6.8046 -0.0652,0.58698 -0.67393,0.60872 l -10.73952,0.36957 q -0.0217,0.3261 -0.0217,0.8696 0,2.45661 0.84785,3.89145 0.8696,1.43483 2.60879,1.43483 1.7392,0 3.21751,-0.50002 1.50006,-0.52175 1.76093,-0.52175 0.26088,0 0.45654,0.17391 0.19566,0.17392 0.19566,0.47828 l -0.4348,3.82623 q -0.0217,0.3261 -0.13044,0.4348 -0.087,0.087 -0.36957,0.19566 -2.63053,0.76089 -5.06541,0.76089 -2.43487,0 -3.78274,-0.58697 -1.34788,-0.58698 -2.17399,-1.50006 -0.80438,-0.93482 -1.32614,-2.21747 z m 4.7393,-12.19609 -0.19566,1.39135 5.67412,-0.28262 q 0.36958,-0.0217 0.47828,-0.13044 0.3261,-0.3261 0.3261,-1.78267 0,-1.47832 -0.1087,-2.06529 -0.087,-0.60872 -0.3261,-1.23918 -0.50002,-1.39135 -1.71745,-1.39135 -1.1957,0 -1.89137,0.41305 -1.54354,0.95656 -2.23922,5.08715 z"
           style="font-style:normal;font-variant:normal;font-weight:normal;font-stretch:normal;font-family:'Contrail One';-inkscape-font-specification:'Contrail One';fill:#ffffff;stroke:#8b4412;stroke-width:4.23333311;stroke-miterlimit:4;stroke-dasharray:none;stroke-opacity:1;paint-order:markers stroke fill"
           id="path89" />
        <path
           d="m -322.94265,-556.47455 -0.23914,2.00007 q 3.13054,-2.76097 6.00021,-2.76097 3.65231,0 4.60887,4.00015 0.26088,1.08699 0.26088,2.06529 0,0.95656 -0.0652,1.54353 l -2.08704,18.21806 q -0.087,0.54349 -0.54349,0.58697 l -4.39147,0.15218 q -0.47828,-0.0435 -0.47828,-0.41305 l 1.97834,-17.21802 q 0.0652,-0.56524 0.0652,-1.02178 0,-1.78267 -0.84786,-2.41313 -0.82612,-0.65219 -2.10877,-0.65219 -1.28266,0 -2.67401,0.54349 l -2.32617,20.43553 q -0.087,0.54349 -0.5435,0.58697 l -4.39147,0.15218 q -0.47827,-0.0435 -0.47827,-0.41305 l 2.86967,-25.28353 q 0.087,-0.47828 0.54349,-0.52176 l 4.26103,-0.15218 q 0.58698,0.0217 0.58698,0.56524 z"
           style="font-style:normal;font-variant:normal;font-weight:normal;font-stretch:normal;font-family:'Contrail One';-inkscape-font-specification:'Contrail One';fill:#ffffff;stroke:#8b4412;stroke-width:4.23333311;stroke-miterlimit:4;stroke-dasharray:none;stroke-opacity:1;paint-order:markers stroke fill"
           id="path91" />
        <path
           d="m -292.39807,-556.56151 q 0.47828,0.17392 0.47828,0.82612 l -0.50002,3.93492 q -0.0435,0.4348 -0.60872,0.4348 -0.5435,0 -1.04351,-0.2174 -2.10878,-0.93481 -3.50013,-0.93481 -1.39136,0 -2.21747,1.15221 -0.82612,1.15222 -1.32614,3.30447 -0.93481,4.02188 -0.93481,7.34809 0,5.34802 2.76097,5.34802 2.00007,0 3.23924,-0.50002 1.23918,-0.52175 1.60876,-0.52175 0.76089,0 0.76089,0.65219 l -0.45653,3.82623 q -0.0435,0.39132 -0.17392,0.47828 -0.1087,0.0652 -0.30436,0.15218 -2.63053,0.76089 -4.9567,0.76089 -2.30444,0 -3.65231,-0.58697 -1.32614,-0.58698 -2.10877,-1.50006 -0.78264,-0.93482 -1.26092,-2.23921 -0.84785,-2.23921 -0.84785,-5.5002 0,-3.28273 0.41305,-5.69586 0.4348,-2.43487 0.89134,-3.95666 0.47828,-1.5218 1.26092,-2.91315 0.78263,-1.4131 1.82615,-2.32617 2.28269,-2.00008 6.0437,-2.00008 2.52183,0 4.60886,0.67394 z"
           style="font-style:normal;font-variant:normal;font-weight:normal;font-stretch:normal;font-family:'Contrail One';-inkscape-font-specification:'Contrail One';fill:#ffffff;stroke:#8b4412;stroke-width:4.23333311;stroke-miterlimit:4;stroke-dasharray:none;stroke-opacity:1;paint-order:markers stroke fill"
           id="path93" />
        <path
           d="m -287.26744,-534.82159 q -0.50002,-1.3044 -0.69568,-2.56531 -0.17392,-1.28266 -0.17392,-3.50013 0,-2.21747 0.47828,-5.47846 1.58701,-10.86996 9.86992,-10.86996 3.19577,0 4.89148,2.19574 1.69572,2.19573 1.69572,5.69585 0,3.50013 -0.4348,6.8046 -0.0652,0.58698 -0.67394,0.60872 l -10.73952,0.36957 q -0.0217,0.3261 -0.0217,0.8696 0,2.45661 0.84786,3.89145 0.86959,1.43483 2.60879,1.43483 1.73919,0 3.21751,-0.50002 1.50005,-0.52175 1.76093,-0.52175 0.26088,0 0.45654,0.17391 0.19566,0.17392 0.19566,0.47828 l -0.4348,3.82623 q -0.0217,0.3261 -0.13044,0.4348 -0.087,0.087 -0.36958,0.19566 -2.63053,0.76089 -5.0654,0.76089 -2.43487,0 -3.78275,-0.58697 -1.34787,-0.58698 -2.17399,-1.50006 -0.80438,-0.93482 -1.32613,-2.21747 z m 4.7393,-12.19609 -0.19566,1.39135 5.67412,-0.28262 q 0.36958,-0.0217 0.47828,-0.13044 0.32609,-0.3261 0.32609,-1.78267 0,-1.47832 -0.10869,-2.06529 -0.087,-0.60872 -0.3261,-1.23918 -0.50002,-1.39135 -1.71746,-1.39135 -1.19569,0 -1.89137,0.41305 -1.54353,0.95656 -2.23921,5.08715 z"
           style="font-style:normal;font-variant:normal;font-weight:normal;font-stretch:normal;font-family:'Contrail One';-inkscape-font-specification:'Contrail One';fill:#ffffff;stroke:#8b4412;stroke-width:4.23333311;stroke-miterlimit:4;stroke-dasharray:none;stroke-opacity:1;paint-order:markers stroke fill"
           id="path95" />
      </g>
      <circle
         r="5.2822461"
         cy="-581.68542"
         cx="-443.91922"
         id="path4893"
         style="opacity:1;vector-effect:none;fill:#999999;fill-opacity:1;stroke:#8b4412;stroke-width:2;stroke-linecap:round;stroke-linejoin:round;stroke-miterlimit:4;stroke-dasharray:none;stroke-dashoffset:0;stroke-opacity:1;paint-order:normal" />
      <circle
         style="opacity:1;vector-effect:none;fill:#999999;fill-opacity:1;stroke:#8b4412;stroke-width:2;stroke-linecap:round;stroke-linejoin:round;stroke-miterlimit:4;stroke-dasharray:none;stroke-dashoffset:0;stroke-opacity:1;paint-order:normal"
         id="circle4895"
         cx="-443.91922"
         cy="-509.02759"
         r="5.2822461" />
    </g>
    <g
       style="display:inline"
       id="g4884"
       transform="matrix(1.1056439,0,0,1.1056439,500.12521,1084.9941)">
      <path
         id="path4651"
         transform="matrix(0.26458333,0,0,0.26458333,0,-544)"
         d="m -744.18945,-2251.5039 c -21.81246,26.995 -45.34105,53.3455 -58.09766,83.7363 l -2.31641,-0.6386 c -55.49262,-15.4554 -109.13357,-25.2295 -167.41601,-29.8907 -6.90806,-0.7805 -13.91103,-1.5506 -21.09766,-2.3164 -148.04981,-15.7757 -405.47301,21.9809 -517.53711,120.0078 -47.8534,41.8594 -78.1754,85.5334 -95.9629,135.375 -19.4903,49.4139 -27.6321,107.3641 -20.2207,184.8965 0.1997,4.212 0.4215,8.4557 0.6758,12.752 1.9465,32.8852 16.2272,70.03 41.5976,113.4785 -2.1149,4.1123 -22.6858,5.2705 -29.1425,9.4609 -5.6178,1.3172 -11.2677,2.5931 -16.9551,3.8203 16.139,2.8334 33.2926,3.876 51.2012,3.3047 2.742,0.6166 4.7659,1.4207 5.5429,2.5059 4.1439,5.7879 8.4066,11.8757 12.7325,18.1172 44.8373,71.7908 96.0983,130.5379 101.5351,137.334 -8.6295,-14.4151 -17.5655,-28.716 -26.1016,-43.1661 -7.3705,-15.0807 -20.1474,-39.4549 -30.7753,-60.5195 -2.4894,-6.2779 -4.7419,-12.6451 -6.7188,-19.1152 41.1781,60.0333 102.1001,114.208 168.2305,158.4375 44.3637,30.8667 90.7674,56.6757 135.6172,76.209 -0.01,0.01 -0.1418,0.1993 -0.1524,0.2148 l -1.5039,0.018 c -18.9359,24.4241 -40.9024,52.9471 -62.4765,72.4238 -16.3196,13.65 -33.4198,23.5289 -48.2676,22.7441 -3.2943,-0.4892 -6.4932,-1.5753 -9.5821,-3.3183 -5.0262,-3.3217 -9.3532,-8.8515 -13.2968,-15.3125 -3.0416,-8.0783 -9.9301,-24.5697 -18.9961,-35.9766 -6.1598,-10.0846 -12.7988,-16.1973 -21.543,-11.6347 -0.8285,0.1879 -1.662,0.448 -2.5,0.8027 -13.7278,5.8098 -18.3737,21.4634 -18.373,39.1836 -0.7287,14.5023 2.2557,30.8977 7.9355,46.7461 3.8261,12.2239 8.1012,21.3344 10.5449,23.2832 12.703,22.8927 30.6902,41.4272 50.0684,46.2637 28.4616,7.1034 51.7971,-9.6997 67.3652,-26.8926 7.8929,-8.3123 14.9282,-18.1969 20.6758,-29.1973 0.3401,-0.6368 0.552,-1.0474 0.5586,-1.0605 -40.5736,100.8547 -89.397,260.20958 -28.5742,330.97653 0.071,0.0824 0.1438,0.16199 0.2148,0.24414 9.653,11.86035 22.4981,22.10968 38.3828,30.5625 0.273,0.3699 0.5063,0.78249 0.709,1.22851 2.6961,15.75623 -30.6794,84.69214 -48.2265,123.99805 0.4413,0.10429 0.8674,0.21927 1.2949,0.33399 -10.0502,25.55176 -14.3771,45.68115 -2.0723,49 5.6551,2.82172 12.3395,1.34303 19.0352,-2.32422 13.7939,-5.79581 25.7445,-19.87357 35.8398,-37.28321 0.6543,-0.22393 1.3059,-0.44368 1.9844,-0.69336 10.7436,-16.95145 18.3894,-39.22548 25.0683,-63.95312 9.0358,-28.73413 13.6075,-52.1543 13.6075,-52.1543 l -0.7774,-0.29883 c 0.033,-0.13919 0.065,-0.27679 0.098,-0.41601 0.3883,0.0952 0.7763,0.19159 1.166,0.28515 43.1193,10.70664 98.4733,13.1573 164.7305,5.71876 3.5328,-0.39676 2.5709,-3.79855 1.0351,-7.625 -0.4348,-3.72289 -0.8569,-7.44542 -1.2578,-11.16407 0.2126,-0.0913 0.4532,-0.16555 0.7188,-0.22265 l 0.092,1.24414 26.2792,-4.92774 c 10.66465,-1.60751 21.58632,-3.43316 37.64458,-6.16211 0.46647,1.35357 0.9483,2.71012 1.42774,4.06641 0.0432,3.83377 0.76948,9.15472 4.19531,11.47266 0.19301,0.50921 0.37537,1.01573 0.57031,1.52539 l -0.24609,-1.33008 c 0.16077,0.0954 0.32603,0.18521 0.49804,0.26758 l -0.22265,1.15625 c 0.91457,-0.16543 1.82148,-0.33691 2.73437,-0.50391 0.53321,0.0431 1.09584,0.0505 1.70508,-0.008 8.20009,-0.7843 17.24833,-2.09836 26.88086,-3.81446 0.21308,0.79624 0.38632,1.6308 0.52344,2.5 -2.30833,20.36905 -6.23721,37.49882 -10.67578,53.60743 -13.25082,40.38806 -31.69373,87.24477 -15.27735,104.7832 2.27965,3.04992 5.37681,5.12767 9.48438,5.65234 10.83287,2.79623 22.56291,-7.49017 33.91211,-24.45703 3.88831,-5.56843 7.00424,-10.98262 9.08007,-15.07422 1.14731,-2.08803 2.28586,-4.22821 3.41602,-6.41601 0.025,-0.003 0.0512,-0.007 0.0762,-0.01 0.0352,-0.0709 0.0684,-0.14202 0.10352,-0.21289 0.0237,10e-4 0.0486,5.4e-4 0.0723,0.002 l -0.0684,-0.008 c 0.57412,-1.15793 1.13832,-2.31609 1.69922,-3.47461 24.89321,-49.75405 44.79028,-120.39377 43.9336,-133.27148 0.11578,-0.48614 0.23824,-0.98364 0.35351,-1.46875 23.9936,-6.46648 47.74592,-13.41722 68.5293,-19.58008 13.82114,-3.98321 21.94141,-6.51172 21.94141,-6.51172 -36.59263,-114.92527 -51.7754,-245.20507 -51.77539,-245.20507 3.72854,6.3889 8.2149,11.8671 11.90234,15.8886 4.03715,5.2946 8.78248,11.0457 13.65234,15.9453 3.32138,3.7958 7.58729,7.7797 12.14258,9.7168 4.48834,2.4401 8.64027,3.0785 11.93359,0.7129 20.22974,-14.5309 10.02509,-51.9932 -5.8164,-86.707 -1.8097,-6.4048 -8.71185,-22.4718 -33.46875,-60.6504 -3.87119,-6.0598 -6.44727,-9.8496 -6.44727,-9.8496 -0.0822,-1.4554 -0.22618,-2.9275 -0.40625,-4.4102 -0.56613,-13.505 -7.4902,-29.615 -16.125,-44.7089 -8.37484,-15.4455 -19.30456,-31.5986 -31.3457,-48.0625 l -2.69336,0.029 c -0.37946,-0.4483 -0.45113,-0.5311 -0.71094,-0.8339 79.73632,-35.1434 162.77132,-88.933 230.84961,-156.8555 0.0736,-0.073 0.14518,-0.1462 0.21875,-0.2188 1.02533,-1.0239 2.0499,-2.0478 3.06836,-3.0781 10.0525,-10.0666 19.65456,-20.3877 28.67774,-30.959 20.00661,-23.0938 38.18865,-47.5489 53.95312,-73.2246 l 24.60938,74.9473 c 0.0501,-0.3691 0.0887,-0.7317 0.13671,-1.0996 2.2e-4,6e-4 0.0508,0.1601 0.0508,0.1601 l 8.71289,-69.0742 c 1.16216,-4.2773 2.54484,-8.6773 4.22461,-13.2422 l -1.50586,0.3125 c 5.36854,-7.4789 8.72656,-18.0946 8.72656,-29.8789 0,-5.5659 -0.75044,-10.8701 -2.10547,-15.709 -1.73805,-8.8262 -1.68615,-17.6518 -0.44922,-26.7285 5.05025,-13.8471 13.85043,-40.3542 20.35156,-72.6601 12.73479,-45.7124 20.50703,-104.3785 -14.14257,-190.9844 -33.89337,-84.7156 -105.0913,-138.2776 -199.74805,-174.6582 -23.86057,-9.7167 -48.98345,-17.9983 -76.72461,-25.7246 h -0.041 c 3.0772,-19.5389 10.43198,-38.7034 17.52539,-57.8906 5.19237,-10.7931 10.81624,-21.6702 15.88282,-32.6348 z m 197.73437,629.5215 c 0.95549,1.269 1.99152,2.4769 3.11914,3.5586 l -0.55273,0.1152 c -1.39546,-0.2963 -2.7969,-0.6207 -4.20508,-0.9707 0.54565,-0.9011 1.09902,-1.7991 1.63867,-2.7031 z m -998.62692,3.9746 c 0.4589,0.7522 0.9094,1.5074 1.373,2.2578 5.8581,10.8487 12.4003,21.5402 19.5508,32.0547 l -3.7695,-2.4902 c -8.5383,-16.839 -16.2987,-29.7632 -17.6719,-31.6661 0.1186,-0.037 0.3938,-0.1179 0.5176,-0.1562 z m 995.88669,0.5488 c 0.0271,0.08 0.0516,0.1526 0.0801,0.2363 l -0.25586,0.053 c 0.0589,-0.096 0.11695,-0.1929 0.17578,-0.2891 z m -319.08985,265.9492 -0.0137,0.07 h -0.15234 c 0.0554,-0.024 0.11064,-0.048 0.16601,-0.072 z m -351.04104,3.8243 c 0.1384,0.06 0.2758,0.1195 0.4141,0.1796 h -0.4707 z m 182.5313,494.73628 1.3418,11.04688 c -1.819,-4.517 -4.3954,-9.59851 -1.3418,-11.04688 z"
         style="display:inline;opacity:1;fill:#ffdab9;fill-opacity:1;fill-rule:nonzero;stroke:#ffffff;stroke-width:37.79527664;stroke-linecap:round;stroke-linejoin:round;stroke-miterlimit:4;stroke-dasharray:none;stroke-dashoffset:0;stroke-opacity:1;paint-order:normal"
         inkscape:connector-curvature="0" />
      <g
         transform="translate(836.66509,139.03764)"
         id="g4346">
        <path
           style="display:inline;opacity:1;fill:#ffdab9;fill-opacity:1;fill-rule:nonzero;stroke:none;stroke-width:0.70339698;stroke-linecap:round;stroke-linejoin:miter;stroke-miterlimit:4;stroke-dasharray:none;stroke-dashoffset:0;stroke-opacity:1;paint-order:normal"
           d="m -1048.355,-978.43284 c 0.034,0.1606 5.3353,8.65644 9.056,3.69115 4.971,-6.63361 -2.2578,-20.55237 -2.3395,-20.52133 z"
           id="path1725"
           inkscape:connector-curvature="0"
           sodipodi:nodetypes="cscc"
           inkscape:export-xdpi="96"
           inkscape:export-ydpi="96" />
        <path
           style="display:inline;opacity:1;fill:#ffdab9;fill-opacity:1;fill-rule:nonzero;stroke:none;stroke-width:0.70339698;stroke-linecap:round;stroke-linejoin:miter;stroke-miterlimit:4;stroke-dasharray:none;stroke-dashoffset:0;stroke-opacity:1;paint-order:normal"
           d="m -1206.0366,-1002.8243 c -1.2042,2.2231 -11.0287,-24.3882 -0.441,-28.8691 6.4201,-2.7171 11.865,13.6744 11.8465,13.6718 z"
           id="path1727"
           inkscape:connector-curvature="0"
           sodipodi:nodetypes="cscc"
           inkscape:export-xdpi="96"
           inkscape:export-ydpi="96" />
        <path
           style="display:inline;opacity:1;fill:#cd853f;fill-opacity:1;fill-rule:nonzero;stroke:none;stroke-width:0.70339698;stroke-linecap:round;stroke-linejoin:miter;stroke-miterlimit:4;stroke-dasharray:none;stroke-dashoffset:0;stroke-opacity:1;paint-order:normal"
           d="m -1179.112,-876.45548 13.3763,2.64932 c 0.099,0.73939 -8.8795,12.84748 -14.238,9.99329 -4.2916,-2.28596 0.8589,-12.64261 0.8617,-12.64261 z"
           id="path1729"
           inkscape:connector-curvature="0"
           sodipodi:nodetypes="ccsc"
           inkscape:export-xdpi="96"
           inkscape:export-ydpi="96" />
        <path
           style="display:inline;opacity:1;fill:#add8e6;fill-opacity:1;fill-rule:nonzero;stroke:none;stroke-width:0.70339698;stroke-linecap:round;stroke-linejoin:miter;stroke-miterlimit:4;stroke-dasharray:none;stroke-dashoffset:0;stroke-opacity:1"
           d="m -1167.1107,-910.1665 c 1.8362,2.78061 -7.6848,22.40179 -12.5694,33.34335 5.2595,1.24268 6.6725,5.39477 14.8382,2.39001 4.861,-7.66973 7.331,-19.4432 10.2095,-31.57387 z"
           id="path1731"
           inkscape:connector-curvature="0"
           sodipodi:nodetypes="ccccc"
           inkscape:export-xdpi="96"
           inkscape:export-ydpi="96" />
        <path
           style="display:inline;opacity:1;fill:#add8e6;fill-opacity:1;fill-rule:nonzero;stroke:none;stroke-width:0.70339698;stroke-linecap:round;stroke-linejoin:miter;stroke-miterlimit:4;stroke-dasharray:none;stroke-dashoffset:0;stroke-opacity:1"
           d="m -1083.5438,-909.41021 c -1.1636,13.11312 -4.8626,21.15538 -7.3736,31.57391 1.9689,5.35331 9.2875,2.4058 15.1043,1.74746 6.2829,-12.65285 9.5494,-25.45611 12.3102,-37.10269 z"
           id="path1733"
           inkscape:connector-curvature="0"
           sodipodi:nodetypes="ccccc"
           inkscape:export-xdpi="96"
           inkscape:export-ydpi="96" />
        <path
           style="display:inline;opacity:1;fill:#ffffff;fill-opacity:1;fill-rule:nonzero;stroke:none;stroke-width:0.70339698;stroke-linecap:round;stroke-linejoin:miter;stroke-miterlimit:4;stroke-dasharray:none;stroke-dashoffset:0;stroke-opacity:1"
           d="m -1194.6311,-1018.0216 -11.4055,15.1973 c 9.9096,20.32189 28.1652,13.00822 36.2789,-2.858 -9.9147,28.45634 -20.6094,57.09171 -11.3439,81.14682 6.6547,16.65405 31.3466,25.14412 70.2064,20.78142 2.1675,-0.24342 -2.0536,-4.7564 0.2438,-5.05266 6.3893,-0.82392 9.4897,-1.33449 17.2625,-2.65625 0,0 -0.6672,4.76984 2.3831,4.47808 13.9672,-1.33589 37.2195,-8.45887 51.3252,-12.63485 -9.6818,-30.40731 -13.6987,-64.87682 -13.6987,-64.87682 2.0621,3.53343 5.0243,6.06372 5.0243,6.06372 l 6.7171,-16.76287 c 0,0 0.9096,-2.19119 -10.7101,-19.71299 -0.4243,-7.516 -5.8772,-16.4287 -12.6674,-25.713 l -94.7206,1.0626 c -10.954,14.1288 -25.7413,33.4794 -34.8951,21.5375 z"
           id="path1735"
           inkscape:connector-curvature="0"
           sodipodi:nodetypes="ccccsssscsccccccc"
           inkscape:export-xdpi="96"
           inkscape:export-ydpi="96" />
        <path
           style="display:inline;opacity:1;fill:#ffdab9;fill-opacity:1;fill-rule:nonzero;stroke:none;stroke-width:0.95125401;stroke-linecap:round;stroke-linejoin:miter;stroke-miterlimit:4;stroke-dasharray:none;stroke-dashoffset:0;stroke-opacity:1"
           d="m -966.07515,-1179.6189 c 11.27386,87.2633 -97.87155,152.1612 -150.32015,151.0609 -51.7405,-1.0853 -157.8915,-69.7577 -142.6217,-146.935 50.4263,-118.3736 291.00485,-66.7161 292.94185,-4.1259 z"
           id="path1737"
           inkscape:connector-curvature="0"
           sodipodi:nodetypes="csccc"
           inkscape:export-xdpi="96"
           inkscape:export-ydpi="96" />
        <path
           style="display:inline;opacity:1;fill:#32cd32;fill-opacity:1;fill-rule:nonzero;stroke:none;stroke-width:0.95125401;stroke-linecap:round;stroke-linejoin:miter;stroke-miterlimit:4;stroke-dasharray:none;stroke-dashoffset:0;stroke-opacity:1;paint-order:normal"
           d="m -1178.0793,-1138.4049 c -7.3741,4.9895 -14.9591,9.4271 -22.551,13.2507 -6e-4,0.01 -10e-4,0.016 0,0.018 -0.024,0.3453 -0.041,0.6885 -0.051,1.0251 -0.011,0.2675 -0.016,0.5379 -0.021,0.8107 0,0.2726 0,0.5476 -6e-4,0.8248 0,2e-4 0,3e-4 0,5e-4 0,0.2771 0.011,0.5561 0.021,0.8368 0.021,0.562 0.056,1.1303 0.1053,1.7028 0.026,0.2862 0.053,0.573 0.086,0.8606 0,2e-4 0,3e-4 0,6e-4 0.033,0.2873 0.068,0.5756 0.1085,0.8639 0.1204,0.8655 0.2767,1.7328 0.4705,2.5922 0.065,0.2866 0.133,0.5715 0.2061,0.8557 0.016,0.061 0.034,0.122 0.05,0.1829 0.2087,0.79 0.449,1.5703 0.7271,2.3316 0.2996,0.8202 0.6407,1.6189 1.0256,2.3866 10e-5,2e-4 -10e-5,3e-4 0,6e-4 0.1283,0.2561 0.2614,0.5079 0.3994,0.7564 10e-5,10e-5 -10e-5,3e-4 0,6e-4 0.2763,0.497 0.573,0.9793 0.8899,1.4429 0.317,0.4636 0.6545,0.9089 1.0137,1.3332 0.1796,0.2125 0.3647,0.4191 0.5551,0.6202 0.1902,0.2011 0.3858,0.3965 0.5871,0.5861 10e-5,10e-5 6e-4,-10e-5 6e-4,0 0.7048,0.6631 1.4774,1.2525 2.3225,1.7522 10e-5,1e-4 3e-4,-10e-5 5e-4,0 0.1207,0.071 0.2427,0.1413 0.3663,0.2087 2e-4,10e-5 3e-4,0 6e-4,0 0.2471,0.1355 0.5004,0.263 0.7597,0.383 10e-5,10e-5 2e-4,-10e-5 5e-4,0 0.1297,0.06 0.2604,0.1183 0.3929,0.1741 10e-5,10e-5 3e-4,0 5e-4,0 0.3981,0.168 0.8099,0.3184 1.2357,0.4488 10e-5,10e-5 2e-4,0 5e-4,0 0.2838,0.087 0.5736,0.1654 0.8699,0.2349 10e-5,10e-5 2e-4,0 5e-4,0 0.1408,0.013 0.2807,0.024 0.4195,0.032 0.1391,0.01 0.2769,0.013 0.414,0.016 0.2688,0 0.5341,9e-4 0.795,-0.013 0.1376,-0.01 0.2743,-0.016 0.4097,-0.032 0.3712,-0.036 0.7338,-0.09 1.0885,-0.1624 0.049,-0.013 0.097,-0.021 0.1461,-0.032 0.186,-0.041 0.3694,-0.087 0.5507,-0.1376 0.1969,-0.055 0.3909,-0.1161 0.5823,-0.1828 0.076,-0.028 0.1521,-0.052 0.2273,-0.08 2e-4,-10e-5 3e-4,-6e-4 5e-4,-6e-4 0.2326,-0.087 0.4614,-0.182 0.6859,-0.2853 2e-4,-2e-4 3e-4,-6e-4 6e-4,-6e-4 0.1116,-0.051 0.2193,-0.1101 0.3288,-0.1651 0.2416,-0.1214 0.4785,-0.2519 0.7104,-0.3913 0.086,-0.052 0.1751,-0.099 0.2598,-0.1537 2e-4,-2e-4 2e-4,-3e-4 5e-4,-6e-4 0.8337,-0.5319 1.6018,-1.1762 2.3057,-1.9063 0.176,-0.1825 0.3481,-0.3703 0.5161,-0.5633 0.168,-0.1929 0.3317,-0.3909 0.4916,-0.5931 0.3197,-0.4047 0.6231,-0.8275 0.9106,-1.2654 0.2874,-0.4378 0.5586,-0.8906 0.8139,-1.355 0.2553,-0.4645 0.4947,-0.9406 0.7179,-1.425 0.1117,-0.2421 0.2194,-0.4861 0.3229,-0.732 0.1037,-0.246 0.2029,-0.4933 0.2984,-0.7423 0.095,-0.2487 0.1876,-0.4985 0.2751,-0.7494 0.701,-2.0071 1.1467,-4.0682 1.3398,-5.9723 0.04,-0.3588 0.073,-0.7233 0.1027,-1.0901 0.01,-0.097 0.016,-0.1937 0.021,-0.291 0.024,-0.3111 0.041,-0.625 0.055,-0.9409 0,-0.063 0.01,-0.1268 0.011,-0.1905 0.016,-0.3715 0.024,-0.7457 0.028,-1.1222 8e-4,-0.093 3e-4,-0.1873 5e-4,-0.281 6e-4,-0.3048 0,-0.6111 -0.011,-0.9182 0,-0.094 0,-0.1886 -0.01,-0.2834 -0.013,-0.3917 -0.03,-0.784 -0.055,-1.1775 0,-0.018 0,-0.043 -0.01,-0.065 -0.026,-0.3826 -0.058,-0.7657 -0.097,-1.1488 -0.01,-0.063 -0.013,-0.1254 -0.019,-0.1886 -0.086,-0.8105 -0.2011,-1.6198 -0.3483,-2.4224 -0.019,-0.098 -0.036,-0.1968 -0.055,-0.2953 -0.058,-0.3008 -0.1212,-0.6008 -0.189,-0.8991 -0.013,-0.055 -0.024,-0.1098 -0.036,-0.1651 -5e-4,0 -10e-4,-0.01 0,-0.01 -0.038,-0.1612 -0.078,-0.3215 -0.1182,-0.4819 -0.021,-0.083 -0.042,-0.1664 -0.063,-0.2492 -0.043,-0.1651 -0.087,-0.3294 -0.1334,-0.4933 -0.019,-0.067 -0.039,-0.1341 -0.059,-0.2013 -0.086,-0.2965 -0.1773,-0.591 -0.2735,-0.8829 -0.026,-0.078 -0.051,-0.1564 -0.077,-0.2339 -0.053,-0.1559 -0.1082,-0.3112 -0.1645,-0.4656 -0.031,-0.086 -0.064,-0.1715 -0.096,-0.2572 -0.1299,-0.3449 -0.266,-0.6864 -0.4114,-1.0223 -0.068,-0.1582 -0.1402,-0.3143 -0.2122,-0.4705 -0.03,-0.065 -0.06,-0.1294 -0.09,-0.1936 -0.076,-0.1599 -0.1521,-0.3191 -0.2317,-0.4765 0,0 0,-0.01 -0.01,-0.013 -0.011,-0.024 -0.024,-0.045 -0.036,-0.068 -0.1551,-0.3036 -0.3182,-0.6017 -0.4879,-0.8954 -0.038,-0.065 -0.075,-0.1301 -0.113,-0.195 -0.082,-0.1386 -0.1666,-0.2762 -0.2524,-0.4124 -0.046,-0.072 -0.092,-0.1436 -0.1384,-0.2145 -0.1764,-0.2715 -0.3592,-0.5378 -0.5497,-0.7982 -0.021,-0.032 -0.043,-0.061 -0.065,-0.091 z"
           id="path1739"
           inkscape:connector-curvature="0"
           inkscape:export-xdpi="96"
           inkscape:export-ydpi="96" />
        <path
           style="display:inline;opacity:1;fill:#3b3b3b;fill-opacity:1;fill-rule:nonzero;stroke:none;stroke-width:0.91016793;stroke-linecap:round;stroke-linejoin:miter;stroke-miterlimit:4;stroke-dasharray:none;stroke-dashoffset:0;stroke-opacity:1;paint-order:normal"
           d="m -1171.2914,-1101.63 a 62.668147,42.306689 0 0 0 -0.1344,1.808 62.668147,42.306689 0 0 0 62.6682,42.3066 62.668147,42.306689 0 0 0 62.6683,-42.3066 62.668147,42.306689 0 0 0 -0.095,-1.808 z"
           id="path1741"
           inkscape:connector-curvature="0"
           inkscape:export-xdpi="96"
           inkscape:export-ydpi="96" />
        <path
           style="display:inline;opacity:1;fill:#fffafa;fill-opacity:1;fill-rule:nonzero;stroke:none;stroke-width:1.25902653;stroke-linecap:round;stroke-linejoin:miter;stroke-miterlimit:4;stroke-dasharray:none;stroke-dashoffset:0;stroke-opacity:1;paint-order:normal"
           d="m -1169.3997,-1088.9105 121.3426,0.1807 c 1.6048,-4.3 1.2267,-8.6001 1.7615,-12.9001 h -125.2865 c 0.3617,4.3443 0.2347,8.8282 2.1824,12.7193 z"
           id="path1743"
           inkscape:connector-curvature="0"
           sodipodi:nodetypes="ccccc"
           inkscape:export-xdpi="96"
           inkscape:export-ydpi="96" />
        <path
           style="display:inline;opacity:1;fill:#f08080;fill-opacity:1;fill-rule:nonzero;stroke:none;stroke-width:0.71585637;stroke-linecap:round;stroke-linejoin:miter;stroke-miterlimit:4;stroke-dasharray:none;stroke-dashoffset:0;stroke-opacity:1;paint-order:normal"
           clip-path="none"
           d="m -1108.7577,-1072.3254 a 49.289137,33.274642 0 0 0 -32.822,8.5051 62.668147,42.306689 0 0 0 32.822,6.3049 62.668147,42.306689 0 0 0 32.8066,-6.3224 49.289137,33.274642 0 0 0 -32.8066,-8.4876 z"
           id="path1745"
           inkscape:connector-curvature="0"
           inkscape:export-xdpi="96"
           inkscape:export-ydpi="96" />
        <ellipse
           style="display:inline;opacity:1;fill:#ffdab9;fill-opacity:1;fill-rule:nonzero;stroke:none;stroke-width:1.25227475;stroke-linecap:round;stroke-linejoin:miter;stroke-miterlimit:4;stroke-dasharray:none;stroke-dashoffset:0;stroke-opacity:1;paint-order:normal"
           id="ellipse1747"
           cx="-977.00574"
           cy="-1120.9388"
           rx="6.7117767"
           ry="10.227468"
           inkscape:export-xdpi="96"
           inkscape:export-ydpi="96" />
        <path
           style="display:inline;opacity:1;fill:#ffdab9;fill-opacity:1;fill-rule:nonzero;stroke:none;stroke-width:0.95125401;stroke-linecap:round;stroke-linejoin:miter;stroke-miterlimit:4;stroke-dasharray:none;stroke-dashoffset:0;stroke-opacity:1;paint-order:normal"
           d="m -979.16819,-1118.7688 c -1.77624,-0.4637 -2.195,-1.7147 -1.73134,-3.4909 0.46366,-1.7762 2.27943,-2.8403 4.05567,-2.3766"
           id="path1749"
           inkscape:connector-curvature="0"
           sodipodi:nodetypes="csc"
           inkscape:export-xdpi="96"
           inkscape:export-ydpi="96" />
        <path
           style="display:inline;opacity:1;fill:#cd853f;fill-opacity:1;fill-rule:nonzero;stroke:none;stroke-width:0.70339698;stroke-linecap:round;stroke-linejoin:miter;stroke-miterlimit:4;stroke-dasharray:none;stroke-dashoffset:0;stroke-opacity:1;paint-order:normal"
           d="m -1090.5508,-877.66836 2.4229,2.08877 7.6729,-0.15188 4.4207,-0.48829 c 0.5229,0.0357 -5.9309,12.95869 -12.0009,12.30122 -5.929,-0.64223 -4.0294,-13.37107 -2.5156,-13.74953 z"
           id="path1751"
           inkscape:connector-curvature="0"
           sodipodi:nodetypes="ccccsc"
           inkscape:export-xdpi="96"
           inkscape:export-ydpi="96" />
        <path
           style="display:inline;opacity:1;fill:#ff6347;fill-opacity:1;fill-rule:nonzero;stroke:#ff6347;stroke-width:1.90250802;stroke-linecap:round;stroke-linejoin:miter;stroke-miterlimit:4;stroke-dasharray:none;stroke-dashoffset:0;stroke-opacity:1"
           d="m -1045.145,-1157.7277 4.6023,20.9663"
           id="path1753"
           inkscape:connector-curvature="0"
           inkscape:export-xdpi="96"
           inkscape:export-ydpi="96" />
        <path
           inkscape:connector-curvature="0"
           id="path1755"
           d="m -1021.8776,-1157.7277 -4.6023,20.9663"
           style="display:inline;opacity:1;fill:#ff6347;fill-opacity:1;fill-rule:nonzero;stroke:#ff6347;stroke-width:1.90250802;stroke-linecap:round;stroke-linejoin:miter;stroke-miterlimit:4;stroke-dasharray:none;stroke-dashoffset:0;stroke-opacity:1"
           inkscape:export-xdpi="96"
           inkscape:export-ydpi="96" />
        <path
           style="display:inline;opacity:1;fill:#ff6347;fill-opacity:1;fill-rule:nonzero;stroke:#ff6347;stroke-width:1.90250802;stroke-linecap:round;stroke-linejoin:miter;stroke-miterlimit:4;stroke-dasharray:none;stroke-dashoffset:0;stroke-opacity:1"
           d="m -1033.7363,-1159.2557 -0.061,21.4655"
           id="path1757"
           inkscape:connector-curvature="0"
           inkscape:export-xdpi="96"
           inkscape:export-ydpi="96" />
        <path
           inkscape:connector-curvature="0"
           id="path1759"
           d="m -1033.9518,-1143.8373 c -9.3704,0.7779 -13.1763,11.6302 -13.4145,19.7295 -0.3239,8.5617 2.6867,19.9666 12.1739,22.1917 9.0253,0.8534 13.8392,-9.2733 14.6118,-16.8895 1.0039,-9.0033 -1.2317,-20.7982 -10.5448,-24.6037 -0.9232,-0.2849 -1.8608,-0.425 -2.8264,-0.428 z"
           style="display:inline;opacity:1;fill:#32cd32;fill-opacity:1;fill-rule:nonzero;stroke:none;stroke-width:0.95125401;stroke-linecap:round;stroke-linejoin:miter;stroke-miterlimit:4;stroke-dasharray:none;stroke-dashoffset:0;stroke-opacity:1;paint-order:normal"
           inkscape:export-xdpi="96"
           inkscape:export-ydpi="96" />
        <path
           sodipodi:nodetypes="cccssccsccccccssccsccscccccccc"
           style="display:inline;opacity:1;fill:#ff4500;fill-opacity:1;fill-rule:nonzero;stroke:none;stroke-width:1.46509659;stroke-linecap:round;stroke-linejoin:bevel;stroke-miterlimit:4;stroke-dasharray:none;stroke-dashoffset:0;stroke-opacity:1;paint-order:normal"
           d="m -1036.0504,-1274.9216 c -4.0728,5.6878 -10.412,11.1778 -12.5554,18.4197 l -0.9442,-0.2596 c -25.9001,-7.2135 -50.2712,-9.7552 -82.5595,-8.4304 -44.4124,1.8222 -95.1751,16.0023 -116.6216,44.7586 -14.0826,18.8825 -21.8352,38.9182 -18.1893,73.4269 -0.1929,6.767 4.9839,20.014 10.9923,31.1991 0.9033,1.6817 -8.1876,1.7231 -8.2109,3.6276 -0.01,0.8527 9.9672,0.3367 11.0413,1.8368 8.605,12.0189 19.1266,28.8141 24.7606,33.4318 1.4465,1.1855 -7.1385,-14.6237 -11.6374,-23.8829 -2.6073,-5.3663 -5.2165,-9.7265 -5.6306,-10.3003 5.7657,-1.7892 34.6478,-10.1133 34.6478,-10.1133 10.2933,-3.3239 33.1868,-18.338 33.1868,-18.338 15.2596,-0.4881 21.8299,-0.6207 42.0554,-13.1344 7.3642,-4.5563 13.3103,-7.3603 18.5819,-10.9604 25.0718,-17.1221 34.2416,-25.7478 51.1456,-29.7709 11.2222,-2.3461 32.7573,-2.3647 34.6633,1.0668 7.3474,15.028 37.77285,46.1566 45.2975,57.8183 5.41678,8.395 9.34429,-1.5785 14.08026,5.2677 0,0 12.14464,-29.0374 7.57784,-54.2627 -2.46827,-13.6338 -10.59009,-34.9343 -25.79574,-46.2319 -17.11006,-12.7126 -32.06006,-19.426 -52.22916,-25.0434 h -0.011 c 1.0708,-6.7991 4.1004,-13.4268 6.3538,-20.1223 z m 53.86018,163.3247 c 0.14896,0.1985 6.64614,20.405 6.64614,20.405 l 2.48269,-19.6815 c -2.87087,0.4846 -5.94386,0.1167 -9.12883,-0.7235 z"
           id="path1761"
           inkscape:connector-curvature="0"
           inkscape:export-xdpi="96"
           inkscape:export-ydpi="96" />
        <path
           sodipodi:nodetypes="cccccccccccccccccc"
           inkscape:connector-curvature="0"
           id="path1763"
           d="m -1140.763,-1032.1687 4.3886,5.9724 7.7787,5.1269 2.0548,6.8459 3.4257,23.91537 3.5357,12.90564 6.257,33.94349 2.5825,35.00424 16.9718,-3.1822 c -6.5489,-19.92632 -9.4192,-39.97924 -10.077,-60.1083 l 5.3036,-33.58994 2.1215,-13.7895 12.3328,-11.8626 3.2247,-4.0484 -19.4468,4.7733 -16.2646,1.9446 -20.5076,-4.4197 z"
           style="display:inline;fill:#6b8e23;fill-opacity:1;stroke:none;stroke-width:0.49221095px;stroke-linecap:butt;stroke-linejoin:miter;stroke-opacity:1" />
        <path
           sodipodi:nodetypes="cccccccc"
           inkscape:connector-curvature="0"
           id="path1765"
           d="m -1158.4438,-1039.6982 -0.018,1.7991 c 2.5801,7.9549 3.6535,16.7708 9.2507,23.0016 3.6608,0.2321 7.1084,-0.2537 10.5007,-2.0001 10.2636,15.5609 13.3897,28.63072 19.8547,42.92548 -2.8624,-14.84158 -7.4612,-30.01388 -8.6039,-44.42558 -1.9703,-3.1516 -4.0491,-6.2722 -9.2507,-8.5006 l -6.8629,-6.9579"
           style="display:inline;opacity:1;vector-effect:none;fill:none;fill-opacity:1;stroke:#8b4513;stroke-width:1.88764453;stroke-linecap:round;stroke-linejoin:miter;stroke-miterlimit:4;stroke-dasharray:none;stroke-dashoffset:0;stroke-opacity:1" />
        <path
           sodipodi:nodetypes="cc"
           inkscape:connector-curvature="0"
           id="path1767"
           d="m -1118.9593,-974.39463 c 5.7002,23.69331 5.6671,46.66994 8.5006,70.0049"
           style="display:inline;opacity:1;vector-effect:none;fill:none;fill-opacity:1;stroke:#8b4513;stroke-width:1.88764453;stroke-linecap:round;stroke-linejoin:miter;stroke-miterlimit:4;stroke-dasharray:none;stroke-dashoffset:0;stroke-opacity:1" />
        <path
           style="display:inline;opacity:1;vector-effect:none;fill:none;fill-opacity:1;stroke:#8b4513;stroke-width:1.88800001;stroke-linecap:round;stroke-linejoin:round;stroke-miterlimit:4;stroke-dasharray:none;stroke-dashoffset:0;stroke-opacity:1"
           d="m -1067.3917,-1039.844 c 0,0 -3.0136,18.8841 -8.3959,25.3016 -3.6508,0.3563 -7.113,-0.013 -10.5626,-1.6423 -9.7291,15.9007 -12.1755,28.26611 -18.1512,42.77225 2.3566,-14.93024 6.2034,-29.44705 6.8559,-43.88925 1.8621,-3.2167 3.8337,-6.4061 8.9565,-8.81 l 6.8882,-8.6727"
           id="path1769"
           inkscape:connector-curvature="0"
           sodipodi:nodetypes="ccccccc" />
        <path
           sodipodi:nodetypes="cc"
           style="display:inline;opacity:1;vector-effect:none;fill:none;fill-opacity:1;stroke:#8b4513;stroke-width:1.88764453;stroke-linecap:round;stroke-linejoin:miter;stroke-miterlimit:4;stroke-dasharray:none;stroke-dashoffset:0;stroke-opacity:1"
           d="m -1104.5154,-973.37312 c 2.2341,23.13239 3.7231,44.00351 12.3273,66.49888"
           id="path1771"
           inkscape:connector-curvature="0" />
        <path
           inkscape:connector-curvature="0"
           id="path1773"
           d="m -1110.9168,-909.16192 15.8226,-2.65184"
           style="display:inline;opacity:1;vector-effect:none;fill:none;fill-opacity:1;stroke:#8b4513;stroke-width:1.88764453;stroke-linecap:round;stroke-linejoin:miter;stroke-miterlimit:4;stroke-dasharray:none;stroke-dashoffset:0;stroke-opacity:1" />
        <path
           sodipodi:nodetypes="cscccsc"
           inkscape:connector-curvature="0"
           id="path1775"
           d="m -1159.17,-1029.2777 c 0,0 -42.6242,82.69524 -18.1503,111.17046 13.3006,15.4751 39.0805,16.94776 66.8448,13.74387 m 18.2951,-2.48588 c 27.6555,-5.00239 52.4998,-12.77049 52.4998,-12.77049 0,0 -19.9427,-61.08674 -12.947,-94.13566 2.0422,-9.6478 -13.6491,-27.5017 -13.6491,-27.5017"
           style="opacity:1;fill:none;fill-opacity:1;fill-rule:nonzero;stroke:#8b4513;stroke-width:1.88764453;stroke-linecap:round;stroke-linejoin:miter;stroke-miterlimit:4;stroke-dasharray:none;stroke-dashoffset:0;stroke-opacity:1"
           inkscape:export-xdpi="96"
           inkscape:export-ydpi="96" />
        <path
           style="opacity:1;fill:none;fill-opacity:1;fill-rule:nonzero;stroke:#8b4513;stroke-width:1.88764453;stroke-linecap:round;stroke-linejoin:miter;stroke-miterlimit:4;stroke-dasharray:none;stroke-dashoffset:0;stroke-opacity:1"
           d="m -1167.1107,-909.95981 c 4.1793,5.63218 -23.1943,45.43314 -12.1002,46.30344 16.272,1.27647 24.6021,-41.49706 24.6021,-41.49706"
           id="path1777"
           inkscape:connector-curvature="0"
           sodipodi:nodetypes="csc"
           inkscape:export-xdpi="96"
           inkscape:export-ydpi="96" />
        <path
           style="opacity:1;fill:none;fill-opacity:1;fill-rule:nonzero;stroke:#8b4513;stroke-width:1.88764453;stroke-linecap:round;stroke-linejoin:miter;stroke-miterlimit:4;stroke-dasharray:none;stroke-dashoffset:0;stroke-opacity:1"
           d="m -1159.2592,-1039.6746 c 0,0 -17.7127,25.9415 -29.7831,25.2952 -8.0994,-0.4336 -10.0523,-21.5529 -17.0159,-17.394 -12.3558,7.3794 -1.1069,37.73134 12.8564,41.21632 14.0955,3.51796 23.4441,-15.12522 23.4441,-15.12522"
           id="path1779"
           inkscape:connector-curvature="0"
           sodipodi:nodetypes="csssc"
           inkscape:export-xdpi="96"
           inkscape:export-ydpi="96" />
        <path
           style="opacity:1;fill:none;fill-opacity:1;fill-rule:nonzero;stroke:#8b4513;stroke-width:1.88764453;stroke-linecap:round;stroke-linejoin:miter;stroke-miterlimit:4;stroke-dasharray:none;stroke-dashoffset:0;stroke-opacity:1"
           d="m -1052.348,-1014.9087 c 0,0 23.1259,33.67464 12.1002,41.59434 -4.0602,2.91637 -13.0455,-11.34389 -13.0455,-11.34389"
           id="path1781"
           inkscape:connector-curvature="0"
           sodipodi:nodetypes="csc"
           inkscape:export-xdpi="96"
           inkscape:export-ydpi="96" />
        <path
           style="opacity:1;fill:none;fill-opacity:1;fill-rule:nonzero;stroke:#8b4513;stroke-width:1.88764453;stroke-linecap:round;stroke-linejoin:miter;stroke-miterlimit:4;stroke-dasharray:none;stroke-dashoffset:0;stroke-opacity:1"
           d="m -1091.1724,-877.6717 c 3.2035,5.42385 10.7334,1.24683 15.4054,1.52716"
           id="path1783"
           inkscape:connector-curvature="0"
           sodipodi:nodetypes="cc"
           inkscape:export-xdpi="96"
           inkscape:export-ydpi="96" />
        <path
           style="opacity:1;fill:none;fill-opacity:1;fill-rule:nonzero;stroke:#8b4513;stroke-width:1.88764453;stroke-linecap:round;stroke-linejoin:miter;stroke-miterlimit:4;stroke-dasharray:none;stroke-dashoffset:0;stroke-opacity:1;paint-order:normal"
           d="m -1179.112,-876.45548 c 5.3242,2.59043 6.5153,4.06666 13.3763,2.64932"
           id="path1785"
           inkscape:connector-curvature="0"
           sodipodi:nodetypes="cc"
           inkscape:export-xdpi="96"
           inkscape:export-ydpi="96" />
        <path
           style="opacity:1;fill:#b22222;fill-opacity:1;fill-rule:nonzero;stroke:#8b4513;stroke-width:1.88764453;stroke-linecap:round;stroke-linejoin:miter;stroke-miterlimit:4;stroke-dasharray:none;stroke-dashoffset:0;stroke-opacity:1;paint-order:normal"
           d="m -1206.0366,-1002.8243 11.4055,-15.1973"
           id="path1787"
           inkscape:connector-curvature="0"
           inkscape:export-xdpi="96"
           inkscape:export-ydpi="96" />
        <path
           style="opacity:1;fill:none;fill-opacity:1;fill-rule:nonzero;stroke:#8b4513;stroke-width:1.88764453;stroke-linecap:round;stroke-linejoin:miter;stroke-miterlimit:4;stroke-dasharray:none;stroke-dashoffset:0;stroke-opacity:1;paint-order:normal"
           d="m -1041.6385,-995.26302 -6.7165,16.83018"
           id="path1789"
           inkscape:connector-curvature="0"
           inkscape:export-xdpi="96"
           inkscape:export-ydpi="96" />
        <path
           inkscape:connector-curvature="0"
           id="path1791"
           d="m -1171.2914,-1101.63 a 62.668147,42.306689 0 0 0 -0.1344,1.808 62.668147,42.306689 0 0 0 62.6682,42.3066 62.668147,42.306689 0 0 0 62.6683,-42.3066 62.668147,42.306689 0 0 0 -0.095,-1.808 z"
           style="opacity:1;fill:none;fill-opacity:1;fill-rule:nonzero;stroke:#8b4513;stroke-width:1.88764453;stroke-linecap:round;stroke-linejoin:miter;stroke-miterlimit:4;stroke-dasharray:none;stroke-dashoffset:0;stroke-opacity:1;paint-order:normal"
           inkscape:export-xdpi="96"
           inkscape:export-ydpi="96" />
        <path
           style="opacity:1;fill:none;fill-opacity:1;fill-rule:nonzero;stroke:#8b4513;stroke-width:1.88764453;stroke-linecap:round;stroke-linejoin:miter;stroke-miterlimit:4;stroke-dasharray:none;stroke-dashoffset:0;stroke-opacity:1;paint-order:normal"
           d="m -1169.0226,-1088.4366 h 120.5574"
           id="path1793"
           inkscape:connector-curvature="0"
           sodipodi:nodetypes="cc"
           inkscape:export-xdpi="96"
           inkscape:export-ydpi="96" />
        <path
           style="opacity:1;fill:none;fill-opacity:1;fill-rule:nonzero;stroke:#8b4513;stroke-width:1.88764453;stroke-linecap:round;stroke-linejoin:miter;stroke-miterlimit:4;stroke-dasharray:none;stroke-dashoffset:0;stroke-opacity:1;paint-order:normal"
           d="m -1156.2386,-1101.6298 v 12.8366"
           id="path1795"
           inkscape:connector-curvature="0"
           inkscape:export-xdpi="96"
           inkscape:export-ydpi="96" />
        <path
           inkscape:connector-curvature="0"
           id="path1797"
           d="m -1136.8932,-1101.6298 v 12.8366"
           style="opacity:1;fill:none;fill-opacity:1;fill-rule:nonzero;stroke:#8b4513;stroke-width:1.88764453;stroke-linecap:round;stroke-linejoin:miter;stroke-miterlimit:4;stroke-dasharray:none;stroke-dashoffset:0;stroke-opacity:1;paint-order:normal"
           inkscape:export-xdpi="96"
           inkscape:export-ydpi="96" />
        <path
           style="opacity:1;fill:none;fill-opacity:1;fill-rule:nonzero;stroke:#8b4513;stroke-width:1.88764453;stroke-linecap:round;stroke-linejoin:miter;stroke-miterlimit:4;stroke-dasharray:none;stroke-dashoffset:0;stroke-opacity:1;paint-order:normal"
           d="m -1118.8134,-1101.6298 v 12.8366"
           id="path1799"
           inkscape:connector-curvature="0"
           inkscape:export-xdpi="96"
           inkscape:export-ydpi="96" />
        <path
           inkscape:connector-curvature="0"
           id="path1801"
           d="m -1099.6488,-1101.6298 v 12.8366"
           style="opacity:1;fill:none;fill-opacity:1;fill-rule:nonzero;stroke:#8b4513;stroke-width:1.88764453;stroke-linecap:round;stroke-linejoin:miter;stroke-miterlimit:4;stroke-dasharray:none;stroke-dashoffset:0;stroke-opacity:1;paint-order:normal"
           inkscape:export-xdpi="96"
           inkscape:export-ydpi="96" />
        <path
           style="opacity:1;fill:none;fill-opacity:1;fill-rule:nonzero;stroke:#8b4513;stroke-width:1.88764453;stroke-linecap:round;stroke-linejoin:miter;stroke-miterlimit:4;stroke-dasharray:none;stroke-dashoffset:0;stroke-opacity:1;paint-order:normal"
           d="m -1081.9307,-1101.6298 v 12.8366"
           id="path1803"
           inkscape:connector-curvature="0"
           inkscape:export-xdpi="96"
           inkscape:export-ydpi="96" />
        <path
           inkscape:connector-curvature="0"
           id="path1805"
           d="m -1064.7549,-1101.6298 v 12.8366"
           style="opacity:1;fill:none;fill-opacity:1;fill-rule:nonzero;stroke:#8b4513;stroke-width:1.88764453;stroke-linecap:round;stroke-linejoin:miter;stroke-miterlimit:4;stroke-dasharray:none;stroke-dashoffset:0;stroke-opacity:1;paint-order:normal"
           inkscape:export-xdpi="96"
           inkscape:export-ydpi="96" />
        <path
           style="opacity:1;fill:none;fill-opacity:1;fill-rule:nonzero;stroke:#8b4513;stroke-width:1.88764453;stroke-linecap:round;stroke-linejoin:miter;stroke-miterlimit:4;stroke-dasharray:none;stroke-dashoffset:0;stroke-opacity:1;paint-order:normal"
           d="m -981.90181,-1127.3144 c 0,0 0.33508,-4.3279 4.37561,-4.3279 4.04054,0 7.316,4.8567 7.316,10.8479 0,5.9911 -3.27546,10.8479 -7.316,10.8479 -4.04053,0 -5.90973,-6.7569 -5.90973,-6.7569"
           id="path1807"
           inkscape:connector-curvature="0"
           sodipodi:nodetypes="ccscc"
           inkscape:export-xdpi="96"
           inkscape:export-ydpi="96" />
        <path
           style="display:inline;opacity:1;fill:none;fill-opacity:1;fill-rule:nonzero;stroke:#8b4513;stroke-width:1.88752604;stroke-linecap:round;stroke-linejoin:miter;stroke-miterlimit:4;stroke-dasharray:none;stroke-dashoffset:0;stroke-opacity:1"
           d="m -1245.3447,-1110.981 c 24.9354,46.8115 98.2201,82.7476 130.9713,82.7476 33.1435,0 107.2161,-35.722 131.85701,-83.4544"
           id="path1809"
           inkscape:connector-curvature="0"
           sodipodi:nodetypes="csc"
           inkscape:export-xdpi="96"
           inkscape:export-ydpi="96" />
        <path
           style="display:inline;opacity:1;fill:none;fill-opacity:1;fill-rule:nonzero;stroke:#8b4513;stroke-width:1.88764453;stroke-linecap:round;stroke-linejoin:miter;stroke-miterlimit:4;stroke-dasharray:none;stroke-dashoffset:0;stroke-opacity:1;paint-order:normal"
           d="m -1200.6309,-1125.154 c -0.024,0.3524 -0.041,0.7023 -0.052,1.0459 -0.324,8.5618 2.6862,19.9672 12.1734,22.1922 9.0253,0.8534 13.8395,-9.2737 14.6121,-16.8899 0.7155,-6.4168 -0.2172,-14.2493 -4.1822,-19.599"
           id="path1811"
           inkscape:connector-curvature="0"
           inkscape:export-xdpi="96"
           inkscape:export-ydpi="96"
           sodipodi:nodetypes="ccccc" />
        <path
           inkscape:connector-curvature="0"
           id="path1813"
           d="m -1033.9518,-1143.8373 c -9.3704,0.7779 -13.1763,11.6302 -13.4145,19.7295 -0.3239,8.5618 2.6867,19.9666 12.1739,22.1917 9.0253,0.8534 13.8392,-9.2733 14.6118,-16.8895 1.0039,-9.0033 -1.2317,-20.7982 -10.5448,-24.6037 -0.9232,-0.2849 -1.8608,-0.425 -2.8264,-0.428 z"
           style="display:inline;opacity:1;fill:none;fill-opacity:1;fill-rule:nonzero;stroke:#8b4513;stroke-width:1.88764453;stroke-linecap:round;stroke-linejoin:miter;stroke-miterlimit:4;stroke-dasharray:none;stroke-dashoffset:0;stroke-opacity:1;paint-order:normal"
           inkscape:export-xdpi="96"
           inkscape:export-ydpi="96" />
        <path
           style="display:inline;opacity:1;fill:none;fill-opacity:1;fill-rule:nonzero;stroke:#8b4513;stroke-width:1.88764453;stroke-linecap:round;stroke-linejoin:miter;stroke-miterlimit:4;stroke-dasharray:none;stroke-dashoffset:0;stroke-opacity:1;paint-order:normal"
           d="m -979.16819,-1118.7688 c -1.77624,-0.4637 -2.195,-1.7146 -1.73134,-3.4909 0.46369,-1.7762 2.27946,-2.8403 4.05567,-2.3766"
           id="path1815"
           inkscape:connector-curvature="0"
           sodipodi:nodetypes="csc"
           inkscape:export-xdpi="96"
           inkscape:export-ydpi="96" />
        <path
           style="display:inline;opacity:1;fill:none;fill-opacity:1;fill-rule:nonzero;stroke:#8b4513;stroke-width:1.88764453;stroke-linecap:round;stroke-linejoin:miter;stroke-miterlimit:4;stroke-dasharray:none;stroke-dashoffset:0;stroke-opacity:1"
           d="m -1083.9219,-908.11038 c 2.7508,9.47272 -16.3098,39.84594 -4.5376,44.0759 11.0279,3.96253 25.8311,-45.04486 24.6967,-48.63712"
           id="path1817"
           inkscape:connector-curvature="0"
           sodipodi:nodetypes="csc"
           inkscape:export-xdpi="96"
           inkscape:export-ydpi="96" />
        <path
           style="display:inline;opacity:1;fill:none;fill-opacity:1;fill-rule:nonzero;stroke:#8b4513;stroke-width:1.88764453;stroke-linecap:round;stroke-linejoin:miter;stroke-miterlimit:4;stroke-dasharray:none;stroke-dashoffset:0;stroke-opacity:1;paint-order:normal"
           clip-path="none"
           d="m -1108.7577,-1072.3254 a 49.289137,33.274642 0 0 0 -32.822,8.5051 62.668147,42.306689 0 0 0 32.822,6.3049 62.668147,42.306689 0 0 0 32.8066,-6.3224 49.289137,33.274642 0 0 0 -32.8066,-8.4876 z"
           id="path1819"
           inkscape:connector-curvature="0"
           inkscape:export-xdpi="96"
           inkscape:export-ydpi="96" />
        <path
           style="display:inline;opacity:1;fill:none;fill-opacity:1;fill-rule:nonzero;stroke:#8b4513;stroke-width:1.46509659;stroke-linecap:round;stroke-linejoin:bevel;stroke-miterlimit:4;stroke-dasharray:none;stroke-dashoffset:0;stroke-opacity:1;paint-order:normal"
           d="m -1118.4788,-1205.3509 c -14.7893,47.412 -100.1993,102.1491 -149.6324,93.4707 38.8104,-8.3746 71.7533,-24.3279 85.3341,-65.2906"
           id="path1821"
           inkscape:connector-curvature="0"
           sodipodi:nodetypes="ccc"
           inkscape:export-xdpi="96"
           inkscape:export-ydpi="96" />
        <path
           style="opacity:1;fill:none;fill-opacity:1;fill-rule:nonzero;stroke:#8b4513;stroke-width:1.46509659;stroke-linecap:round;stroke-linejoin:bevel;stroke-miterlimit:4;stroke-dasharray:none;stroke-dashoffset:0;stroke-opacity:1;paint-order:normal"
           d="m -1177.2204,-1139.465 c 50.7966,1.8891 69.1504,-49.1524 86.9217,-78.5868"
           id="path1823"
           inkscape:connector-curvature="0"
           sodipodi:nodetypes="cc"
           inkscape:export-xdpi="96"
           inkscape:export-ydpi="96" />
        <path
           style="opacity:1;fill:none;fill-opacity:1;fill-rule:nonzero;stroke:#8b4513;stroke-width:1.46509659;stroke-linecap:round;stroke-linejoin:bevel;stroke-miterlimit:4;stroke-dasharray:none;stroke-dashoffset:0;stroke-opacity:1;paint-order:normal"
           d="m -1239.7667,-1101.9477 c 3.5219,11.7036 10.5349,22.098 16.9024,32.7345 -1.5624,-1.953 -17.4292,-20.1177 -29.8846,-41.3119 m -2.9469,-4.4904 c -6.8524,-11.6602 -10.704,-21.606 -11.2247,-30.403 -2.3023,-38.8987 3.6681,-64.5877 30.5615,-88.1125 29.6503,-25.9363 97.76,-35.9262 136.9315,-31.7522 18.0256,1.9207 32.3914,3.875 49.6949,8.5571 m 7.5075,2.2452 c 35.0182,9.4754 61.74629,24.6194 72.98173,52.7021 17.1731,42.9238 -5.03575,59.9184 -1.49126,77.0075"
           id="path1825"
           inkscape:connector-curvature="0"
           sodipodi:nodetypes="ccccsssccsc"
           inkscape:export-xdpi="96"
           inkscape:export-ydpi="96" />
        <path
           style="opacity:1;fill:none;fill-opacity:1;fill-rule:nonzero;stroke:#8b4513;stroke-width:1.46509659;stroke-linecap:round;stroke-linejoin:bevel;stroke-miterlimit:4;stroke-dasharray:none;stroke-dashoffset:0;stroke-opacity:1;paint-order:normal"
           d="m -1050.4045,-1252.3668 c 2.6963,-9.8876 10.0807,-18.0171 16.8392,-26.3814 -4.5304,9.8043 -10.7783,19.3515 -8.4196,28.6266"
           id="path1827"
           inkscape:connector-curvature="0"
           sodipodi:nodetypes="ccc"
           inkscape:export-xdpi="96"
           inkscape:export-ydpi="96" />
        <path
           style="opacity:1;fill:none;fill-opacity:1;fill-rule:nonzero;stroke:#8b4513;stroke-width:1.46509659;stroke-linecap:round;stroke-linejoin:bevel;stroke-miterlimit:4;stroke-dasharray:none;stroke-dashoffset:0;stroke-opacity:1;paint-order:normal"
           d="m -1132.6357,-1153.8577 c 32.1501,-17.5215 59.09,-51.7899 100.7543,-38.7301"
           id="path1829"
           inkscape:connector-curvature="0"
           sodipodi:nodetypes="cc"
           inkscape:export-xdpi="96"
           inkscape:export-ydpi="96" />
        <path
           style="opacity:1;fill:none;fill-opacity:1;fill-rule:nonzero;stroke:#8b4513;stroke-width:1.46509659;stroke-linecap:round;stroke-linejoin:bevel;stroke-miterlimit:4;stroke-dasharray:none;stroke-dashoffset:0;stroke-opacity:1;paint-order:normal"
           d="m -1036.0912,-1203.2526 c 7.6142,22.0721 36.14408,49.2303 53.91938,73.6472"
           id="path1831"
           inkscape:connector-curvature="0"
           sodipodi:nodetypes="cc"
           inkscape:export-xdpi="96"
           inkscape:export-ydpi="96" />
        <path
           style="opacity:1;fill:none;fill-opacity:1;fill-rule:nonzero;stroke:#8b4513;stroke-width:1.46509659;stroke-linecap:round;stroke-linejoin:bevel;stroke-miterlimit:4;stroke-dasharray:none;stroke-dashoffset:0;stroke-opacity:1;paint-order:normal"
           d="m -994.27396,-1195.1137 c -6.31144,15.8667 7.88642,45.878 12.34874,65.1114"
           id="path1833"
           inkscape:connector-curvature="0"
           sodipodi:nodetypes="cc"
           inkscape:export-xdpi="96"
           inkscape:export-ydpi="96" />
        <path
           style="opacity:1;fill:none;fill-opacity:1;fill-rule:nonzero;stroke:#8b4513;stroke-width:1.46509659;stroke-linecap:round;stroke-linejoin:bevel;stroke-miterlimit:4;stroke-dasharray:none;stroke-dashoffset:0;stroke-opacity:1;paint-order:normal"
           d="m -978.55739,-1172.3808 c -4.42271,7.3304 -3.73354,24.2455 -2.2452,42.6592"
           id="path1835"
           inkscape:connector-curvature="0"
           sodipodi:nodetypes="cc"
           inkscape:export-xdpi="96"
           inkscape:export-ydpi="96" />
        <path
           style="opacity:1;fill:none;fill-opacity:1;fill-rule:nonzero;stroke:#8b4513;stroke-width:1.46481967;stroke-linecap:round;stroke-linejoin:round;stroke-miterlimit:4;stroke-dasharray:none;stroke-dashoffset:0;stroke-opacity:1;paint-order:normal"
           d="m -982.14266,-1110.888 6.54889,19.9444 c 0.98447,-7.2465 0.37418,-13.6071 3.4729,-22.0281"
           id="path1837"
           inkscape:connector-curvature="0"
           sodipodi:nodetypes="ccc"
           inkscape:export-xdpi="96"
           inkscape:export-ydpi="96" />
      </g>
    </g>
  </g>
</svg>
